<svg viewBox="0 0 330 200" xmlns="http://www.w3.org/2000/svg"><g><g><g><g><g><line x1="30.78125" y1="177" x2="25.78125" y2="177" style="visibility: inherit;" fill="rgb(0, 0, 0)" stroke="rgb(204, 204, 204)" stroke-width="1px"></line><line x1="30.78125" y1="160.9090909090909" x2="25.78125" y2="160.9090909090909" style="visibility: inherit;" fill="rgb(0, 0, 0)" stroke="rgb(204, 204, 204)" stroke-width="1px"></line><line x1="30.78125" y1="144.8181818181818" x2="25.78125" y2="144.8181818181818" style="visibility: inherit;" fill="rgb(0, 0, 0)" stroke="rgb(204, 204, 204)" stroke-width="1px"></line><line x1="30.78125" y1="128.72727272727272" x2="25.78125" y2="128.72727272727272" style="visibility: inherit;" fill="rgb(0, 0, 0)" stroke="rgb(204, 204, 204)" stroke-width="1px"></line><line x1="30.78125" y1="112.63636363636364" x2="25.78125" y2="112.63636363636364" style="visibility: inherit;" fill="rgb(0, 0, 0)" stroke="rgb(204, 204, 204)" stroke-width="1px"></line><line x1="30.78125" y1="96.54545454545453" x2="25.78125" y2="96.54545454545453" style="visibility: inherit;" fill="rgb(0, 0, 0)" stroke="rgb(204, 204, 204)" stroke-width="1px"></line><line x1="30.78125" y1="80.45454545454547" x2="25.78125" y2="80.45454545454547" style="visibility: inherit;" fill="rgb(0, 0, 0)" stroke="rgb(204, 204, 204)" stroke-width="1px"></line><line x1="30.78125" y1="64.36363636363636" x2="25.78125" y2="64.36363636363636" style="visibility: inherit;" fill="rgb(0, 0, 0)" stroke="rgb(204, 204, 204)" stroke-width="1px"></line><line x1="30.78125" y1="48.272727272727266" x2="25.78125" y2="48.272727272727266" style="visibility: inherit;" fill="rgb(0, 0, 0)" stroke="rgb(204, 204, 204)" stroke-width="1px"></line><line x1="30.78125" y1="32.18181818181817" x2="25.78125" y2="32.18181818181817" style="visibility: inherit;" fill="rgb(0, 0, 0)" stroke="rgb(204, 204, 204)" stroke-width="1px"></line><line x1="30.78125" y1="16.090909090909097" x2="25.78125" y2="16.090909090909097" style="visibility: inherit;" fill="rgb(0, 0, 0)" stroke="rgb(204, 204, 204)" stroke-width="1px"></line><line x1="30.78125" y1="0" x2="25.78125" y2="0" style="visibility: inherit;" fill="rgb(0, 0, 0)" stroke="rgb(204, 204, 204)" stroke-width="1px"></line></g><g transform="translate(20.78125, 0)"><text x="0" y="177" dx="0em" dy="0.3em" style="text-anchor: end; visibility: hidden; font-family: Roboto, sans-serif; font-size: 12px; font-weight: 200;" fill="rgb(255, 255, 255)" stroke="none" stroke-width="1px">40</text><text x="0" y="160.9090909090909" dx="0em" dy="0.3em" style="text-anchor: end; visibility: inherit; font-family: Roboto, sans-serif; font-size: 12px; font-weight: 200;" fill="rgb(255, 255, 255)" stroke="none" stroke-width="1px">45</text><text x="0" y="144.8181818181818" dx="0em" dy="0.3em" style="text-anchor: end; visibility: hidden; font-family: Roboto, sans-serif; font-size: 12px; font-weight: 200;" fill="rgb(255, 255, 255)" stroke="none" stroke-width="1px">50</text><text x="0" y="128.72727272727272" dx="0em" dy="0.3em" style="text-anchor: end; visibility: inherit; font-family: Roboto, sans-serif; font-size: 12px; font-weight: 200;" fill="rgb(255, 255, 255)" stroke="none" stroke-width="1px">55</text><text x="0" y="112.63636363636364" dx="0em" dy="0.3em" style="text-anchor: end; visibility: hidden; font-family: Roboto, sans-serif; font-size: 12px; font-weight: 200;" fill="rgb(255, 255, 255)" stroke="none" stroke-width="1px">60</text><text x="0" y="96.54545454545453" dx="0em" dy="0.3em" style="text-anchor: end; visibility: inherit; font-family: Roboto, sans-serif; font-size: 12px; font-weight: 200;" fill="rgb(255, 255, 255)" stroke="none" stroke-width="1px">65</text><text x="0" y="80.45454545454547" dx="0em" dy="0.3em" style="text-anchor: end; visibility: hidden; font-family: Roboto, sans-serif; font-size: 12px; font-weight: 200;" fill="rgb(255, 255, 255)" stroke="none" stroke-width="1px">70</text><text x="0" y="64.36363636363636" dx="0em" dy="0.3em" style="text-anchor: end; visibility: inherit; font-family: Roboto, sans-serif; font-size: 12px; font-weight: 200;" fill="rgb(255, 255, 255)" stroke="none" stroke-width="1px">75</text><text x="0" y="48.272727272727266" dx="0em" dy="0.3em" style="text-anchor: end; visibility: hidden; font-family: Roboto, sans-serif; font-size: 12px; font-weight: 200;" fill="rgb(255, 255, 255)" stroke="none" stroke-width="1px">80</text><text x="0" y="32.18181818181817" dx="0em" dy="0.3em" style="text-anchor: end; visibility: inherit; font-family: Roboto, sans-serif; font-size: 12px; font-weight: 200;" fill="rgb(255, 255, 255)" stroke="none" stroke-width="1px">85</text><text x="0" y="16.090909090909097" dx="0em" dy="0.3em" style="text-anchor: end; visibility: hidden; font-family: Roboto, sans-serif; font-size: 12px; font-weight: 200;" fill="rgb(255, 255, 255)" stroke="none" stroke-width="1px">90</text><text x="0" y="0" dx="0em" dy="0.3em" style="text-anchor: end; visibility: hidden; font-family: Roboto, sans-serif; font-size: 12px; font-weight: 200;" fill="rgb(255, 255, 255)" stroke="none" stroke-width="1px">95</text></g><line x1="30.78125" y1="0" x2="30.78125" y2="177" fill="rgb(0, 0, 0)" stroke="rgb(204, 204, 204)" stroke-width="1px"></line></g></g><g transform="translate(30, 0)" clip-path="url(#clip_0)"><clipPath id="clip_0"><rect width="299" height="177"></rect></clipPath><g><g><g><line x1="0" y1="0" x2="0" y2="177" fill="rgb(0, 0, 0)" stroke="rgb(189, 189, 189)" stroke-width="1px" opacity="0.25"></line><line x1="21.372767857142858" y1="0" x2="21.372767857142858" y2="177" fill="rgb(0, 0, 0)" stroke="rgb(189, 189, 189)" stroke-width="1px" opacity="0.25"></line><line x1="42.745535714285715" y1="0" x2="42.745535714285715" y2="177" fill="rgb(0, 0, 0)" stroke="rgb(189, 189, 189)" stroke-width="1px" opacity="0.25"></line><line x1="64.11830357142857" y1="0" x2="64.11830357142857" y2="177" fill="rgb(0, 0, 0)" stroke="rgb(189, 189, 189)" stroke-width="1px" opacity="0.25"></line><line x1="85.49107142857143" y1="0" x2="85.49107142857143" y2="177" fill="rgb(0, 0, 0)" stroke="rgb(189, 189, 189)" stroke-width="1px" opacity="0.25"></line><line x1="106.86383928571429" y1="0" x2="106.86383928571429" y2="177" fill="rgb(0, 0, 0)" stroke="rgb(189, 189, 189)" stroke-width="1px" opacity="0.25"></line><line x1="128.23660714285714" y1="0" x2="128.23660714285714" y2="177" fill="rgb(0, 0, 0)" stroke="rgb(189, 189, 189)" stroke-width="1px" opacity="0.25"></line><line x1="149.609375" y1="0" x2="149.609375" y2="177" fill="rgb(0, 0, 0)" stroke="rgb(189, 189, 189)" stroke-width="1px" opacity="0.25"></line><line x1="170.98214285714286" y1="0" x2="170.98214285714286" y2="177" fill="rgb(0, 0, 0)" stroke="rgb(189, 189, 189)" stroke-width="1px" opacity="0.25"></line><line x1="192.35491071428572" y1="0" x2="192.35491071428572" y2="177" fill="rgb(0, 0, 0)" stroke="rgb(189, 189, 189)" stroke-width="1px" opacity="0.25"></line><line x1="213.72767857142858" y1="0" x2="213.72767857142858" y2="177" fill="rgb(0, 0, 0)" stroke="rgb(189, 189, 189)" stroke-width="1px" opacity="0.25"></line><line x1="235.10044642857142" y1="0" x2="235.10044642857142" y2="177" fill="rgb(0, 0, 0)" stroke="rgb(189, 189, 189)" stroke-width="1px" opacity="0.25"></line><line x1="256.4732142857143" y1="0" x2="256.4732142857143" y2="177" fill="rgb(0, 0, 0)" stroke="rgb(189, 189, 189)" stroke-width="1px" opacity="0.25"></line><line x1="277.84598214285717" y1="0" x2="277.84598214285717" y2="177" fill="rgb(0, 0, 0)" stroke="rgb(189, 189, 189)" stroke-width="1px" opacity="0.25"></line><line x1="299.21875" y1="0" x2="299.21875" y2="177" fill="rgb(0, 0, 0)" stroke="rgb(189, 189, 189)" stroke-width="1px" opacity="0.25"></line></g><g><line x1="0" y1="177" x2="299.21875" y2="177" fill="rgb(0, 0, 0)" stroke="rgb(189, 189, 189)" stroke-width="1px" opacity="0.25"></line><line x1="0" y1="160.9090909090909" x2="299.21875" y2="160.9090909090909" fill="rgb(0, 0, 0)" stroke="rgb(189, 189, 189)" stroke-width="1px" opacity="0.25"></line><line x1="0" y1="144.8181818181818" x2="299.21875" y2="144.8181818181818" fill="rgb(0, 0, 0)" stroke="rgb(189, 189, 189)" stroke-width="1px" opacity="0.25"></line><line x1="0" y1="128.72727272727272" x2="299.21875" y2="128.72727272727272" fill="rgb(0, 0, 0)" stroke="rgb(189, 189, 189)" stroke-width="1px" opacity="0.25"></line><line x1="0" y1="112.63636363636364" x2="299.21875" y2="112.63636363636364" fill="rgb(0, 0, 0)" stroke="rgb(189, 189, 189)" stroke-width="1px" opacity="0.25"></line><line x1="0" y1="96.54545454545453" x2="299.21875" y2="96.54545454545453" fill="rgb(0, 0, 0)" stroke="rgb(189, 189, 189)" stroke-width="1px" opacity="0.25"></line><line x1="0" y1="80.45454545454547" x2="299.21875" y2="80.45454545454547" fill="rgb(0, 0, 0)" stroke="rgb(189, 189, 189)" stroke-width="1px" opacity="0.25"></line><line x1="0" y1="64.36363636363636" x2="299.21875" y2="64.36363636363636" fill="rgb(0, 0, 0)" stroke="rgb(189, 189, 189)" stroke-width="1px" opacity="0.25"></line><line x1="0" y1="48.272727272727266" x2="299.21875" y2="48.272727272727266" fill="rgb(0, 0, 0)" stroke="rgb(189, 189, 189)" stroke-width="1px" opacity="0.25"></line><line x1="0" y1="32.18181818181817" x2="299.21875" y2="32.18181818181817" fill="rgb(0, 0, 0)" stroke="rgb(189, 189, 189)" stroke-width="1px" opacity="0.25"></line><line x1="0" y1="16.090909090909097" x2="299.21875" y2="16.090909090909097" fill="rgb(0, 0, 0)" stroke="rgb(189, 189, 189)" stroke-width="1px" opacity="0.25"></line><line x1="0" y1="0" x2="299.21875" y2="0" fill="rgb(0, 0, 0)" stroke="rgb(189, 189, 189)" stroke-width="1px" opacity="0.25"></line></g></g></g><g><g><line x1="0" y1="305.72727272727275" x2="299.21875" y2="305.72727272727275" fill="rgb(0, 0, 0)" stroke="rgb(153, 153, 153)" stroke-width="1.5px"></line></g></g><g><g><line x1="21.372767857142858" y1="0" x2="21.372767857142858" y2="177" fill="rgb(0, 0, 0)" stroke="rgb(153, 153, 153)" stroke-width="1.5px"></line></g></g><g><g><g><g><g><path stroke="rgb(255, 112, 67)" stroke-width="2px" d="M21.372767857142858,144.8181818181818L22.44140625,144.8181818181818L23.510044642857142,144.8181818181818L24.578683035714285,130.02874331550805L25.647321428571427,164.35953567598258L26.715959821428573,142.65774826677085L27.784598214285715,130.3033503408283L28.853236607142858,83.83793326112314L29.921875,108.47835132652264L30.990513392857146,110.15167419395975L32.059151785714285,98.2295696539095L33.12779017857143,104.00485879427718L34.19642857142857,68.79329016055515L35.265066964285715,112.10991881028902L36.333705357142854,125.19937848083944L37.40234375,133.04911431252896L38.47098214285714,99.13281860073691L39.539620535714285,91.66075047934568L40.60825892857142,125.79853050648359L41.67689732142857,146.2798671340079L42.745535714285715,184.31420918334348L43.81417410714286,168.51559029316513L44.8828125,146.163723110994L45.951450892857146,119.87992750576801L47.020089285714285,129.85525759088426L48.08872767857143,161.58593595399736L49.15736607142857,129.13334653930386L50.22600446428571,135.40728450364406L51.294642857142854,164.91710884800128L52.36328125,156.8775362587337L53.431919642857146,139.18106486244866L54.500558035714285,141.43591182419758L55.56919642857143,117.04336411154459L56.63783482142857,153.89874679560424L57.706473214285715,150.26652074219476L58.775111607142854,160.95991255561304L59.84375,154.50322022068227L60.912388392857146,176.37465948634954L61.98102678571429,189.4975229937736L63.04966517857143,171.62578649964686L64.11830357142857,109.4118354862531L65.18694196428571,123.57437402584002L66.25558035714286,119.19916986878619L67.32421875,168.0649564751919L68.39285714285714,184.51170115955196L69.46149553571429,130.01611160142338L70.53013392857143,110.19148514193036L71.59877232142857,59.67852744766048L72.66741071428571,106.60711646922847L73.73604910714286,83.27336079043938L74.8046875,95.01856192886605L75.87332589285714,127.81113715741506L76.94196428571428,134.61395502173366L78.01060267857143,138.6956457403172L79.07924107142857,115.39920562599386L80.14787946428571,127.16679610287348L81.21651785714285,108.48189584353804L82.28515625,84.39822841521047L83.35379464285714,134.3116643218576L84.42243303571429,151.3869985931154L85.49107142857143,97.26856279223125L86.55970982142858,51.92477403897437L87.62834821428572,50.46395533247548L88.69698660714286,23.842009563121497L89.765625,46.48702391969119L90.83426339285714,34.32857798817832L91.90290178571429,52.77896497472525L92.97154017857143,38.10374262119874L94.04017857142857,29.29860920908293L95.10881696428571,36.88825643454064L96.17745535714286,92.9329538607244L97.24609375,100.8143177709801L98.31473214285714,79.79768157167895L99.38337053571428,105.80588167028014L100.45200892857142,82.79261991125901L101.52064732142857,81.8573901285736L102.58928571428571,55.5507977135078L103.65792410714286,78.38502408265012L104.7265625,104.9582871768628L105.79520089285715,108.02951776066314L106.86383928571429,96.99952883821604L107.93247767857143,90.38153548474781L109.00111607142857,73.53801219993962L110.06975446428572,50.55917095632742L111.13839285714286,49.64459348288735L112.20703125,49.09584699882331L113.27566964285714,74.51205365383949L114.34430803571428,64.01632310139465L115.41294642857143,57.7188847699277L116.48158482142857,105.43133086195661L117.55022321428571,56.82243488081035L118.61886160714285,66.27527911030438L119.6875,84.81971292072808L120.75613839285714,44.4554641160732L121.82477678571429,84.60055119691665L122.89341517857143,95.81487617269548L123.96205357142858,76.79801661270818L125.03069196428572,78.26062814944311L126.09933035714286,40.52001325330223L127.16796875,69.36655340652682L128.23660714285714,73.80175022573431L129.30524553571428,50.71741377180425L130.37388392857142,49.73953917217346L131.44252232142858,49.15281441239501L132.51116071428572,48.80077955652793L133.57979910714286,48.58955864300768L134.6484375,61.335553367622765L135.71707589285714,56.11042292966458L136.78571428571428,52.97534466688963L137.85435267857142,51.094297709224726L138.92299107142858,62.838396807353014L139.99162946428572,57.012128993502756L141.06026785714286,79.26182285064709L142.12890625,79.73891189220646L143.19754464285714,67.15243804441481L144.26618303571428,59.60055373573977L145.33482142857142,55.06942315053478L146.40345982142856,39.4780175266845L147.47209821428572,55.86862869782887L148.54073660714286,52.830268127788216L149.609375,51.00725178576383L150.67801339285714,75.65889652600377L151.74665178571428,90.4498833701477L152.81529017857142,73.57902093117956L153.88392857142856,63.45650346779868L154.95256696428572,83.12844753522471L156.02120535714286,69.18615943022571L157.08984375,73.69351383995364L158.15848214285714,76.39792648579039L159.22712053571428,90.89330134601971L160.29575892857142,112.46325353488457L161.36439732142856,112.5324975754762L162.4330357142857,86.82858945437663L163.50167410714283,110.02442639989872L164.5703125,123.94192856721196L165.63895089285714,106.54697532214534L166.70758928571428,134.7281851932872L167.77622767857142,100.14600202506324L168.84486607142858,105.1421466695834L169.91350446428572,69.52165163811365L170.98214285714286,61.0220818919591L172.05078125,43.04961277153911L173.11941964285717,32.26613129928713L174.1880580357143,25.796042415935926L175.25669642857144,47.659443631379766L176.32533482142858,47.90475708791878L177.39397321428572,48.051945161842184L178.46261160714286,48.14025800619623L179.53125,73.93870025826321L180.59988839285714,50.799583791321574L181.66852678571428,49.78884118388383L182.73716517857144,23.436941073966644L183.80580357142858,20.498528280743642L184.87444196428572,44.48093515026437L185.94308035714286,33.12492472652224L187.01171875,26.311318472276998L188.08035714285714,35.09588199245714L189.14899553571428,40.366620104565214L190.21763392857142,56.40179024455731L191.28627232142856,53.150165055825326L192.35491071428572,38.326462669858834L193.42354910714286,16.55951396555165L194.4921875,16.372072015694624L195.56082589285714,16.259606845780453L196.62946428571428,16.192127743831914L197.69810267857142,29.024367555390068L198.76674107142856,49.59643871505225L199.8353794642857,74.81240868357685L200.90401785714283,64.19653611923704L201.97265625,70.6997398533604L203.04129464285714,87.47438936656168L204.10993303571428,71.79372452902791L205.17857142857142,62.385325626507665L206.24720982142858,69.61301355772278L207.31584821428572,61.07689904372455L208.38448660714286,55.95523033532565L209.453125,27.136774564831775L210.52176339285717,35.59115564798996L211.5904017857143,79.28196611606674L212.65904017857144,92.62372512418553L213.72767857142858,49.13787143814768L214.79631696428572,23.046359226524977L215.86495535714286,33.13690644500589L216.93359375,39.19123477609448L218.00223214285714,55.69655904747488L219.07087053571428,91.34520815575763L220.13950892857144,61.243488529818244L221.20814732142858,30.309729481527274L222.27678571428572,37.49492859800732L223.34542410714286,54.67877534062256L224.4140625,64.98908338619175L225.48270089285714,58.30254094080598L226.55133928571428,92.90879729175631L227.61997767857142,75.05436928414466L228.68861607142856,51.46898520685044L229.75725446428572,37.317754760473896L230.82589285714286,15.954289219920689L231.89453125,28.881664441043323L232.96316964285714,62.38354411917148L234.03180803571428,43.86649010786655L235.10044642857142,58.50171224653811L236.16908482142856,54.410118257013764L237.2377232142857,90.57334368148098L238.30636160714283,60.7803698452522L239.375,30.031858270787726L240.44363839285714,11.582751326109024L241.51227678571428,64.87692352293814L242.58091517857142,32.48979047739927L243.64955357142858,38.802965195530476L244.71819196428572,42.590870026409206L245.78683035714286,31.99088565220914L246.85546875,38.5036223004164L247.92410714285717,42.41126428934078L248.9927455357143,70.50130402814993L250.06138392857144,74.48260059870815L251.13002232142858,51.125923995588536L252.19866071428572,49.98464530644403L253.26729910714286,23.55442354750279L254.3359375,20.56901776486532L255.40457589285714,5.905047022555541L256.4732142857143,35.724846395351506L257.54185267857144,27.871271473574545L258.61049107142856,36.03185379323566L259.6791294642857,15.18274863957776L260.74776785714283,28.418740092837538L261.81640625,23.487607692066177L262.88504464285717,20.528928251603336L263.9536830357143,18.75372058732565L265.02232142857144,17.688595988759015L266.09095982142856,17.049521229619014L267.1595982142857,3.7933491014077534L268.2282366071429,8.712373097208298L269.296875,11.663787494688648L270.36551339285717,13.434636133176813L271.4341517857143,27.369872588997L272.50279017857144,22.858287189761857L273.57142857142856,20.151335950220744L274.6400669642857,5.654437933768796L275.70870535714283,9.8290263966249L276.77734375,38.0792340197931" style="fill: none;" fill="none"></path></g></g></g></g><g opacity="0.2"><g><g><g><path stroke="rgb(255, 112, 67)" stroke-width="2px" d="M21.372767857142858,144.8181818181818L22.44140625,144.8181818181818L23.510044642857142,144.8181818181818L24.578683035714285,112.63636363636364L25.647321428571427,209.1818181818182L26.715959821428573,112.63636363636364L27.784598214285715,112.63636363636364L28.853236607142858,16.090909090909097L29.921875,144.8181818181818L30.990513392857146,112.63636363636364L32.059151785714285,80.45454545454547L33.12779017857143,112.63636363636364L34.19642857142857,16.090909090909097L35.265066964285715,177L36.333705357142854,144.8181818181818L37.40234375,144.8181818181818L38.47098214285714,48.272727272727266L39.539620535714285,80.45454545454547L40.60825892857142,177L41.67689732142857,177L42.745535714285715,241.36363636363637L43.81417410714286,144.8181818181818L44.8828125,112.63636363636364L45.951450892857146,80.45454545454547L47.020089285714285,144.8181818181818L48.08872767857143,209.1818181818182L49.15736607142857,80.45454545454547L50.22600446428571,144.8181818181818L51.294642857142854,209.1818181818182L52.36328125,144.8181818181818L53.431919642857146,112.63636363636364L54.500558035714285,144.8181818181818L55.56919642857143,80.45454545454547L56.63783482142857,209.1818181818182L57.706473214285715,144.8181818181818L58.775111607142854,177L59.84375,144.8181818181818L60.912388392857146,209.1818181818182L61.98102678571429,209.1818181818182L63.04966517857143,144.8181818181818L64.11830357142857,16.090909090909097L65.18694196428571,144.8181818181818L66.25558035714286,112.63636363636364L67.32421875,241.36363636363637L68.39285714285714,209.1818181818182L69.46149553571429,48.272727272727266L70.53013392857143,80.45454545454547L71.59877232142857,-16.090909090909076L72.66741071428571,177L73.73604910714286,48.272727272727266L74.8046875,112.63636363636364L75.87332589285714,177L76.94196428571428,144.8181818181818L78.01060267857143,144.8181818181818L79.07924107142857,80.45454545454547L80.14787946428571,144.8181818181818L81.21651785714285,80.45454545454547L82.28515625,48.272727272727266L83.35379464285714,209.1818181818182L84.42243303571429,177L85.49107142857143,16.090909090909097L86.55970982142858,-16.090909090909076L87.62834821428572,48.272727272727266L88.69698660714286,-16.090909090909076L89.765625,80.45454545454547L90.83426339285714,16.090909090909097L91.90290178571429,80.45454545454547L92.97154017857143,16.090909090909097L94.04017857142857,16.090909090909097L95.10881696428571,48.272727272727266L96.17745535714286,177L97.24609375,112.63636363636364L98.31473214285714,48.272727272727266L99.38337053571428,144.8181818181818L100.45200892857142,48.272727272727266L101.52064732142857,80.45454545454547L102.58928571428571,16.090909090909097L103.65792410714286,112.63636363636364L104.7265625,144.8181818181818L105.79520089285715,112.63636363636364L106.86383928571429,80.45454545454547L107.93247767857143,80.45454545454547L109.00111607142857,48.272727272727266L110.06975446428572,16.090909090909097L111.13839285714286,48.272727272727266L112.20703125,48.272727272727266L113.27566964285714,112.63636363636364L114.34430803571428,48.272727272727266L115.41294642857143,48.272727272727266L116.48158482142857,177L117.55022321428571,-16.090909090909076L118.61886160714285,80.45454545454547L119.6875,112.63636363636364L120.75613839285714,-16.090909090909076L121.82477678571429,144.8181818181818L122.89341517857143,112.63636363636364L123.96205357142858,48.272727272727266L125.03069196428572,80.45454545454547L126.09933035714286,-16.090909090909076L127.16796875,112.63636363636364L128.23660714285714,80.45454545454547L129.30524553571428,16.090909090909097L130.37388392857142,48.272727272727266L131.44252232142858,48.272727272727266L132.51116071428572,48.272727272727266L133.57979910714286,48.272727272727266L134.6484375,80.45454545454547L135.71707589285714,48.272727272727266L136.78571428571428,48.272727272727266L137.85435267857142,48.272727272727266L138.92299107142858,80.45454545454547L139.99162946428572,48.272727272727266L141.06026785714286,112.63636363636364L142.12890625,80.45454545454547L143.19754464285714,48.272727272727266L144.26618303571428,48.272727272727266L145.33482142857142,48.272727272727266L146.40345982142856,16.090909090909097L147.47209821428572,80.45454545454547L148.54073660714286,48.272727272727266L149.609375,48.272727272727266L150.67801339285714,112.63636363636364L151.74665178571428,112.63636363636364L152.81529017857142,48.272727272727266L153.88392857142856,48.272727272727266L154.95256696428572,112.63636363636364L156.02120535714286,48.272727272727266L157.08984375,80.45454545454547L158.15848214285714,80.45454545454547L159.22712053571428,112.63636363636364L160.29575892857142,144.8181818181818L161.36439732142856,112.63636363636364L162.4330357142857,48.272727272727266L163.50167410714283,144.8181818181818L164.5703125,144.8181818181818L165.63895089285714,80.45454545454547L166.70758928571428,177L167.77622767857142,48.272727272727266L168.84486607142858,112.63636363636364L169.91350446428572,16.090909090909097L170.98214285714286,48.272727272727266L172.05078125,16.090909090909097L173.11941964285717,16.090909090909097L174.1880580357143,16.090909090909097L175.25669642857144,80.45454545454547L176.32533482142858,48.272727272727266L177.39397321428572,48.272727272727266L178.46261160714286,48.272727272727266L179.53125,112.63636363636364L180.59988839285714,16.090909090909097L181.66852678571428,48.272727272727266L182.73716517857144,-16.090909090909076L183.80580357142858,16.090909090909097L184.87444196428572,80.45454545454547L185.94308035714286,16.090909090909097L187.01171875,16.090909090909097L188.08035714285714,48.272727272727266L189.14899553571428,48.272727272727266L190.21763392857142,80.45454545454547L191.28627232142856,48.272727272727266L192.35491071428572,16.090909090909097L193.42354910714286,-16.090909090909076L194.4921875,16.090909090909097L195.56082589285714,16.090909090909097L196.62946428571428,16.090909090909097L197.69810267857142,48.272727272727266L198.76674107142856,80.45454545454547L199.8353794642857,112.63636363636364L200.90401785714283,48.272727272727266L201.97265625,80.45454545454547L203.04129464285714,112.63636363636364L204.10993303571428,48.272727272727266L205.17857142857142,48.272727272727266L206.24720982142858,80.45454545454547L207.31584821428572,48.272727272727266L208.38448660714286,48.272727272727266L209.453125,-16.090909090909076L210.52176339285717,48.272727272727266L211.5904017857143,144.8181818181818L212.65904017857144,112.63636363636364L213.72767857142858,-16.090909090909076L214.79631696428572,-16.090909090909076L215.86495535714286,48.272727272727266L216.93359375,48.272727272727266L218.00223214285714,80.45454545454547L219.07087053571428,144.8181818181818L220.13950892857144,16.090909090909097L221.20814732142858,-16.090909090909076L222.27678571428572,48.272727272727266L223.34542410714286,80.45454545454547L224.4140625,80.45454545454547L225.48270089285714,48.272727272727266L226.55133928571428,144.8181818181818L227.61997767857142,48.272727272727266L228.68861607142856,16.090909090909097L229.75725446428572,16.090909090909097L230.82589285714286,-16.090909090909076L231.89453125,48.272727272727266L232.96316964285714,112.63636363636364L234.03180803571428,16.090909090909097L235.10044642857142,80.45454545454547L236.16908482142856,48.272727272727266L237.2377232142857,144.8181818181818L238.30636160714283,16.090909090909097L239.375,-16.090909090909076L240.44363839285714,-16.090909090909076L241.51227678571428,144.8181818181818L242.58091517857142,-16.090909090909076L243.64955357142858,48.272727272727266L244.71819196428572,48.272727272727266L245.78683035714286,16.090909090909097L246.85546875,48.272727272727266L247.92410714285717,48.272727272727266L248.9927455357143,112.63636363636364L250.06138392857144,80.45454545454547L251.13002232142858,16.090909090909097L252.19866071428572,48.272727272727266L253.26729910714286,-16.090909090909076L254.3359375,16.090909090909097L255.40457589285714,-16.090909090909076L256.4732142857143,80.45454545454547L257.54185267857144,16.090909090909097L258.61049107142856,48.272727272727266L259.6791294642857,-16.090909090909076L260.74776785714283,48.272727272727266L261.81640625,16.090909090909097L262.88504464285717,16.090909090909097L263.9536830357143,16.090909090909097L265.02232142857144,16.090909090909097L266.09095982142856,16.090909090909097L267.1595982142857,-16.090909090909076L268.2282366071429,16.090909090909097L269.296875,16.090909090909097L270.36551339285717,16.090909090909097L271.4341517857143,48.272727272727266L272.50279017857144,16.090909090909097L273.57142857142856,16.090909090909097L274.6400669642857,-16.090909090909076L275.70870535714283,16.090909090909097L276.77734375,80.45454545454547" style="fill: none;" fill="none"></path></g></g></g></g></g></g><g transform="translate(30, 177)" clip-path="url(#clip_1)"><clipPath id="clip_1"><rect width="299" height="23"></rect></clipPath><g><g><line x1="0" y1="0" x2="0" y2="5" style="visibility: inherit;" fill="rgb(0, 0, 0)" stroke="rgb(204, 204, 204)" stroke-width="1px"></line><line x1="21.372767857142858" y1="0" x2="21.372767857142858" y2="5" style="visibility: inherit;" fill="rgb(0, 0, 0)" stroke="rgb(204, 204, 204)" stroke-width="1px"></line><line x1="42.745535714285715" y1="0" x2="42.745535714285715" y2="5" style="visibility: inherit;" fill="rgb(0, 0, 0)" stroke="rgb(204, 204, 204)" stroke-width="1px"></line><line x1="64.11830357142857" y1="0" x2="64.11830357142857" y2="5" style="visibility: inherit;" fill="rgb(0, 0, 0)" stroke="rgb(204, 204, 204)" stroke-width="1px"></line><line x1="85.49107142857143" y1="0" x2="85.49107142857143" y2="5" style="visibility: inherit;" fill="rgb(0, 0, 0)" stroke="rgb(204, 204, 204)" stroke-width="1px"></line><line x1="106.86383928571429" y1="0" x2="106.86383928571429" y2="5" style="visibility: inherit;" fill="rgb(0, 0, 0)" stroke="rgb(204, 204, 204)" stroke-width="1px"></line><line x1="128.23660714285714" y1="0" x2="128.23660714285714" y2="5" style="visibility: inherit;" fill="rgb(0, 0, 0)" stroke="rgb(204, 204, 204)" stroke-width="1px"></line><line x1="149.609375" y1="0" x2="149.609375" y2="5" style="visibility: inherit;" fill="rgb(0, 0, 0)" stroke="rgb(204, 204, 204)" stroke-width="1px"></line><line x1="170.98214285714286" y1="0" x2="170.98214285714286" y2="5" style="visibility: inherit;" fill="rgb(0, 0, 0)" stroke="rgb(204, 204, 204)" stroke-width="1px"></line><line x1="192.35491071428572" y1="0" x2="192.35491071428572" y2="5" style="visibility: inherit;" fill="rgb(0, 0, 0)" stroke="rgb(204, 204, 204)" stroke-width="1px"></line><line x1="213.72767857142858" y1="0" x2="213.72767857142858" y2="5" style="visibility: inherit;" fill="rgb(0, 0, 0)" stroke="rgb(204, 204, 204)" stroke-width="1px"></line><line x1="235.10044642857142" y1="0" x2="235.10044642857142" y2="5" style="visibility: inherit;" fill="rgb(0, 0, 0)" stroke="rgb(204, 204, 204)" stroke-width="1px"></line><line x1="256.4732142857143" y1="0" x2="256.4732142857143" y2="5" style="visibility: inherit;" fill="rgb(0, 0, 0)" stroke="rgb(204, 204, 204)" stroke-width="1px"></line><line x1="277.84598214285717" y1="0" x2="277.84598214285717" y2="5" style="visibility: inherit;" fill="rgb(0, 0, 0)" stroke="rgb(204, 204, 204)" stroke-width="1px"></line><line x1="299.21875" y1="0" x2="299.21875" y2="5" style="visibility: inherit;" fill="rgb(0, 0, 0)" stroke="rgb(204, 204, 204)" stroke-width="1px"></line></g><g transform="translate(0, 8)"><text x="0" y="0" dx="0em" dy="0.95em" style="text-anchor: middle; visibility: hidden; font-family: Roboto, sans-serif; font-size: 12px; font-weight: 200;" fill="rgb(255, 255, 255)" stroke="none" stroke-width="1px">-20</text><text x="21.372767857142858" y="0" dx="0em" dy="0.95em" style="text-anchor: middle; visibility: inherit; font-family: Roboto, sans-serif; font-size: 12px; font-weight: 200;" fill="rgb(255, 255, 255)" stroke="none" stroke-width="1px">0</text><text x="42.745535714285715" y="0" dx="0em" dy="0.95em" style="text-anchor: middle; visibility: hidden; font-family: Roboto, sans-serif; font-size: 12px; font-weight: 200;" fill="rgb(255, 255, 255)" stroke="none" stroke-width="1px">20</text><text x="64.11830357142857" y="0" dx="0em" dy="0.95em" style="text-anchor: middle; visibility: inherit; font-family: Roboto, sans-serif; font-size: 12px; font-weight: 200;" fill="rgb(255, 255, 255)" stroke="none" stroke-width="1px">40</text><text x="85.49107142857143" y="0" dx="0em" dy="0.95em" style="text-anchor: middle; visibility: hidden; font-family: Roboto, sans-serif; font-size: 12px; font-weight: 200;" fill="rgb(255, 255, 255)" stroke="none" stroke-width="1px">60</text><text x="106.86383928571429" y="0" dx="0em" dy="0.95em" style="text-anchor: middle; visibility: inherit; font-family: Roboto, sans-serif; font-size: 12px; font-weight: 200;" fill="rgb(255, 255, 255)" stroke="none" stroke-width="1px">80</text><text x="128.23660714285714" y="0" dx="0em" dy="0.95em" style="text-anchor: middle; visibility: hidden; font-family: Roboto, sans-serif; font-size: 12px; font-weight: 200;" fill="rgb(255, 255, 255)" stroke="none" stroke-width="1px">100</text><text x="149.609375" y="0" dx="0em" dy="0.95em" style="text-anchor: middle; visibility: inherit; font-family: Roboto, sans-serif; font-size: 12px; font-weight: 200;" fill="rgb(255, 255, 255)" stroke="none" stroke-width="1px">120</text><text x="170.98214285714286" y="0" dx="0em" dy="0.95em" style="text-anchor: middle; visibility: hidden; font-family: Roboto, sans-serif; font-size: 12px; font-weight: 200;" fill="rgb(255, 255, 255)" stroke="none" stroke-width="1px">140</text><text x="192.35491071428572" y="0" dx="0em" dy="0.95em" style="text-anchor: middle; visibility: inherit; font-family: Roboto, sans-serif; font-size: 12px; font-weight: 200;" fill="rgb(255, 255, 255)" stroke="none" stroke-width="1px">160</text><text x="213.72767857142858" y="0" dx="0em" dy="0.95em" style="text-anchor: middle; visibility: hidden; font-family: Roboto, sans-serif; font-size: 12px; font-weight: 200;" fill="rgb(255, 255, 255)" stroke="none" stroke-width="1px">180</text><text x="235.10044642857142" y="0" dx="0em" dy="0.95em" style="text-anchor: middle; visibility: inherit; font-family: Roboto, sans-serif; font-size: 12px; font-weight: 200;" fill="rgb(255, 255, 255)" stroke="none" stroke-width="1px">200</text><text x="256.4732142857143" y="0" dx="0em" dy="0.95em" style="text-anchor: middle; visibility: hidden; font-family: Roboto, sans-serif; font-size: 12px; font-weight: 200;" fill="rgb(255, 255, 255)" stroke="none" stroke-width="1px">220</text><text x="277.84598214285717" y="0" dx="0em" dy="0.95em" style="text-anchor: middle; visibility: inherit; font-family: Roboto, sans-serif; font-size: 12px; font-weight: 200;" fill="rgb(255, 255, 255)" stroke="none" stroke-width="1px">240</text><text x="299.21875" y="0" dx="0em" dy="0.95em" style="text-anchor: middle; visibility: hidden; font-family: Roboto, sans-serif; font-size: 12px; font-weight: 200;" fill="rgb(255, 255, 255)" stroke="none" stroke-width="1px">260</text></g><line x1="0" y1="0" x2="299.21875" y2="0" fill="rgb(0, 0, 0)" stroke="rgb(204, 204, 204)" stroke-width="1px"></line></g></g></g></g></svg>