<svg viewBox="0 0 330 200" xmlns="http://www.w3.org/2000/svg"><g><g><g><g><g><line x1="51.5625" y1="177" x2="46.5625" y2="177" style="visibility: inherit;" fill="rgb(0, 0, 0)" stroke="rgb(204, 204, 204)" stroke-width="1px"></line><line x1="51.5625" y1="162.25" x2="46.5625" y2="162.25" style="visibility: inherit;" fill="rgb(0, 0, 0)" stroke="rgb(204, 204, 204)" stroke-width="1px"></line><line x1="51.5625" y1="147.5" x2="46.5625" y2="147.5" style="visibility: inherit;" fill="rgb(0, 0, 0)" stroke="rgb(204, 204, 204)" stroke-width="1px"></line><line x1="51.5625" y1="132.75000000000003" x2="46.5625" y2="132.75000000000003" style="visibility: inherit;" fill="rgb(0, 0, 0)" stroke="rgb(204, 204, 204)" stroke-width="1px"></line><line x1="51.5625" y1="118.00000000000001" x2="46.5625" y2="118.00000000000001" style="visibility: inherit;" fill="rgb(0, 0, 0)" stroke="rgb(204, 204, 204)" stroke-width="1px"></line><line x1="51.5625" y1="103.25" x2="46.5625" y2="103.25" style="visibility: inherit;" fill="rgb(0, 0, 0)" stroke="rgb(204, 204, 204)" stroke-width="1px"></line><line x1="51.5625" y1="88.50000000000001" x2="46.5625" y2="88.50000000000001" style="visibility: inherit;" fill="rgb(0, 0, 0)" stroke="rgb(204, 204, 204)" stroke-width="1px"></line><line x1="51.5625" y1="73.75000000000001" x2="46.5625" y2="73.75000000000001" style="visibility: inherit;" fill="rgb(0, 0, 0)" stroke="rgb(204, 204, 204)" stroke-width="1px"></line><line x1="51.5625" y1="59.00000000000003" x2="46.5625" y2="59.00000000000003" style="visibility: inherit;" fill="rgb(0, 0, 0)" stroke="rgb(204, 204, 204)" stroke-width="1px"></line><line x1="51.5625" y1="44.25000000000002" x2="46.5625" y2="44.25000000000002" style="visibility: inherit;" fill="rgb(0, 0, 0)" stroke="rgb(204, 204, 204)" stroke-width="1px"></line><line x1="51.5625" y1="29.500000000000032" x2="46.5625" y2="29.500000000000032" style="visibility: inherit;" fill="rgb(0, 0, 0)" stroke="rgb(204, 204, 204)" stroke-width="1px"></line><line x1="51.5625" y1="14.750000000000007" x2="46.5625" y2="14.750000000000007" style="visibility: inherit;" fill="rgb(0, 0, 0)" stroke="rgb(204, 204, 204)" stroke-width="1px"></line><line x1="51.5625" y1="0" x2="46.5625" y2="0" style="visibility: inherit;" fill="rgb(0, 0, 0)" stroke="rgb(204, 204, 204)" stroke-width="1px"></line></g><g transform="translate(41.5625, 0)"><text x="0" y="177" dx="0em" dy="0.3em" style="text-anchor: end; visibility: hidden; font-family: Roboto, sans-serif; font-size: 12px; font-weight: 200;" fill="rgb(255, 255, 255)" stroke="none" stroke-width="1px">0.2</text><text x="0" y="162.25" dx="0em" dy="0.3em" style="text-anchor: end; visibility: inherit; font-family: Roboto, sans-serif; font-size: 12px; font-weight: 200;" fill="rgb(255, 255, 255)" stroke="none" stroke-width="1px">0.25</text><text x="0" y="147.5" dx="0em" dy="0.3em" style="text-anchor: end; visibility: hidden; font-family: Roboto, sans-serif; font-size: 12px; font-weight: 200;" fill="rgb(255, 255, 255)" stroke="none" stroke-width="1px">0.3</text><text x="0" y="132.75000000000003" dx="0em" dy="0.3em" style="text-anchor: end; visibility: inherit; font-family: Roboto, sans-serif; font-size: 12px; font-weight: 200;" fill="rgb(255, 255, 255)" stroke="none" stroke-width="1px">0.35</text><text x="0" y="118.00000000000001" dx="0em" dy="0.3em" style="text-anchor: end; visibility: hidden; font-family: Roboto, sans-serif; font-size: 12px; font-weight: 200;" fill="rgb(255, 255, 255)" stroke="none" stroke-width="1px">0.4</text><text x="0" y="103.25" dx="0em" dy="0.3em" style="text-anchor: end; visibility: inherit; font-family: Roboto, sans-serif; font-size: 12px; font-weight: 200;" fill="rgb(255, 255, 255)" stroke="none" stroke-width="1px">0.45</text><text x="0" y="88.50000000000001" dx="0em" dy="0.3em" style="text-anchor: end; visibility: hidden; font-family: Roboto, sans-serif; font-size: 12px; font-weight: 200;" fill="rgb(255, 255, 255)" stroke="none" stroke-width="1px">0.5</text><text x="0" y="73.75000000000001" dx="0em" dy="0.3em" style="text-anchor: end; visibility: inherit; font-family: Roboto, sans-serif; font-size: 12px; font-weight: 200;" fill="rgb(255, 255, 255)" stroke="none" stroke-width="1px">0.55</text><text x="0" y="59.00000000000003" dx="0em" dy="0.3em" style="text-anchor: end; visibility: hidden; font-family: Roboto, sans-serif; font-size: 12px; font-weight: 200;" fill="rgb(255, 255, 255)" stroke="none" stroke-width="1px">0.6</text><text x="0" y="44.25000000000002" dx="0em" dy="0.3em" style="text-anchor: end; visibility: inherit; font-family: Roboto, sans-serif; font-size: 12px; font-weight: 200;" fill="rgb(255, 255, 255)" stroke="none" stroke-width="1px">0.65</text><text x="0" y="29.500000000000032" dx="0em" dy="0.3em" style="text-anchor: end; visibility: hidden; font-family: Roboto, sans-serif; font-size: 12px; font-weight: 200;" fill="rgb(255, 255, 255)" stroke="none" stroke-width="1px">0.7</text><text x="0" y="14.750000000000007" dx="0em" dy="0.3em" style="text-anchor: end; visibility: inherit; font-family: Roboto, sans-serif; font-size: 12px; font-weight: 200;" fill="rgb(255, 255, 255)" stroke="none" stroke-width="1px">0.75</text><text x="0" y="0" dx="0em" dy="0.3em" style="text-anchor: end; visibility: hidden; font-family: Roboto, sans-serif; font-size: 12px; font-weight: 200;" fill="rgb(255, 255, 255)" stroke="none" stroke-width="1px">0.8</text></g><line x1="51.5625" y1="0" x2="51.5625" y2="177" fill="rgb(0, 0, 0)" stroke="rgb(204, 204, 204)" stroke-width="1px"></line></g></g><g transform="translate(51, 0)" clip-path="url(#clip_0)"><clipPath id="clip_0"><rect width="278" height="177"></rect></clipPath><g><g><g><line x1="0" y1="0" x2="0" y2="177" fill="rgb(0, 0, 0)" stroke="rgb(189, 189, 189)" stroke-width="1px" opacity="0.25"></line><line x1="19.888392857142858" y1="0" x2="19.888392857142858" y2="177" fill="rgb(0, 0, 0)" stroke="rgb(189, 189, 189)" stroke-width="1px" opacity="0.25"></line><line x1="39.776785714285715" y1="0" x2="39.776785714285715" y2="177" fill="rgb(0, 0, 0)" stroke="rgb(189, 189, 189)" stroke-width="1px" opacity="0.25"></line><line x1="59.66517857142857" y1="0" x2="59.66517857142857" y2="177" fill="rgb(0, 0, 0)" stroke="rgb(189, 189, 189)" stroke-width="1px" opacity="0.25"></line><line x1="79.55357142857143" y1="0" x2="79.55357142857143" y2="177" fill="rgb(0, 0, 0)" stroke="rgb(189, 189, 189)" stroke-width="1px" opacity="0.25"></line><line x1="99.44196428571429" y1="0" x2="99.44196428571429" y2="177" fill="rgb(0, 0, 0)" stroke="rgb(189, 189, 189)" stroke-width="1px" opacity="0.25"></line><line x1="119.33035714285714" y1="0" x2="119.33035714285714" y2="177" fill="rgb(0, 0, 0)" stroke="rgb(189, 189, 189)" stroke-width="1px" opacity="0.25"></line><line x1="139.21875" y1="0" x2="139.21875" y2="177" fill="rgb(0, 0, 0)" stroke="rgb(189, 189, 189)" stroke-width="1px" opacity="0.25"></line><line x1="159.10714285714286" y1="0" x2="159.10714285714286" y2="177" fill="rgb(0, 0, 0)" stroke="rgb(189, 189, 189)" stroke-width="1px" opacity="0.25"></line><line x1="178.99553571428572" y1="0" x2="178.99553571428572" y2="177" fill="rgb(0, 0, 0)" stroke="rgb(189, 189, 189)" stroke-width="1px" opacity="0.25"></line><line x1="198.88392857142858" y1="0" x2="198.88392857142858" y2="177" fill="rgb(0, 0, 0)" stroke="rgb(189, 189, 189)" stroke-width="1px" opacity="0.25"></line><line x1="218.77232142857142" y1="0" x2="218.77232142857142" y2="177" fill="rgb(0, 0, 0)" stroke="rgb(189, 189, 189)" stroke-width="1px" opacity="0.25"></line><line x1="238.66071428571428" y1="0" x2="238.66071428571428" y2="177" fill="rgb(0, 0, 0)" stroke="rgb(189, 189, 189)" stroke-width="1px" opacity="0.25"></line><line x1="258.54910714285717" y1="0" x2="258.54910714285717" y2="177" fill="rgb(0, 0, 0)" stroke="rgb(189, 189, 189)" stroke-width="1px" opacity="0.25"></line><line x1="278.4375" y1="0" x2="278.4375" y2="177" fill="rgb(0, 0, 0)" stroke="rgb(189, 189, 189)" stroke-width="1px" opacity="0.25"></line></g><g><line x1="0" y1="177" x2="278.4375" y2="177" fill="rgb(0, 0, 0)" stroke="rgb(189, 189, 189)" stroke-width="1px" opacity="0.25"></line><line x1="0" y1="162.25" x2="278.4375" y2="162.25" fill="rgb(0, 0, 0)" stroke="rgb(189, 189, 189)" stroke-width="1px" opacity="0.25"></line><line x1="0" y1="147.5" x2="278.4375" y2="147.5" fill="rgb(0, 0, 0)" stroke="rgb(189, 189, 189)" stroke-width="1px" opacity="0.25"></line><line x1="0" y1="132.75000000000003" x2="278.4375" y2="132.75000000000003" fill="rgb(0, 0, 0)" stroke="rgb(189, 189, 189)" stroke-width="1px" opacity="0.25"></line><line x1="0" y1="118.00000000000001" x2="278.4375" y2="118.00000000000001" fill="rgb(0, 0, 0)" stroke="rgb(189, 189, 189)" stroke-width="1px" opacity="0.25"></line><line x1="0" y1="103.25" x2="278.4375" y2="103.25" fill="rgb(0, 0, 0)" stroke="rgb(189, 189, 189)" stroke-width="1px" opacity="0.25"></line><line x1="0" y1="88.50000000000001" x2="278.4375" y2="88.50000000000001" fill="rgb(0, 0, 0)" stroke="rgb(189, 189, 189)" stroke-width="1px" opacity="0.25"></line><line x1="0" y1="73.75000000000001" x2="278.4375" y2="73.75000000000001" fill="rgb(0, 0, 0)" stroke="rgb(189, 189, 189)" stroke-width="1px" opacity="0.25"></line><line x1="0" y1="59.00000000000003" x2="278.4375" y2="59.00000000000003" fill="rgb(0, 0, 0)" stroke="rgb(189, 189, 189)" stroke-width="1px" opacity="0.25"></line><line x1="0" y1="44.25000000000002" x2="278.4375" y2="44.25000000000002" fill="rgb(0, 0, 0)" stroke="rgb(189, 189, 189)" stroke-width="1px" opacity="0.25"></line><line x1="0" y1="29.500000000000032" x2="278.4375" y2="29.500000000000032" fill="rgb(0, 0, 0)" stroke="rgb(189, 189, 189)" stroke-width="1px" opacity="0.25"></line><line x1="0" y1="14.750000000000007" x2="278.4375" y2="14.750000000000007" fill="rgb(0, 0, 0)" stroke="rgb(189, 189, 189)" stroke-width="1px" opacity="0.25"></line><line x1="0" y1="0" x2="278.4375" y2="0" fill="rgb(0, 0, 0)" stroke="rgb(189, 189, 189)" stroke-width="1px" opacity="0.25"></line></g></g></g><g><g><line x1="0" y1="236" x2="278.4375" y2="236" fill="rgb(0, 0, 0)" stroke="rgb(153, 153, 153)" stroke-width="1.5px"></line></g></g><g><g><line x1="19.888392857142858" y1="0" x2="19.888392857142858" y2="177" fill="rgb(0, 0, 0)" stroke="rgb(153, 153, 153)" stroke-width="1.5px"></line></g></g><g><g><g><g><g><path stroke="rgb(255, 112, 67)" stroke-width="2px" d="M19.888392857142858,31.14355629682544L20.8828125,-202.14944561570886L25.854910714285715,-19.732704395506083L26.849330357142858,7.620364186595112L27.84375,15.828634794358274L28.838169642857146,28.48105366061063L29.832589285714285,35.72546884430204L30.827008928571427,35.91338584992946L31.82142857142857,64.84111695836404L32.815848214285715,25.80287366271018L33.810267857142854,14.84161237220382L34.8046875,33.01924382071278L35.79910714285714,57.109585054415426L36.793526785714285,57.67115734435669L37.78794642857142,-22.972320323495115L39.776785714285715,-10.76127276576707L40.77120535714286,14.938216263237171L41.765625,27.46783644262913L42.760044642857146,35.310002139678296L43.754464285714285,36.25683577518944L44.74888392857143,33.50086275895294L45.74330357142857,34.795073690372384L46.73772321428571,34.903135522420136L47.732142857142854,32.32289819073446L48.7265625,32.20168940816003L49.720982142857146,34.73384936418795L50.715401785714285,34.82653585078867L51.70982142857143,37.51307018116468L52.70424107142857,33.62024219514747L53.698660714285715,33.8996498375396L54.693080357142854,34.44446474811666L55.6875,33.936727368677005L56.681919642857146,33.540503717288956L57.67633928571429,31.913584810939128L58.67075892857143,35.22821890704656L59.66517857142857,44.67135663428013L60.659598214285715,48.050789236253216L61.654017857142854,52.265531683723594L62.6484375,30.97910183583108L63.64285714285714,16.74543989697809L64.63727678571429,40.771416766948185L65.63169642857143,51.543658247103075L66.62611607142857,62.47606987412072L67.62053571428571,40.713342419899185L68.61495535714286,52.74168922412382L69.609375,44.390465723879274L70.60379464285714,43.46436962330496L71.59821428571428,53.71125238446687L72.59263392857143,49.4508708793375L73.58705357142857,52.08082888594158L74.58147321428571,46.800058472577035L75.57589285714285,53.1612202098523L76.5703125,62.449805794392574L77.56473214285714,42.094470201868916L78.55915178571429,17.706283079944303L79.55357142857143,40.710581771947986L80.54799107142858,68.56675050998861L81.54241071428572,75.52828911748618L82.53683035714286,84.81236897592012L83.53125,87.66352758815447L84.52566964285714,96.01492714888192L85.52008928571429,60.21597788337668L86.51450892857143,70.42217904093148L87.50892857142857,90.45281933404377L88.50334821428571,78.96456557904104L89.49776785714286,-51.82180486682405L90.4921875,-13.9892618570527L91.48660714285714,39.919715683829764L92.48102678571428,39.909756303532156L93.47544642857142,56.84231946510268L94.46986607142857,78.56099965359087L95.46428571428571,91.59169081559965L96.45870535714286,60.6569765073728L97.453125,44.89494922534653L98.44754464285715,58.4963957475187L99.44196428571429,61.3647958282567L100.43638392857143,66.44883829617123L101.43080357142857,67.91664792456403L102.42522321428572,69.75377057408201L103.41964285714286,74.93838929185215L104.4140625,73.3036480370101L105.40848214285714,65.22886290686948L106.40290178571428,77.29301517330184L107.39732142857143,80.8203498668824L108.39174107142857,66.14589813633887L109.38616071428571,90.7272855477579L110.38058035714285,60.67183389884518L111.375,45.46229039801529L112.36941964285714,70.32172333701473L113.36383928571429,38.83066317739502L114.35825892857143,38.08852878393187L115.35267857142858,63.106679565795964L116.34709821428572,76.08119069760366L117.34151785714286,83.95095517173601L118.3359375,71.64457174500942L119.33035714285714,57.08143756604863L120.32477678571429,62.6155496228735L121.31919642857143,68.54274445706609L122.31361607142857,69.66107784470323L123.30803571428571,74.43780888772251L124.30245535714286,75.09211977515363L125.296875,63.24611094113436L126.29129464285714,93.65611803839356L127.28571428571428,96.14037517493814L128.28013392857142,93.7370780574432L129.27455357142858,73.69669436616608L130.26897321428572,88.31817324878519L131.26339285714286,70.22197234583942L132.2578125,76.85112447710664L133.25223214285714,104.86057093841929L134.24665178571428,99.81761774482192L135.24107142857142,113.91897329724947L136.23549107142856,126.98293711565206L137.22991071428572,129.84551703823968L138.22433035714286,109.91594934399942L139.21875,125.56807028017056L140.21316964285714,83.29349667287835L141.20758928571428,47.21635850940328L142.20200892857142,53.172682265485435L143.19642857142856,70.21944909098454L144.19084821428572,22.35089703084649L145.18526785714286,39.12884621430414L146.1796875,47.34206827049835L147.17410714285714,65.41853979566923L148.16852678571428,60.95520472132703L149.16294642857142,50.39196944000449L150.15736607142856,53.42184305049255L151.1517857142857,60.15777256403731L152.14620535714283,49.68103689142687L153.140625,39.15722040050403L154.13504464285714,63.893825958449696L155.12946428571428,52.40880691425743L156.12388392857142,54.56267408976998L157.11830357142858,38.11385212212828L158.11272321428572,47.02248002213258L159.10714285714286,55.8444868869902L160.1015625,73.21753667279013L161.09598214285717,87.29416048815207L162.0904017857143,102.34902030402634L163.08482142857144,104.44826823576817L164.07924107142858,103.81548765960058L165.07366071428572,120.55129604138564L166.06808035714286,107.77403623221893L167.0625,83.00208898996462L168.05691964285714,118.38544772037953L169.05133928571428,100.86851626616176L170.04575892857144,129.48735731233035L171.04017857142858,141.65202058189436L172.03459821428572,139.70330566664532L173.02901785714286,139.80818882286547L174.0234375,154.5169899982214L175.01785714285714,97.20586648714544L176.01227678571428,93.52648064572811L177.00669642857142,39.18583040880682L178.00111607142856,59.69543522267057L178.99553571428572,109.5436276773722L179.98995535714286,143.8287591445512L180.984375,147.19448214221399L181.97879464285714,149.03687250285387L182.97321428571428,163.92920750778342L183.96763392857142,135.13762564898389L184.96205357142856,116.74508807325876L185.9564732142857,89.49615789213489L186.95089285714283,86.02156851743884L187.9453125,93.6272985819294L188.93973214285714,90.05036064882957L189.93415178571428,97.75895597279003L190.92857142857142,95.11305901849231L191.92299107142858,81.35657320883249L192.91741071428572,88.77949061671718L193.91183035714286,93.41095618414774L194.90625,119.33402392868932L195.90066964285717,107.10712783101044L196.8950892857143,63.04972157813813L197.88950892857144,74.43220138512675L198.88392857142858,102.38616033770218L199.87834821428572,130.7945683203791L200.87276785714286,112.6605414749774L201.8671875,123.64966009864766L202.86160714285714,89.7017735171888L203.85602678571428,-45.17019579836286L204.85044642857144,39.74875920397905L205.84486607142858,97.68434531916895L206.83928571428572,99.29509217399192L207.83370535714286,96.28093605552812L208.828125,90.58991115876854L209.82254464285714,88.27010015004169L210.81696428571428,48.23818077655608L211.81138392857142,66.13511105782973L212.80580357142856,91.14670714382642L213.80022321428572,102.91086229469963L214.79464285714286,131.42590774170512L215.7890625,125.02635059995623L216.78348214285714,112.64369721557601L217.77790178571428,112.69235121813954L218.77232142857142,98.68191880945889L219.76674107142856,104.99135772564725L220.7611607142857,83.00935163604453L221.75558035714283,111.86329787079832L222.75,147.3880624270698L223.74441964285714,166.13318809248568L224.73883928571428,93.32950849758127L225.73325892857142,130.17799865261637L226.72767857142858,122.92840150031998L227.72209821428572,129.12991727014514L228.71651785714286,150.9810450292834L229.7109375,137.89917999608568L230.70535714285717,142.06418703856022L231.6997767857143,119.18760988033979L232.69419642857144,111.88401768754227L233.68861607142858,144.09186759084642L234.68303571428572,126.99634678655971L235.67745535714286,150.58022598322697L236.671875,163.07380440173426L237.66629464285714,166.62674704991508L238.66071428571428,125.9857478368445L239.65513392857144,132.05686777997994L240.64955357142858,131.52465334039323L241.64397321428572,159.05084383190507L242.63839285714286,153.43151274741194L243.6328125,140.1618481720716L244.62723214285714,162.2670498159665L245.62165178571428,153.76127273244487L246.61607142857142,153.35824223996894L247.61049107142856,163.68941874290525L248.60491071428572,173.401340037495L249.59933035714286,161.67714192265876L250.59375,159.24140583154326L251.58816964285714,160.2068631331728L252.58258928571428,147.33760934356488L253.57700892857142,147.58141520788453L254.57142857142856,163.2761578093182L255.5658482142857,180.31415209056206L256.56026785714283,159.22190790701669L257.5546875,128.78241020040969" style="fill: none;" fill="none"></path></g></g></g></g><g opacity="0.2"><g><g><g><path stroke="rgb(255, 112, 67)" stroke-width="2px" d="M19.888392857142858,31.14355629682544L20.8828125,-342.1252467632293L23.866071428571427,-24.10567873716352L24.860491071428573,34.56028646230701L25.854910714285715,34.42980027198794L26.849330357142858,47.50140076875689L27.84375,27.934239566326156L28.838169642857146,47.26842111349107L29.832589285714285,46.526385307312026L30.827008928571427,36.1942387223244L31.82142857142857,108.13825955986977L32.815848214285715,-32.67801129817961L33.810267857142854,-1.5873950123786664L34.8046875,60.27287071943286L35.79910714285714,93.23490267992021L36.793526785714285,58.513373196125045L37.78794642857142,-143.92525160312647L38.78236607142857,1.8252558112144601L39.776785714285715,-7.323916792869541L40.77120535714286,53.48660415410997L41.765625,46.26201933622363L42.760044642857146,47.07315778732303L43.754464285714285,37.67707949876789L44.74888392857143,29.366914987564087L45.74330357142857,36.736386775970495L46.73772321428571,35.0652281045914L47.732142857142854,28.452544569969177L48.7265625,32.019876301288626L49.720982142857146,38.53208845853808L50.715401785714285,34.965565562248266L51.70982142857143,41.54287135601047L52.70424107142857,27.781000494956984L53.698660714285715,34.31876128911975L54.693080357142854,35.261687099933646L55.6875,33.17512130737308L56.681919642857146,32.94616824388506L57.67633928571429,29.47320646047592L58.67075892857143,40.20017004013065L59.66517857142857,58.83606320619586L60.659598214285715,53.11993813514711L61.654017857142854,58.58764535188676L62.6484375,-0.9505429267883039L63.64285714285714,-4.605053007602692L64.63727678571429,76.81038206815721L65.63169642857143,67.70202046632768L66.62611607142857,78.87468731403352L67.62053571428571,8.069251239299781L68.61495535714286,70.78420943021776L69.609375,31.86363047361376L70.60379464285714,42.07522547245029L71.59821428571428,69.08157652616502L72.59263392857143,43.06029862165454L73.58705357142857,56.02576589584353L74.58147321428571,38.878902852535276L75.57589285714285,62.702962815761595L76.5703125,76.38268417119981L77.56473214285714,11.56146681308747L78.55915178571429,-18.87599760293959L79.55357142857143,75.21702980995181L80.54799107142858,110.35100361704829L81.54241071428572,85.97059702873231L82.53683035714286,98.73848876357081L83.53125,91.940265506506L84.52566964285714,108.54202648997308L85.52008928571429,6.517553985118872L86.51450892857143,85.73148077726366L87.50892857142857,120.49877977371219L88.50334821428571,61.73218494653703L89.49776785714286,-248.00136053562161L90.4921875,42.75955265760425L91.48660714285714,120.78318199515346L92.48102678571428,39.89481723308566L93.47544642857142,82.24116420745851L94.46986607142857,111.13901993632318L95.46428571428571,111.13772755861284L96.45870535714286,14.25490504503252L97.453125,21.251908302307143L98.44754464285715,78.898565530777L99.44196428571429,65.66739594936372L100.43638392857143,74.07490199804307L101.43080357142857,70.1183623671532L102.42522321428572,72.50945454835893L103.41964285714286,82.7153173685074L104.4140625,70.85153615474704L105.40848214285714,53.116685211658506L106.40290178571428,95.38924357295038L107.39732142857143,86.1113519072533L108.39174107142857,44.134220540523565L109.38616071428571,127.59936666488647L110.38058035714285,15.588656425476087L111.375,22.647975146770477L112.36941964285714,107.61087274551394L113.36383928571429,-8.40592706203458L114.35825892857143,36.97532719373705L115.35267857142858,100.63390573859218L116.34709821428572,95.54295739531518L117.34151785714286,95.7556018829346L118.3359375,53.18499660491946L119.33035714285714,35.23673629760744L120.32477678571429,70.91671770811082L121.31919642857143,77.43353670835498L122.31361607142857,71.33857792615893L123.30803571428571,81.60290545225146L124.30245535714286,76.07358610630038L125.296875,45.47709769010547L126.29129464285714,139.2711286842823L127.28571428571428,99.86676087975505L128.28013392857142,90.1321323812008L129.27455357142858,43.636118829250364L130.26897321428572,110.25039157271387L131.26339285714286,43.07767099142077L132.2578125,86.79485267400743L133.25223214285714,146.87474063038826L134.24665178571428,92.25318795442583L135.24107142857142,135.07100662589073L136.23549107142856,146.578882843256L137.22991071428572,134.13938692212105L138.22433035714286,80.02159780263902L139.21875,149.04625168442726L140.21316964285714,19.88163626194001L141.20758928571428,-6.899348735809313L142.20200892857142,62.10716789960863L143.19642857142856,95.7895993292332L144.19084821428572,-49.45193105936046L145.18526785714286,64.29576998949052L146.1796875,59.66190135478975L147.17410714285714,92.53324708342554L148.16852678571428,54.26020210981372L149.16294642857142,34.54711651802066L150.15736607142856,57.96665346622469L151.1517857142857,70.26166683435441L152.14620535714283,33.96593338251116L153.140625,23.37149566411972L154.13504464285714,100.99873429536821L155.12946428571428,35.181278347969084L156.12388392857142,57.79347485303881L157.11830357142858,13.440619170665753L158.11272321428572,60.38542187213899L159.10714285714286,69.07749718427661L160.1015625,99.27711135149003L161.09598214285717,108.409096211195L162.0904017857143,124.93131002783775L163.08482142857144,107.5971401333809L164.07924107142858,102.86631679534915L165.07366071428572,145.65500861406326L166.06808035714286,88.60814651846889L167.0625,45.844168126583114L168.05691964285714,171.4604858160019L169.05133928571428,74.59311908483507L170.04575892857144,172.4156188815832L171.04017857142858,159.8990154862404L172.03459821428572,136.78023329377174L173.02901785714286,139.96551355719566L174.0234375,176.58019176125526L175.01785714285714,11.239181220531483L176.01227678571428,88.00740188360217L177.00669642857142,-42.325144946575136L178.00111607142856,90.4598424434662L178.99553571428572,184.3159163594246L179.98995535714286,195.25645634531975L180.984375,152.24306663870811L181.97879464285714,151.8004580438137L182.97321428571428,186.26771001517773L183.96763392857142,91.95025286078454L184.96205357142856,89.15628170967103L185.9564732142857,48.62276262044909L186.95089285714283,80.80968445539476L187.9453125,105.03589367866516L188.93973214285714,84.68495374917985L189.93415178571428,109.32184895873073L190.92857142857142,91.1442135870457L191.92299107142858,60.721844494342825L192.91741071428572,99.91386672854426L193.91183035714286,100.35815453529361L194.90625,158.2186255455017L195.90066964285717,88.76678368449213L196.8950892857143,-3.036387801170323L197.88950892857144,91.5059210956097L198.88392857142858,144.31709876656532L199.87834821428572,173.4071802943945L200.87276785714286,85.45950120687486L201.8671875,140.13333803415298L202.86160714285714,38.779943645000486L203.85602678571428,-247.4781497716903L204.85044642857144,167.12719170749187L205.84486607142858,184.58772449195385L206.83928571428572,101.71121245622635L207.83370535714286,91.75970187783244L208.828125,82.05337381362916L209.82254464285714,84.79038363695147L210.81696428571428,-11.80969828367232L211.81138392857142,92.98050647974016L212.80580357142856,128.66410127282143L213.80022321428572,120.55709502100947L214.79464285714286,174.19847591221333L215.7890625,115.42701488733294L216.78348214285714,94.06971713900568L217.77790178571428,112.76533222198488L218.77232142857142,77.66627019643786L219.76674107142856,114.45551609992984L220.7611607142857,50.03634250164035L221.75558035714283,155.144217222929L222.75,200.675209261477L225.73325892857142,185.45073388516903L226.72767857142858,112.05400577187538L227.72209821428572,138.4321909248829L228.71651785714286,183.75773666799068L229.7109375,118.27638244628906L230.70535714285717,148.31169760227203L231.6997767857143,84.8727441430092L232.69419642857144,100.92862939834596L233.68861607142858,192.4036424458027L234.68303571428572,101.35306558012962L235.67745535714286,185.9560447782278L236.671875,181.81417202949524L237.66629464285714,171.95616102218628L238.66071428571428,65.02424901723863L239.65513392857144,141.16354769468307L240.64955357142858,130.7263316810131L241.64397321428572,200.34012956917286L242.63839285714286,145.00251612067223L243.6328125,120.25735130906106L244.62723214285714,195.42485228180885L245.62165178571428,141.00260710716248L246.61607142857142,152.75369650125504L247.61049107142856,179.18618349730968L248.60491071428572,187.96922197937965L249.59933035714286,144.09084475040436L250.59375,155.58780169487L251.58816964285714,161.65504908561707L252.58258928571428,128.03372865915298L253.57700892857142,147.947124004364L254.57142857142856,186.8182717114687L255.5658482142857,205.8711435124278L256.56026785714283,127.58354163169861L257.5546875,83.12316364049914" style="fill: none;" fill="none"></path></g></g></g></g></g></g><g transform="translate(51, 177)" clip-path="url(#clip_1)"><clipPath id="clip_1"><rect width="278" height="23"></rect></clipPath><g><g><line x1="0" y1="0" x2="0" y2="5" style="visibility: inherit;" fill="rgb(0, 0, 0)" stroke="rgb(204, 204, 204)" stroke-width="1px"></line><line x1="19.888392857142858" y1="0" x2="19.888392857142858" y2="5" style="visibility: inherit;" fill="rgb(0, 0, 0)" stroke="rgb(204, 204, 204)" stroke-width="1px"></line><line x1="39.776785714285715" y1="0" x2="39.776785714285715" y2="5" style="visibility: inherit;" fill="rgb(0, 0, 0)" stroke="rgb(204, 204, 204)" stroke-width="1px"></line><line x1="59.66517857142857" y1="0" x2="59.66517857142857" y2="5" style="visibility: inherit;" fill="rgb(0, 0, 0)" stroke="rgb(204, 204, 204)" stroke-width="1px"></line><line x1="79.55357142857143" y1="0" x2="79.55357142857143" y2="5" style="visibility: inherit;" fill="rgb(0, 0, 0)" stroke="rgb(204, 204, 204)" stroke-width="1px"></line><line x1="99.44196428571429" y1="0" x2="99.44196428571429" y2="5" style="visibility: inherit;" fill="rgb(0, 0, 0)" stroke="rgb(204, 204, 204)" stroke-width="1px"></line><line x1="119.33035714285714" y1="0" x2="119.33035714285714" y2="5" style="visibility: inherit;" fill="rgb(0, 0, 0)" stroke="rgb(204, 204, 204)" stroke-width="1px"></line><line x1="139.21875" y1="0" x2="139.21875" y2="5" style="visibility: inherit;" fill="rgb(0, 0, 0)" stroke="rgb(204, 204, 204)" stroke-width="1px"></line><line x1="159.10714285714286" y1="0" x2="159.10714285714286" y2="5" style="visibility: inherit;" fill="rgb(0, 0, 0)" stroke="rgb(204, 204, 204)" stroke-width="1px"></line><line x1="178.99553571428572" y1="0" x2="178.99553571428572" y2="5" style="visibility: inherit;" fill="rgb(0, 0, 0)" stroke="rgb(204, 204, 204)" stroke-width="1px"></line><line x1="198.88392857142858" y1="0" x2="198.88392857142858" y2="5" style="visibility: inherit;" fill="rgb(0, 0, 0)" stroke="rgb(204, 204, 204)" stroke-width="1px"></line><line x1="218.77232142857142" y1="0" x2="218.77232142857142" y2="5" style="visibility: inherit;" fill="rgb(0, 0, 0)" stroke="rgb(204, 204, 204)" stroke-width="1px"></line><line x1="238.66071428571428" y1="0" x2="238.66071428571428" y2="5" style="visibility: inherit;" fill="rgb(0, 0, 0)" stroke="rgb(204, 204, 204)" stroke-width="1px"></line><line x1="258.54910714285717" y1="0" x2="258.54910714285717" y2="5" style="visibility: inherit;" fill="rgb(0, 0, 0)" stroke="rgb(204, 204, 204)" stroke-width="1px"></line><line x1="278.4375" y1="0" x2="278.4375" y2="5" style="visibility: inherit;" fill="rgb(0, 0, 0)" stroke="rgb(204, 204, 204)" stroke-width="1px"></line></g><g transform="translate(0, 8)"><text x="0" y="0" dx="0em" dy="0.95em" style="text-anchor: middle; visibility: hidden; font-family: Roboto, sans-serif; font-size: 12px; font-weight: 200;" fill="rgb(255, 255, 255)" stroke="none" stroke-width="1px">-20</text><text x="19.888392857142858" y="0" dx="0em" dy="0.95em" style="text-anchor: middle; visibility: inherit; font-family: Roboto, sans-serif; font-size: 12px; font-weight: 200;" fill="rgb(255, 255, 255)" stroke="none" stroke-width="1px">0</text><text x="39.776785714285715" y="0" dx="0em" dy="0.95em" style="text-anchor: middle; visibility: hidden; font-family: Roboto, sans-serif; font-size: 12px; font-weight: 200;" fill="rgb(255, 255, 255)" stroke="none" stroke-width="1px">20</text><text x="59.66517857142857" y="0" dx="0em" dy="0.95em" style="text-anchor: middle; visibility: inherit; font-family: Roboto, sans-serif; font-size: 12px; font-weight: 200;" fill="rgb(255, 255, 255)" stroke="none" stroke-width="1px">40</text><text x="79.55357142857143" y="0" dx="0em" dy="0.95em" style="text-anchor: middle; visibility: hidden; font-family: Roboto, sans-serif; font-size: 12px; font-weight: 200;" fill="rgb(255, 255, 255)" stroke="none" stroke-width="1px">60</text><text x="99.44196428571429" y="0" dx="0em" dy="0.95em" style="text-anchor: middle; visibility: inherit; font-family: Roboto, sans-serif; font-size: 12px; font-weight: 200;" fill="rgb(255, 255, 255)" stroke="none" stroke-width="1px">80</text><text x="119.33035714285714" y="0" dx="0em" dy="0.95em" style="text-anchor: middle; visibility: hidden; font-family: Roboto, sans-serif; font-size: 12px; font-weight: 200;" fill="rgb(255, 255, 255)" stroke="none" stroke-width="1px">100</text><text x="139.21875" y="0" dx="0em" dy="0.95em" style="text-anchor: middle; visibility: inherit; font-family: Roboto, sans-serif; font-size: 12px; font-weight: 200;" fill="rgb(255, 255, 255)" stroke="none" stroke-width="1px">120</text><text x="159.10714285714286" y="0" dx="0em" dy="0.95em" style="text-anchor: middle; visibility: hidden; font-family: Roboto, sans-serif; font-size: 12px; font-weight: 200;" fill="rgb(255, 255, 255)" stroke="none" stroke-width="1px">140</text><text x="178.99553571428572" y="0" dx="0em" dy="0.95em" style="text-anchor: middle; visibility: inherit; font-family: Roboto, sans-serif; font-size: 12px; font-weight: 200;" fill="rgb(255, 255, 255)" stroke="none" stroke-width="1px">160</text><text x="198.88392857142858" y="0" dx="0em" dy="0.95em" style="text-anchor: middle; visibility: hidden; font-family: Roboto, sans-serif; font-size: 12px; font-weight: 200;" fill="rgb(255, 255, 255)" stroke="none" stroke-width="1px">180</text><text x="218.77232142857142" y="0" dx="0em" dy="0.95em" style="text-anchor: middle; visibility: inherit; font-family: Roboto, sans-serif; font-size: 12px; font-weight: 200;" fill="rgb(255, 255, 255)" stroke="none" stroke-width="1px">200</text><text x="238.66071428571428" y="0" dx="0em" dy="0.95em" style="text-anchor: middle; visibility: hidden; font-family: Roboto, sans-serif; font-size: 12px; font-weight: 200;" fill="rgb(255, 255, 255)" stroke="none" stroke-width="1px">220</text><text x="258.54910714285717" y="0" dx="0em" dy="0.95em" style="text-anchor: middle; visibility: inherit; font-family: Roboto, sans-serif; font-size: 12px; font-weight: 200;" fill="rgb(255, 255, 255)" stroke="none" stroke-width="1px">240</text><text x="278.4375" y="0" dx="0em" dy="0.95em" style="text-anchor: middle; visibility: hidden; font-family: Roboto, sans-serif; font-size: 12px; font-weight: 200;" fill="rgb(255, 255, 255)" stroke="none" stroke-width="1px">260</text></g><line x1="0" y1="0" x2="278.4375" y2="0" fill="rgb(0, 0, 0)" stroke="rgb(204, 204, 204)" stroke-width="1px"></line></g></g></g></g></svg>