<svg viewBox="0 0 330 200" xmlns="http://www.w3.org/2000/svg"><g><g><g><g><g><line x1="30.78125" y1="177" x2="25.78125" y2="177" style="visibility: inherit;" fill="rgb(0, 0, 0)" stroke="rgb(204, 204, 204)" stroke-width="1px"></line><line x1="30.78125" y1="164.35714285714286" x2="25.78125" y2="164.35714285714286" style="visibility: inherit;" fill="rgb(0, 0, 0)" stroke="rgb(204, 204, 204)" stroke-width="1px"></line><line x1="30.78125" y1="151.71428571428572" x2="25.78125" y2="151.71428571428572" style="visibility: inherit;" fill="rgb(0, 0, 0)" stroke="rgb(204, 204, 204)" stroke-width="1px"></line><line x1="30.78125" y1="139.07142857142856" x2="25.78125" y2="139.07142857142856" style="visibility: inherit;" fill="rgb(0, 0, 0)" stroke="rgb(204, 204, 204)" stroke-width="1px"></line><line x1="30.78125" y1="126.42857142857143" x2="25.78125" y2="126.42857142857143" style="visibility: inherit;" fill="rgb(0, 0, 0)" stroke="rgb(204, 204, 204)" stroke-width="1px"></line><line x1="30.78125" y1="113.78571428571428" x2="25.78125" y2="113.78571428571428" style="visibility: inherit;" fill="rgb(0, 0, 0)" stroke="rgb(204, 204, 204)" stroke-width="1px"></line><line x1="30.78125" y1="101.14285714285714" x2="25.78125" y2="101.14285714285714" style="visibility: inherit;" fill="rgb(0, 0, 0)" stroke="rgb(204, 204, 204)" stroke-width="1px"></line><line x1="30.78125" y1="88.5" x2="25.78125" y2="88.5" style="visibility: inherit;" fill="rgb(0, 0, 0)" stroke="rgb(204, 204, 204)" stroke-width="1px"></line><line x1="30.78125" y1="75.85714285714286" x2="25.78125" y2="75.85714285714286" style="visibility: inherit;" fill="rgb(0, 0, 0)" stroke="rgb(204, 204, 204)" stroke-width="1px"></line><line x1="30.78125" y1="63.21428571428571" x2="25.78125" y2="63.21428571428571" style="visibility: inherit;" fill="rgb(0, 0, 0)" stroke="rgb(204, 204, 204)" stroke-width="1px"></line><line x1="30.78125" y1="50.57142857142857" x2="25.78125" y2="50.57142857142857" style="visibility: inherit;" fill="rgb(0, 0, 0)" stroke="rgb(204, 204, 204)" stroke-width="1px"></line><line x1="30.78125" y1="37.92857142857143" x2="25.78125" y2="37.92857142857143" style="visibility: inherit;" fill="rgb(0, 0, 0)" stroke="rgb(204, 204, 204)" stroke-width="1px"></line><line x1="30.78125" y1="25.285714285714295" x2="25.78125" y2="25.285714285714295" style="visibility: inherit;" fill="rgb(0, 0, 0)" stroke="rgb(204, 204, 204)" stroke-width="1px"></line><line x1="30.78125" y1="12.642857142857137" x2="25.78125" y2="12.642857142857137" style="visibility: inherit;" fill="rgb(0, 0, 0)" stroke="rgb(204, 204, 204)" stroke-width="1px"></line><line x1="30.78125" y1="0" x2="25.78125" y2="0" style="visibility: inherit;" fill="rgb(0, 0, 0)" stroke="rgb(204, 204, 204)" stroke-width="1px"></line></g><g transform="translate(20.78125, 0)"><text x="0" y="177" dx="0em" dy="0.3em" style="text-anchor: end; visibility: hidden; font-family: Roboto, sans-serif; font-size: 12px; font-weight: 200;" fill="rgb(255, 255, 255)" stroke="none" stroke-width="1px">36</text><text x="0" y="164.35714285714286" dx="0em" dy="0.3em" style="text-anchor: end; visibility: inherit; font-family: Roboto, sans-serif; font-size: 12px; font-weight: 200;" fill="rgb(255, 255, 255)" stroke="none" stroke-width="1px">38</text><text x="0" y="151.71428571428572" dx="0em" dy="0.3em" style="text-anchor: end; visibility: hidden; font-family: Roboto, sans-serif; font-size: 12px; font-weight: 200;" fill="rgb(255, 255, 255)" stroke="none" stroke-width="1px">40</text><text x="0" y="139.07142857142856" dx="0em" dy="0.3em" style="text-anchor: end; visibility: inherit; font-family: Roboto, sans-serif; font-size: 12px; font-weight: 200;" fill="rgb(255, 255, 255)" stroke="none" stroke-width="1px">42</text><text x="0" y="126.42857142857143" dx="0em" dy="0.3em" style="text-anchor: end; visibility: hidden; font-family: Roboto, sans-serif; font-size: 12px; font-weight: 200;" fill="rgb(255, 255, 255)" stroke="none" stroke-width="1px">44</text><text x="0" y="113.78571428571428" dx="0em" dy="0.3em" style="text-anchor: end; visibility: inherit; font-family: Roboto, sans-serif; font-size: 12px; font-weight: 200;" fill="rgb(255, 255, 255)" stroke="none" stroke-width="1px">46</text><text x="0" y="101.14285714285714" dx="0em" dy="0.3em" style="text-anchor: end; visibility: hidden; font-family: Roboto, sans-serif; font-size: 12px; font-weight: 200;" fill="rgb(255, 255, 255)" stroke="none" stroke-width="1px">48</text><text x="0" y="88.5" dx="0em" dy="0.3em" style="text-anchor: end; visibility: inherit; font-family: Roboto, sans-serif; font-size: 12px; font-weight: 200;" fill="rgb(255, 255, 255)" stroke="none" stroke-width="1px">50</text><text x="0" y="75.85714285714286" dx="0em" dy="0.3em" style="text-anchor: end; visibility: hidden; font-family: Roboto, sans-serif; font-size: 12px; font-weight: 200;" fill="rgb(255, 255, 255)" stroke="none" stroke-width="1px">52</text><text x="0" y="63.21428571428571" dx="0em" dy="0.3em" style="text-anchor: end; visibility: inherit; font-family: Roboto, sans-serif; font-size: 12px; font-weight: 200;" fill="rgb(255, 255, 255)" stroke="none" stroke-width="1px">54</text><text x="0" y="50.57142857142857" dx="0em" dy="0.3em" style="text-anchor: end; visibility: hidden; font-family: Roboto, sans-serif; font-size: 12px; font-weight: 200;" fill="rgb(255, 255, 255)" stroke="none" stroke-width="1px">56</text><text x="0" y="37.92857142857143" dx="0em" dy="0.3em" style="text-anchor: end; visibility: inherit; font-family: Roboto, sans-serif; font-size: 12px; font-weight: 200;" fill="rgb(255, 255, 255)" stroke="none" stroke-width="1px">58</text><text x="0" y="25.285714285714295" dx="0em" dy="0.3em" style="text-anchor: end; visibility: hidden; font-family: Roboto, sans-serif; font-size: 12px; font-weight: 200;" fill="rgb(255, 255, 255)" stroke="none" stroke-width="1px">60</text><text x="0" y="12.642857142857137" dx="0em" dy="0.3em" style="text-anchor: end; visibility: inherit; font-family: Roboto, sans-serif; font-size: 12px; font-weight: 200;" fill="rgb(255, 255, 255)" stroke="none" stroke-width="1px">62</text><text x="0" y="0" dx="0em" dy="0.3em" style="text-anchor: end; visibility: hidden; font-family: Roboto, sans-serif; font-size: 12px; font-weight: 200;" fill="rgb(255, 255, 255)" stroke="none" stroke-width="1px">64</text></g><line x1="30.78125" y1="0" x2="30.78125" y2="177" fill="rgb(0, 0, 0)" stroke="rgb(204, 204, 204)" stroke-width="1px"></line></g></g><g transform="translate(30, 0)" clip-path="url(#clip_0)"><clipPath id="clip_0"><rect width="299" height="177"></rect></clipPath><g><g><g><line x1="0" y1="0" x2="0" y2="177" fill="rgb(0, 0, 0)" stroke="rgb(189, 189, 189)" stroke-width="1px" opacity="0.25"></line><line x1="21.372767857142858" y1="0" x2="21.372767857142858" y2="177" fill="rgb(0, 0, 0)" stroke="rgb(189, 189, 189)" stroke-width="1px" opacity="0.25"></line><line x1="42.745535714285715" y1="0" x2="42.745535714285715" y2="177" fill="rgb(0, 0, 0)" stroke="rgb(189, 189, 189)" stroke-width="1px" opacity="0.25"></line><line x1="64.11830357142857" y1="0" x2="64.11830357142857" y2="177" fill="rgb(0, 0, 0)" stroke="rgb(189, 189, 189)" stroke-width="1px" opacity="0.25"></line><line x1="85.49107142857143" y1="0" x2="85.49107142857143" y2="177" fill="rgb(0, 0, 0)" stroke="rgb(189, 189, 189)" stroke-width="1px" opacity="0.25"></line><line x1="106.86383928571429" y1="0" x2="106.86383928571429" y2="177" fill="rgb(0, 0, 0)" stroke="rgb(189, 189, 189)" stroke-width="1px" opacity="0.25"></line><line x1="128.23660714285714" y1="0" x2="128.23660714285714" y2="177" fill="rgb(0, 0, 0)" stroke="rgb(189, 189, 189)" stroke-width="1px" opacity="0.25"></line><line x1="149.609375" y1="0" x2="149.609375" y2="177" fill="rgb(0, 0, 0)" stroke="rgb(189, 189, 189)" stroke-width="1px" opacity="0.25"></line><line x1="170.98214285714286" y1="0" x2="170.98214285714286" y2="177" fill="rgb(0, 0, 0)" stroke="rgb(189, 189, 189)" stroke-width="1px" opacity="0.25"></line><line x1="192.35491071428572" y1="0" x2="192.35491071428572" y2="177" fill="rgb(0, 0, 0)" stroke="rgb(189, 189, 189)" stroke-width="1px" opacity="0.25"></line><line x1="213.72767857142858" y1="0" x2="213.72767857142858" y2="177" fill="rgb(0, 0, 0)" stroke="rgb(189, 189, 189)" stroke-width="1px" opacity="0.25"></line><line x1="235.10044642857142" y1="0" x2="235.10044642857142" y2="177" fill="rgb(0, 0, 0)" stroke="rgb(189, 189, 189)" stroke-width="1px" opacity="0.25"></line><line x1="256.4732142857143" y1="0" x2="256.4732142857143" y2="177" fill="rgb(0, 0, 0)" stroke="rgb(189, 189, 189)" stroke-width="1px" opacity="0.25"></line><line x1="277.84598214285717" y1="0" x2="277.84598214285717" y2="177" fill="rgb(0, 0, 0)" stroke="rgb(189, 189, 189)" stroke-width="1px" opacity="0.25"></line><line x1="299.21875" y1="0" x2="299.21875" y2="177" fill="rgb(0, 0, 0)" stroke="rgb(189, 189, 189)" stroke-width="1px" opacity="0.25"></line></g><g><line x1="0" y1="177" x2="299.21875" y2="177" fill="rgb(0, 0, 0)" stroke="rgb(189, 189, 189)" stroke-width="1px" opacity="0.25"></line><line x1="0" y1="164.35714285714286" x2="299.21875" y2="164.35714285714286" fill="rgb(0, 0, 0)" stroke="rgb(189, 189, 189)" stroke-width="1px" opacity="0.25"></line><line x1="0" y1="151.71428571428572" x2="299.21875" y2="151.71428571428572" fill="rgb(0, 0, 0)" stroke="rgb(189, 189, 189)" stroke-width="1px" opacity="0.25"></line><line x1="0" y1="139.07142857142856" x2="299.21875" y2="139.07142857142856" fill="rgb(0, 0, 0)" stroke="rgb(189, 189, 189)" stroke-width="1px" opacity="0.25"></line><line x1="0" y1="126.42857142857143" x2="299.21875" y2="126.42857142857143" fill="rgb(0, 0, 0)" stroke="rgb(189, 189, 189)" stroke-width="1px" opacity="0.25"></line><line x1="0" y1="113.78571428571428" x2="299.21875" y2="113.78571428571428" fill="rgb(0, 0, 0)" stroke="rgb(189, 189, 189)" stroke-width="1px" opacity="0.25"></line><line x1="0" y1="101.14285714285714" x2="299.21875" y2="101.14285714285714" fill="rgb(0, 0, 0)" stroke="rgb(189, 189, 189)" stroke-width="1px" opacity="0.25"></line><line x1="0" y1="88.5" x2="299.21875" y2="88.5" fill="rgb(0, 0, 0)" stroke="rgb(189, 189, 189)" stroke-width="1px" opacity="0.25"></line><line x1="0" y1="75.85714285714286" x2="299.21875" y2="75.85714285714286" fill="rgb(0, 0, 0)" stroke="rgb(189, 189, 189)" stroke-width="1px" opacity="0.25"></line><line x1="0" y1="63.21428571428571" x2="299.21875" y2="63.21428571428571" fill="rgb(0, 0, 0)" stroke="rgb(189, 189, 189)" stroke-width="1px" opacity="0.25"></line><line x1="0" y1="50.57142857142857" x2="299.21875" y2="50.57142857142857" fill="rgb(0, 0, 0)" stroke="rgb(189, 189, 189)" stroke-width="1px" opacity="0.25"></line><line x1="0" y1="37.92857142857143" x2="299.21875" y2="37.92857142857143" fill="rgb(0, 0, 0)" stroke="rgb(189, 189, 189)" stroke-width="1px" opacity="0.25"></line><line x1="0" y1="25.285714285714295" x2="299.21875" y2="25.285714285714295" fill="rgb(0, 0, 0)" stroke="rgb(189, 189, 189)" stroke-width="1px" opacity="0.25"></line><line x1="0" y1="12.642857142857137" x2="299.21875" y2="12.642857142857137" fill="rgb(0, 0, 0)" stroke="rgb(189, 189, 189)" stroke-width="1px" opacity="0.25"></line><line x1="0" y1="0" x2="299.21875" y2="0" fill="rgb(0, 0, 0)" stroke="rgb(189, 189, 189)" stroke-width="1px" opacity="0.25"></line></g></g></g><g><g><line x1="0" y1="404.57142857142856" x2="299.21875" y2="404.57142857142856" fill="rgb(0, 0, 0)" stroke="rgb(153, 153, 153)" stroke-width="1.5px"></line></g></g><g><g><line x1="21.372767857142858" y1="0" x2="21.372767857142858" y2="177" fill="rgb(0, 0, 0)" stroke="rgb(153, 153, 153)" stroke-width="1.5px"></line></g></g><g><g><g><g><g><path stroke="rgb(255, 112, 67)" stroke-width="2px" d="M21.372767857142858,25.285714285714295L22.44140625,-14.223214285714274L23.510044642857142,102.69096209912541L24.578683035714285,96.16938025210086L25.647321428571427,65.42525032219693L26.715959821428573,128.15321466932636L27.784598214285715,163.8630029008628L28.853236607142858,107.48515611981342L29.921875,74.27065372828059L30.990513392857146,130.87609224921334L32.059151785714285,113.86393574657436L33.12779017857143,27.67360099257529L34.19642857142857,52.03597955273281L35.265066964285715,167.85520564288484L36.333705357142854,60.205365190015094L37.40234375,46.23356322940117L38.47098214285714,37.853005103392846L39.539620535714285,133.97870844144433L40.60825892857142,39.9243509138388L41.67689732142857,8.782043364768802L42.745535714285715,-9.902612436939318L43.81417410714286,29.45895062143595L44.8828125,78.36147085655799L45.951450892857146,57.131067630474035L47.020089285714285,94.96446242542982L48.08872767857143,117.66443046297002L49.15736607142857,80.71290617253848L50.22600446428571,134.3992052433977L51.294642857142854,116.0395163812913L52.36328125,155.5951471449217L53.431919642857146,103.47136708731371L54.500558035714285,97.48281977578006L55.56919642857143,220.31826915967375L56.63783482142857,142.3052449749248L57.706473214285715,95.49743189458114L58.775111607142854,143.26988820092268L59.84375,70.7905039005751L60.912388392857146,77.87430236664858L61.98102678571429,82.12458142945839L63.04966517857143,59.38903454156902L64.11830357142857,96.31913504027551L65.18694196428571,42.62005242689509L66.25558035714286,60.972031461435996L67.32421875,97.26893316886404L68.39285714285714,93.76135990095383L69.46149553571429,15.799673078567203L70.53013392857143,44.87980384822854L71.59877232142857,62.327882309328885L72.66741071428571,47.511015099683455L73.73604910714286,13.33518048810526L74.8046875,18.11539400717207L75.87332589285714,46.26923640438516L76.94196428571428,88.447256128419L78.01060267857143,164.32549653427375L79.07924107142857,159.28101220627536L80.14787946428571,156.25432160947832L81.21651785714285,78.5811643942409L82.28515625,-18.594158506325822L83.35379464285714,24.243504896208L84.42243303571429,100.51753150915711L85.49107142857143,120.99623319120916L86.55970982142858,107.99773991472527L87.62834821428572,74.91292966312052L88.69698660714286,105.6334720835868L89.765625,98.78008325015203L90.83426339285714,69.38233566437688L91.90290178571429,102.31511568434046L92.97154017857143,96.7890694106043L94.04017857142857,144.04487021779113L95.10881696428571,71.25549355924613L96.17745535714286,154.01043899269058L97.24609375,51.949120538471476L98.31473214285714,15.998043751654313L99.38337053571428,44.99882625099259L100.45200892857142,138.2564386077384L101.52064732142857,42.49672030750018L102.58928571428571,35.612317898785825L103.65792410714286,56.7673907392715L104.7265625,120.03186301499147L105.79520089285715,107.41911780899493L106.86383928571429,74.56575639968266L107.93247767857143,80.13945383980956L109.00111607142857,83.48367230388575L110.06975446428572,85.49020338233147L111.13839285714286,86.6941220293989L112.20703125,62.13075893192505L113.27566964285714,22.10702678772647L114.34430803571428,124.52135892977874L115.41294642857143,185.96995821501014L116.48158482142857,197.55340350043465L117.55022321428571,103.36061352883225L118.61886160714285,21.559225260156456L119.6875,98.90696372752244L120.75613839285714,69.45846395079919L121.82477678571429,51.78936408476524L122.89341517857143,66.47361845085914L123.96205357142858,-0.5729717866273707L125.03069196428572,85.62764549945217L126.09933035714286,137.3480158710999L127.16796875,92.52309523694566L128.23660714285714,90.9138571421674L129.30524553571428,89.94831428530046L130.37388392857142,-11.773868571676857L131.44252232142858,3.049964571279623L132.51116071428572,11.944264457053519L133.57979910714286,67.85227295994639L134.6484375,101.39707806168214L135.71707589285714,121.52396112272359L136.78571428571428,209.4572338164913L137.85435267857142,211.64576886132335L138.92299107142858,111.81603274536546L139.99162946428572,51.918191075790666L141.06026785714286,41.26520035976014L142.12890625,9.587691644427517L143.19754464285714,41.15261498665652L144.26618303571428,9.520140420565337L145.33482142857142,41.11208425233924L146.40345982142856,-41.07560659145359L147.47209821428572,36.040350330842166L148.54073660714286,31.738495912791002L149.609375,130.3002404048175L150.67801339285714,113.58014424289048L151.74665178571428,103.54808654573426L152.81529017857142,122.81456621315485L153.88392857142856,83.80302544217865L154.95256696428572,161.53895812245005L156.02120535714286,157.60908915918432L157.08984375,155.25116778122492L158.15848214285714,128.55070066873498L159.22712053571428,163.10184897266956L160.29575892857142,183.83253795503035L161.36439732142856,95.12809420158962L162.4330357142857,143.04828509238234L163.50167410714283,95.94325676971512L164.5703125,42.39452549040049L165.63895089285714,35.551001008526036L166.70758928571428,31.44488631940135L167.77622767857142,28.981217505926555L168.84486607142858,52.78873050355592L169.91350446428572,142.93038115927644L170.98214285714286,146.44394298128012L172.05078125,148.5520800744824L173.11941964285717,73.95981947326091L174.1880580357143,29.204463112527986L175.25669642857144,52.9226778675168L176.32533482142858,67.15360672051008L177.39397321428572,100.97787831802033L178.46261160714286,121.27244127652651L179.53125,158.7348933373445L180.59988839285714,105.35522171669241L181.66852678571428,98.61313303001548L182.73716517857144,119.85359410372358L183.80580357142858,82.02644217651988L184.87444196428572,59.330151020197675L185.94308035714286,45.712376326404346L187.01171875,138.6845686529855L188.08035714285714,118.61074119179133L189.14899553571428,106.5664447150748L190.21763392857142,48.76843825761633L191.28627232142856,-11.19607990257305L192.35491071428572,3.396637772741907L193.42354910714286,12.15226837793089L194.4921875,17.405646741044272L195.56082589285714,71.12910233034086L196.62946428571428,103.3631756839188L197.69810267857142,72.132191124637L198.76674107142856,103.96502896049653L199.8353794642857,97.7790173762979L200.90401785714283,94.06741042577875L201.97265625,91.84044625546726L203.04129464285714,115.78998203899468L204.10993303571428,104.87398922339682L205.17857142857142,47.75296496260952L206.24720982142858,64.05177897756572L207.31584821428572,124.40249595796803L208.38448660714286,84.75578328906653L209.453125,60.96775568772563L210.52176339285717,71.9806534126354L211.5904017857143,103.87410633329554L212.65904017857144,97.72446379997734L213.72767857142858,94.03467827998642L214.79631696428572,91.82080696799183L215.86495535714286,14.635341323652252L216.93359375,44.181204794191366L218.00223214285714,112.48015144794341L219.07087053571428,27.030948011623202L220.13950892857144,76.90428309268822L221.20814732142858,81.54256985561294L222.27678571428572,134.89697048479636L223.34542410714286,116.33818229087785L224.4140625,130.48862366024102L225.48270089285714,88.40745991043033L226.55133928571428,63.1587616605439L227.61997767857142,98.58097128204064L228.68861607142856,145.12001134065295L229.75725446428572,173.04343537582037L230.82589285714286,113.94034693977795L231.89453125,103.76420816386675L232.96316964285714,122.94423918403433L234.03180803571428,134.45225779613492L235.10044642857142,90.78564039196668L236.16908482142856,39.299955663751426L237.2377232142857,58.979973398250856L238.30636160714283,121.35941261037911L239.375,57.64421899479888L240.44363839285714,19.415102825450752L241.51227678571428,47.04906169527046L242.58091517857142,38.343722731448L243.64955357142858,7.83480506744023L244.71819196428572,65.38659732617842L245.78683035714286,49.34624410999277L246.85546875,14.436317894567104L247.92410714285717,18.776076451025986L248.9927455357143,46.66564587061559L250.06138392857144,38.113673236655075L251.13002232142858,108.83963251342162L252.19866071428572,151.27520807948156L253.26729910714286,100.87941056197468L254.3359375,121.2133606228991L255.40457589285714,158.699444945168L256.4732142857143,130.61966696710078L257.54185267857144,88.48608589454622L258.61049107142856,88.49165153672774L259.6791294642857,88.49499092203668L260.74776785714283,113.78270883893633L261.81640625,78.38391101764752L262.88504464285717,107.71606089630284L263.9536830357143,74.74392225206739L265.02232142857144,54.96063906552613L266.09095982142856,68.37638343931572L267.1595982142857,51.140115777875145L268.2282366071429,15.512640895296535L269.296875,19.421870251463645L270.36551339285717,72.3388364365925L271.4341517857143,129.3747304333841L272.50279017857144,138.3105525457447L273.57142857142856,118.3863315274468L274.6400669642857,131.7175132021824L275.70870535714283,114.43050792130947L276.77734375,78.77259046707138" style="fill: none;" fill="none"></path></g></g></g></g><g opacity="0.2"><g><g><g><path stroke="rgb(255, 112, 67)" stroke-width="2px" d="M21.372767857142858,25.285714285714295L22.44140625,-37.92857142857141L23.510044642857142,214.92857142857142L24.578683035714285,88.5L25.647321428571427,25.285714285714295L26.715959821428573,214.92857142857142L27.784598214285715,214.92857142857142L28.853236607142858,25.285714285714295L29.921875,25.285714285714295L30.990513392857146,214.92857142857142L32.059151785714285,88.5L33.12779017857143,-101.14285714285714L34.19642857142857,88.5L35.265066964285715,341.3571428571429L36.333705357142854,-101.14285714285714L37.40234375,25.285714285714295L38.47098214285714,25.285714285714295L39.539620535714285,278.1428571428571L42.745535714285715,-37.92857142857141L43.81417410714286,88.5L44.8828125,151.71428571428572L45.951450892857146,25.285714285714295L47.020089285714285,151.71428571428572L48.08872767857143,151.71428571428572L49.15736607142857,25.285714285714295L50.22600446428571,214.92857142857142L51.294642857142854,88.5L52.36328125,214.92857142857142L53.431919642857146,25.285714285714295L54.500558035714285,88.5L55.56919642857143,404.57142857142856L56.63783482142857,25.285714285714295L57.706473214285715,25.285714285714295L58.775111607142854,214.92857142857142L59.84375,-37.92857142857141L60.912388392857146,88.5L61.98102678571429,88.5L63.04966517857143,25.285714285714295L64.11830357142857,151.71428571428572L65.18694196428571,-37.92857142857141L66.25558035714286,88.5L67.32421875,151.71428571428572L68.39285714285714,88.5L69.46149553571429,-101.14285714285714L70.53013392857143,88.5L71.59877232142857,88.5L72.66741071428571,25.285714285714295L73.73604910714286,-37.92857142857141L74.8046875,25.285714285714295L75.87332589285714,88.5L76.94196428571428,151.71428571428572L78.01060267857143,278.1428571428571L79.07924107142857,151.71428571428572L80.14787946428571,151.71428571428572L81.21651785714285,-37.92857142857141L82.28515625,-164.35714285714286L83.35379464285714,88.5L84.42243303571429,214.92857142857142L85.49107142857143,151.71428571428572L86.55970982142858,88.5L87.62834821428572,25.285714285714295L88.69698660714286,151.71428571428572L89.765625,88.5L90.83426339285714,25.285714285714295L91.90290178571429,151.71428571428572L92.97154017857143,88.5L94.04017857142857,214.92857142857142L98.31473214285714,-37.92857142857141L99.38337053571428,88.5L100.45200892857142,278.1428571428571L101.52064732142857,-101.14285714285714L102.58928571428571,25.285714285714295L103.65792410714286,88.5L104.7265625,214.92857142857142L105.79520089285715,88.5L106.86383928571429,25.285714285714295L107.93247767857143,88.5L109.00111607142857,88.5L110.06975446428572,88.5L111.13839285714286,88.5L112.20703125,25.285714285714295L113.27566964285714,-37.92857142857141L119.6875,214.92857142857142L120.75613839285714,25.285714285714295L121.82477678571429,25.285714285714295L122.89341517857143,88.5L123.96205357142858,-101.14285714285714L126.09933035714286,214.92857142857142L127.16796875,25.285714285714295L128.23660714285714,88.5L129.30524553571428,88.5L130.37388392857142,-164.35714285714286L131.44252232142858,25.285714285714295L132.51116071428572,25.285714285714295L133.57979910714286,151.71428571428572L134.6484375,151.71428571428572L135.71707589285714,151.71428571428572L136.78571428571428,341.3571428571429L139.99162946428572,-37.92857142857141L141.06026785714286,25.285714285714295L142.12890625,-37.92857142857141L143.19754464285714,88.5L144.26618303571428,-37.92857142857141L145.33482142857142,88.5L146.40345982142856,-164.35714285714286L147.47209821428572,151.71428571428572L148.54073660714286,25.285714285714295L149.609375,278.1428571428571L150.67801339285714,88.5L151.74665178571428,88.5L152.81529017857142,151.71428571428572L153.88392857142856,25.285714285714295L154.95256696428572,278.1428571428571L156.02120535714286,151.71428571428572L157.08984375,151.71428571428572L158.15848214285714,88.5L159.22712053571428,214.92857142857142L162.4330357142857,214.92857142857142L163.50167410714283,25.285714285714295L164.5703125,-37.92857142857141L165.63895089285714,25.285714285714295L166.70758928571428,25.285714285714295L167.77622767857142,25.285714285714295L168.84486607142858,88.5L169.91350446428572,278.1428571428571L170.98214285714286,151.71428571428572L172.05078125,151.71428571428572L173.11941964285717,-37.92857142857141L174.1880580357143,-37.92857142857141L175.25669642857144,88.5L176.32533482142858,88.5L177.39397321428572,151.71428571428572L178.46261160714286,151.71428571428572L179.53125,214.92857142857142L180.59988839285714,25.285714285714295L181.66852678571428,88.5L182.73716517857144,151.71428571428572L183.80580357142858,25.285714285714295L184.87444196428572,25.285714285714295L185.94308035714286,25.285714285714295L187.01171875,278.1428571428571L188.08035714285714,88.5L189.14899553571428,88.5L190.21763392857142,-37.92857142857141L191.28627232142856,-101.14285714285714L192.35491071428572,25.285714285714295L193.42354910714286,25.285714285714295L194.4921875,25.285714285714295L195.56082589285714,151.71428571428572L196.62946428571428,151.71428571428572L197.69810267857142,25.285714285714295L198.76674107142856,151.71428571428572L199.8353794642857,88.5L200.90401785714283,88.5L201.97265625,88.5L203.04129464285714,151.71428571428572L204.10993303571428,88.5L205.17857142857142,-37.92857142857141L206.24720982142858,88.5L207.31584821428572,214.92857142857142L208.38448660714286,25.285714285714295L209.453125,25.285714285714295L210.52176339285717,88.5L211.5904017857143,151.71428571428572L212.65904017857144,88.5L213.72767857142858,88.5L214.79631696428572,88.5L215.86495535714286,-101.14285714285714L216.93359375,88.5L218.00223214285714,214.92857142857142L219.07087053571428,-101.14285714285714L220.13950892857144,151.71428571428572L221.20814732142858,88.5L222.27678571428572,214.92857142857142L223.34542410714286,88.5L224.4140625,151.71428571428572L225.48270089285714,25.285714285714295L226.55133928571428,25.285714285714295L227.61997767857142,151.71428571428572L228.68861607142856,214.92857142857142L229.75725446428572,214.92857142857142L230.82589285714286,25.285714285714295L231.89453125,88.5L232.96316964285714,151.71428571428572L234.03180803571428,151.71428571428572L235.10044642857142,25.285714285714295L236.16908482142856,-37.92857142857141L237.2377232142857,88.5L238.30636160714283,214.92857142857142L240.44363839285714,-37.92857142857141L241.51227678571428,88.5L242.58091517857142,25.285714285714295L243.64955357142858,-37.92857142857141L244.71819196428572,151.71428571428572L245.78683035714286,25.285714285714295L246.85546875,-37.92857142857141L247.92410714285717,25.285714285714295L248.9927455357143,88.5L250.06138392857144,25.285714285714295L251.13002232142858,214.92857142857142L252.19866071428572,214.92857142857142L253.26729910714286,25.285714285714295L254.3359375,151.71428571428572L255.40457589285714,214.92857142857142L256.4732142857143,88.5L257.54185267857144,25.285714285714295L258.61049107142856,88.5L259.6791294642857,88.5L260.74776785714283,151.71428571428572L261.81640625,25.285714285714295L262.88504464285717,151.71428571428572L263.9536830357143,25.285714285714295L265.02232142857144,25.285714285714295L266.09095982142856,88.5L267.1595982142857,25.285714285714295L268.2282366071429,-37.92857142857141L269.296875,25.285714285714295L270.36551339285717,151.71428571428572L271.4341517857143,214.92857142857142L272.50279017857144,151.71428571428572L273.57142857142856,88.5L274.6400669642857,151.71428571428572L275.70870535714283,88.5L276.77734375,25.285714285714295" style="fill: none;" fill="none"></path></g></g></g></g></g></g><g transform="translate(30, 177)" clip-path="url(#clip_1)"><clipPath id="clip_1"><rect width="299" height="23"></rect></clipPath><g><g><line x1="0" y1="0" x2="0" y2="5" style="visibility: inherit;" fill="rgb(0, 0, 0)" stroke="rgb(204, 204, 204)" stroke-width="1px"></line><line x1="21.372767857142858" y1="0" x2="21.372767857142858" y2="5" style="visibility: inherit;" fill="rgb(0, 0, 0)" stroke="rgb(204, 204, 204)" stroke-width="1px"></line><line x1="42.745535714285715" y1="0" x2="42.745535714285715" y2="5" style="visibility: inherit;" fill="rgb(0, 0, 0)" stroke="rgb(204, 204, 204)" stroke-width="1px"></line><line x1="64.11830357142857" y1="0" x2="64.11830357142857" y2="5" style="visibility: inherit;" fill="rgb(0, 0, 0)" stroke="rgb(204, 204, 204)" stroke-width="1px"></line><line x1="85.49107142857143" y1="0" x2="85.49107142857143" y2="5" style="visibility: inherit;" fill="rgb(0, 0, 0)" stroke="rgb(204, 204, 204)" stroke-width="1px"></line><line x1="106.86383928571429" y1="0" x2="106.86383928571429" y2="5" style="visibility: inherit;" fill="rgb(0, 0, 0)" stroke="rgb(204, 204, 204)" stroke-width="1px"></line><line x1="128.23660714285714" y1="0" x2="128.23660714285714" y2="5" style="visibility: inherit;" fill="rgb(0, 0, 0)" stroke="rgb(204, 204, 204)" stroke-width="1px"></line><line x1="149.609375" y1="0" x2="149.609375" y2="5" style="visibility: inherit;" fill="rgb(0, 0, 0)" stroke="rgb(204, 204, 204)" stroke-width="1px"></line><line x1="170.98214285714286" y1="0" x2="170.98214285714286" y2="5" style="visibility: inherit;" fill="rgb(0, 0, 0)" stroke="rgb(204, 204, 204)" stroke-width="1px"></line><line x1="192.35491071428572" y1="0" x2="192.35491071428572" y2="5" style="visibility: inherit;" fill="rgb(0, 0, 0)" stroke="rgb(204, 204, 204)" stroke-width="1px"></line><line x1="213.72767857142858" y1="0" x2="213.72767857142858" y2="5" style="visibility: inherit;" fill="rgb(0, 0, 0)" stroke="rgb(204, 204, 204)" stroke-width="1px"></line><line x1="235.10044642857142" y1="0" x2="235.10044642857142" y2="5" style="visibility: inherit;" fill="rgb(0, 0, 0)" stroke="rgb(204, 204, 204)" stroke-width="1px"></line><line x1="256.4732142857143" y1="0" x2="256.4732142857143" y2="5" style="visibility: inherit;" fill="rgb(0, 0, 0)" stroke="rgb(204, 204, 204)" stroke-width="1px"></line><line x1="277.84598214285717" y1="0" x2="277.84598214285717" y2="5" style="visibility: inherit;" fill="rgb(0, 0, 0)" stroke="rgb(204, 204, 204)" stroke-width="1px"></line><line x1="299.21875" y1="0" x2="299.21875" y2="5" style="visibility: inherit;" fill="rgb(0, 0, 0)" stroke="rgb(204, 204, 204)" stroke-width="1px"></line></g><g transform="translate(0, 8)"><text x="0" y="0" dx="0em" dy="0.95em" style="text-anchor: middle; visibility: hidden; font-family: Roboto, sans-serif; font-size: 12px; font-weight: 200;" fill="rgb(255, 255, 255)" stroke="none" stroke-width="1px">-20</text><text x="21.372767857142858" y="0" dx="0em" dy="0.95em" style="text-anchor: middle; visibility: inherit; font-family: Roboto, sans-serif; font-size: 12px; font-weight: 200;" fill="rgb(255, 255, 255)" stroke="none" stroke-width="1px">0</text><text x="42.745535714285715" y="0" dx="0em" dy="0.95em" style="text-anchor: middle; visibility: hidden; font-family: Roboto, sans-serif; font-size: 12px; font-weight: 200;" fill="rgb(255, 255, 255)" stroke="none" stroke-width="1px">20</text><text x="64.11830357142857" y="0" dx="0em" dy="0.95em" style="text-anchor: middle; visibility: inherit; font-family: Roboto, sans-serif; font-size: 12px; font-weight: 200;" fill="rgb(255, 255, 255)" stroke="none" stroke-width="1px">40</text><text x="85.49107142857143" y="0" dx="0em" dy="0.95em" style="text-anchor: middle; visibility: hidden; font-family: Roboto, sans-serif; font-size: 12px; font-weight: 200;" fill="rgb(255, 255, 255)" stroke="none" stroke-width="1px">60</text><text x="106.86383928571429" y="0" dx="0em" dy="0.95em" style="text-anchor: middle; visibility: inherit; font-family: Roboto, sans-serif; font-size: 12px; font-weight: 200;" fill="rgb(255, 255, 255)" stroke="none" stroke-width="1px">80</text><text x="128.23660714285714" y="0" dx="0em" dy="0.95em" style="text-anchor: middle; visibility: hidden; font-family: Roboto, sans-serif; font-size: 12px; font-weight: 200;" fill="rgb(255, 255, 255)" stroke="none" stroke-width="1px">100</text><text x="149.609375" y="0" dx="0em" dy="0.95em" style="text-anchor: middle; visibility: inherit; font-family: Roboto, sans-serif; font-size: 12px; font-weight: 200;" fill="rgb(255, 255, 255)" stroke="none" stroke-width="1px">120</text><text x="170.98214285714286" y="0" dx="0em" dy="0.95em" style="text-anchor: middle; visibility: hidden; font-family: Roboto, sans-serif; font-size: 12px; font-weight: 200;" fill="rgb(255, 255, 255)" stroke="none" stroke-width="1px">140</text><text x="192.35491071428572" y="0" dx="0em" dy="0.95em" style="text-anchor: middle; visibility: inherit; font-family: Roboto, sans-serif; font-size: 12px; font-weight: 200;" fill="rgb(255, 255, 255)" stroke="none" stroke-width="1px">160</text><text x="213.72767857142858" y="0" dx="0em" dy="0.95em" style="text-anchor: middle; visibility: hidden; font-family: Roboto, sans-serif; font-size: 12px; font-weight: 200;" fill="rgb(255, 255, 255)" stroke="none" stroke-width="1px">180</text><text x="235.10044642857142" y="0" dx="0em" dy="0.95em" style="text-anchor: middle; visibility: inherit; font-family: Roboto, sans-serif; font-size: 12px; font-weight: 200;" fill="rgb(255, 255, 255)" stroke="none" stroke-width="1px">200</text><text x="256.4732142857143" y="0" dx="0em" dy="0.95em" style="text-anchor: middle; visibility: hidden; font-family: Roboto, sans-serif; font-size: 12px; font-weight: 200;" fill="rgb(255, 255, 255)" stroke="none" stroke-width="1px">220</text><text x="277.84598214285717" y="0" dx="0em" dy="0.95em" style="text-anchor: middle; visibility: inherit; font-family: Roboto, sans-serif; font-size: 12px; font-weight: 200;" fill="rgb(255, 255, 255)" stroke="none" stroke-width="1px">240</text><text x="299.21875" y="0" dx="0em" dy="0.95em" style="text-anchor: middle; visibility: hidden; font-family: Roboto, sans-serif; font-size: 12px; font-weight: 200;" fill="rgb(255, 255, 255)" stroke="none" stroke-width="1px">260</text></g><line x1="0" y1="0" x2="299.21875" y2="0" fill="rgb(0, 0, 0)" stroke="rgb(204, 204, 204)" stroke-width="1px"></line></g></g></g></g></svg>