<svg viewBox="0 0 330 200" xmlns="http://www.w3.org/2000/svg"><g><g><g><g><g><line x1="30.78125" y1="177" x2="25.78125" y2="177" style="visibility: inherit;" fill="rgb(0, 0, 0)" stroke="rgb(204, 204, 204)" stroke-width="1px"></line><line x1="30.78125" y1="164.35714285714286" x2="25.78125" y2="164.35714285714286" style="visibility: inherit;" fill="rgb(0, 0, 0)" stroke="rgb(204, 204, 204)" stroke-width="1px"></line><line x1="30.78125" y1="151.71428571428572" x2="25.78125" y2="151.71428571428572" style="visibility: inherit;" fill="rgb(0, 0, 0)" stroke="rgb(204, 204, 204)" stroke-width="1px"></line><line x1="30.78125" y1="139.07142857142856" x2="25.78125" y2="139.07142857142856" style="visibility: inherit;" fill="rgb(0, 0, 0)" stroke="rgb(204, 204, 204)" stroke-width="1px"></line><line x1="30.78125" y1="126.42857142857143" x2="25.78125" y2="126.42857142857143" style="visibility: inherit;" fill="rgb(0, 0, 0)" stroke="rgb(204, 204, 204)" stroke-width="1px"></line><line x1="30.78125" y1="113.78571428571428" x2="25.78125" y2="113.78571428571428" style="visibility: inherit;" fill="rgb(0, 0, 0)" stroke="rgb(204, 204, 204)" stroke-width="1px"></line><line x1="30.78125" y1="101.14285714285714" x2="25.78125" y2="101.14285714285714" style="visibility: inherit;" fill="rgb(0, 0, 0)" stroke="rgb(204, 204, 204)" stroke-width="1px"></line><line x1="30.78125" y1="88.5" x2="25.78125" y2="88.5" style="visibility: inherit;" fill="rgb(0, 0, 0)" stroke="rgb(204, 204, 204)" stroke-width="1px"></line><line x1="30.78125" y1="75.85714285714286" x2="25.78125" y2="75.85714285714286" style="visibility: inherit;" fill="rgb(0, 0, 0)" stroke="rgb(204, 204, 204)" stroke-width="1px"></line><line x1="30.78125" y1="63.21428571428571" x2="25.78125" y2="63.21428571428571" style="visibility: inherit;" fill="rgb(0, 0, 0)" stroke="rgb(204, 204, 204)" stroke-width="1px"></line><line x1="30.78125" y1="50.57142857142857" x2="25.78125" y2="50.57142857142857" style="visibility: inherit;" fill="rgb(0, 0, 0)" stroke="rgb(204, 204, 204)" stroke-width="1px"></line><line x1="30.78125" y1="37.92857142857143" x2="25.78125" y2="37.92857142857143" style="visibility: inherit;" fill="rgb(0, 0, 0)" stroke="rgb(204, 204, 204)" stroke-width="1px"></line><line x1="30.78125" y1="25.285714285714295" x2="25.78125" y2="25.285714285714295" style="visibility: inherit;" fill="rgb(0, 0, 0)" stroke="rgb(204, 204, 204)" stroke-width="1px"></line><line x1="30.78125" y1="12.642857142857137" x2="25.78125" y2="12.642857142857137" style="visibility: inherit;" fill="rgb(0, 0, 0)" stroke="rgb(204, 204, 204)" stroke-width="1px"></line><line x1="30.78125" y1="0" x2="25.78125" y2="0" style="visibility: inherit;" fill="rgb(0, 0, 0)" stroke="rgb(204, 204, 204)" stroke-width="1px"></line></g><g transform="translate(20.78125, 0)"><text x="0" y="177" dx="0em" dy="0.3em" style="text-anchor: end; visibility: hidden; font-family: Roboto, sans-serif; font-size: 12px; font-weight: 200;" fill="rgb(255, 255, 255)" stroke="none" stroke-width="1px">36</text><text x="0" y="164.35714285714286" dx="0em" dy="0.3em" style="text-anchor: end; visibility: inherit; font-family: Roboto, sans-serif; font-size: 12px; font-weight: 200;" fill="rgb(255, 255, 255)" stroke="none" stroke-width="1px">38</text><text x="0" y="151.71428571428572" dx="0em" dy="0.3em" style="text-anchor: end; visibility: hidden; font-family: Roboto, sans-serif; font-size: 12px; font-weight: 200;" fill="rgb(255, 255, 255)" stroke="none" stroke-width="1px">40</text><text x="0" y="139.07142857142856" dx="0em" dy="0.3em" style="text-anchor: end; visibility: inherit; font-family: Roboto, sans-serif; font-size: 12px; font-weight: 200;" fill="rgb(255, 255, 255)" stroke="none" stroke-width="1px">42</text><text x="0" y="126.42857142857143" dx="0em" dy="0.3em" style="text-anchor: end; visibility: hidden; font-family: Roboto, sans-serif; font-size: 12px; font-weight: 200;" fill="rgb(255, 255, 255)" stroke="none" stroke-width="1px">44</text><text x="0" y="113.78571428571428" dx="0em" dy="0.3em" style="text-anchor: end; visibility: inherit; font-family: Roboto, sans-serif; font-size: 12px; font-weight: 200;" fill="rgb(255, 255, 255)" stroke="none" stroke-width="1px">46</text><text x="0" y="101.14285714285714" dx="0em" dy="0.3em" style="text-anchor: end; visibility: hidden; font-family: Roboto, sans-serif; font-size: 12px; font-weight: 200;" fill="rgb(255, 255, 255)" stroke="none" stroke-width="1px">48</text><text x="0" y="88.5" dx="0em" dy="0.3em" style="text-anchor: end; visibility: inherit; font-family: Roboto, sans-serif; font-size: 12px; font-weight: 200;" fill="rgb(255, 255, 255)" stroke="none" stroke-width="1px">50</text><text x="0" y="75.85714285714286" dx="0em" dy="0.3em" style="text-anchor: end; visibility: hidden; font-family: Roboto, sans-serif; font-size: 12px; font-weight: 200;" fill="rgb(255, 255, 255)" stroke="none" stroke-width="1px">52</text><text x="0" y="63.21428571428571" dx="0em" dy="0.3em" style="text-anchor: end; visibility: inherit; font-family: Roboto, sans-serif; font-size: 12px; font-weight: 200;" fill="rgb(255, 255, 255)" stroke="none" stroke-width="1px">54</text><text x="0" y="50.57142857142857" dx="0em" dy="0.3em" style="text-anchor: end; visibility: hidden; font-family: Roboto, sans-serif; font-size: 12px; font-weight: 200;" fill="rgb(255, 255, 255)" stroke="none" stroke-width="1px">56</text><text x="0" y="37.92857142857143" dx="0em" dy="0.3em" style="text-anchor: end; visibility: inherit; font-family: Roboto, sans-serif; font-size: 12px; font-weight: 200;" fill="rgb(255, 255, 255)" stroke="none" stroke-width="1px">58</text><text x="0" y="25.285714285714295" dx="0em" dy="0.3em" style="text-anchor: end; visibility: hidden; font-family: Roboto, sans-serif; font-size: 12px; font-weight: 200;" fill="rgb(255, 255, 255)" stroke="none" stroke-width="1px">60</text><text x="0" y="12.642857142857137" dx="0em" dy="0.3em" style="text-anchor: end; visibility: inherit; font-family: Roboto, sans-serif; font-size: 12px; font-weight: 200;" fill="rgb(255, 255, 255)" stroke="none" stroke-width="1px">62</text><text x="0" y="0" dx="0em" dy="0.3em" style="text-anchor: end; visibility: hidden; font-family: Roboto, sans-serif; font-size: 12px; font-weight: 200;" fill="rgb(255, 255, 255)" stroke="none" stroke-width="1px">64</text></g><line x1="30.78125" y1="0" x2="30.78125" y2="177" fill="rgb(0, 0, 0)" stroke="rgb(204, 204, 204)" stroke-width="1px"></line></g></g><g transform="translate(30, 0)" clip-path="url(#clip_0)"><clipPath id="clip_0"><rect width="299" height="177"></rect></clipPath><g><g><g><line x1="0" y1="0" x2="0" y2="177" fill="rgb(0, 0, 0)" stroke="rgb(189, 189, 189)" stroke-width="1px" opacity="0.25"></line><line x1="21.372767857142858" y1="0" x2="21.372767857142858" y2="177" fill="rgb(0, 0, 0)" stroke="rgb(189, 189, 189)" stroke-width="1px" opacity="0.25"></line><line x1="42.745535714285715" y1="0" x2="42.745535714285715" y2="177" fill="rgb(0, 0, 0)" stroke="rgb(189, 189, 189)" stroke-width="1px" opacity="0.25"></line><line x1="64.11830357142857" y1="0" x2="64.11830357142857" y2="177" fill="rgb(0, 0, 0)" stroke="rgb(189, 189, 189)" stroke-width="1px" opacity="0.25"></line><line x1="85.49107142857143" y1="0" x2="85.49107142857143" y2="177" fill="rgb(0, 0, 0)" stroke="rgb(189, 189, 189)" stroke-width="1px" opacity="0.25"></line><line x1="106.86383928571429" y1="0" x2="106.86383928571429" y2="177" fill="rgb(0, 0, 0)" stroke="rgb(189, 189, 189)" stroke-width="1px" opacity="0.25"></line><line x1="128.23660714285714" y1="0" x2="128.23660714285714" y2="177" fill="rgb(0, 0, 0)" stroke="rgb(189, 189, 189)" stroke-width="1px" opacity="0.25"></line><line x1="149.609375" y1="0" x2="149.609375" y2="177" fill="rgb(0, 0, 0)" stroke="rgb(189, 189, 189)" stroke-width="1px" opacity="0.25"></line><line x1="170.98214285714286" y1="0" x2="170.98214285714286" y2="177" fill="rgb(0, 0, 0)" stroke="rgb(189, 189, 189)" stroke-width="1px" opacity="0.25"></line><line x1="192.35491071428572" y1="0" x2="192.35491071428572" y2="177" fill="rgb(0, 0, 0)" stroke="rgb(189, 189, 189)" stroke-width="1px" opacity="0.25"></line><line x1="213.72767857142858" y1="0" x2="213.72767857142858" y2="177" fill="rgb(0, 0, 0)" stroke="rgb(189, 189, 189)" stroke-width="1px" opacity="0.25"></line><line x1="235.10044642857142" y1="0" x2="235.10044642857142" y2="177" fill="rgb(0, 0, 0)" stroke="rgb(189, 189, 189)" stroke-width="1px" opacity="0.25"></line><line x1="256.4732142857143" y1="0" x2="256.4732142857143" y2="177" fill="rgb(0, 0, 0)" stroke="rgb(189, 189, 189)" stroke-width="1px" opacity="0.25"></line><line x1="277.84598214285717" y1="0" x2="277.84598214285717" y2="177" fill="rgb(0, 0, 0)" stroke="rgb(189, 189, 189)" stroke-width="1px" opacity="0.25"></line><line x1="299.21875" y1="0" x2="299.21875" y2="177" fill="rgb(0, 0, 0)" stroke="rgb(189, 189, 189)" stroke-width="1px" opacity="0.25"></line></g><g><line x1="0" y1="177" x2="299.21875" y2="177" fill="rgb(0, 0, 0)" stroke="rgb(189, 189, 189)" stroke-width="1px" opacity="0.25"></line><line x1="0" y1="164.35714285714286" x2="299.21875" y2="164.35714285714286" fill="rgb(0, 0, 0)" stroke="rgb(189, 189, 189)" stroke-width="1px" opacity="0.25"></line><line x1="0" y1="151.71428571428572" x2="299.21875" y2="151.71428571428572" fill="rgb(0, 0, 0)" stroke="rgb(189, 189, 189)" stroke-width="1px" opacity="0.25"></line><line x1="0" y1="139.07142857142856" x2="299.21875" y2="139.07142857142856" fill="rgb(0, 0, 0)" stroke="rgb(189, 189, 189)" stroke-width="1px" opacity="0.25"></line><line x1="0" y1="126.42857142857143" x2="299.21875" y2="126.42857142857143" fill="rgb(0, 0, 0)" stroke="rgb(189, 189, 189)" stroke-width="1px" opacity="0.25"></line><line x1="0" y1="113.78571428571428" x2="299.21875" y2="113.78571428571428" fill="rgb(0, 0, 0)" stroke="rgb(189, 189, 189)" stroke-width="1px" opacity="0.25"></line><line x1="0" y1="101.14285714285714" x2="299.21875" y2="101.14285714285714" fill="rgb(0, 0, 0)" stroke="rgb(189, 189, 189)" stroke-width="1px" opacity="0.25"></line><line x1="0" y1="88.5" x2="299.21875" y2="88.5" fill="rgb(0, 0, 0)" stroke="rgb(189, 189, 189)" stroke-width="1px" opacity="0.25"></line><line x1="0" y1="75.85714285714286" x2="299.21875" y2="75.85714285714286" fill="rgb(0, 0, 0)" stroke="rgb(189, 189, 189)" stroke-width="1px" opacity="0.25"></line><line x1="0" y1="63.21428571428571" x2="299.21875" y2="63.21428571428571" fill="rgb(0, 0, 0)" stroke="rgb(189, 189, 189)" stroke-width="1px" opacity="0.25"></line><line x1="0" y1="50.57142857142857" x2="299.21875" y2="50.57142857142857" fill="rgb(0, 0, 0)" stroke="rgb(189, 189, 189)" stroke-width="1px" opacity="0.25"></line><line x1="0" y1="37.92857142857143" x2="299.21875" y2="37.92857142857143" fill="rgb(0, 0, 0)" stroke="rgb(189, 189, 189)" stroke-width="1px" opacity="0.25"></line><line x1="0" y1="25.285714285714295" x2="299.21875" y2="25.285714285714295" fill="rgb(0, 0, 0)" stroke="rgb(189, 189, 189)" stroke-width="1px" opacity="0.25"></line><line x1="0" y1="12.642857142857137" x2="299.21875" y2="12.642857142857137" fill="rgb(0, 0, 0)" stroke="rgb(189, 189, 189)" stroke-width="1px" opacity="0.25"></line><line x1="0" y1="0" x2="299.21875" y2="0" fill="rgb(0, 0, 0)" stroke="rgb(189, 189, 189)" stroke-width="1px" opacity="0.25"></line></g></g></g><g><g><line x1="0" y1="404.57142857142856" x2="299.21875" y2="404.57142857142856" fill="rgb(0, 0, 0)" stroke="rgb(153, 153, 153)" stroke-width="1.5px"></line></g></g><g><g><line x1="21.372767857142858" y1="0" x2="21.372767857142858" y2="177" fill="rgb(0, 0, 0)" stroke="rgb(153, 153, 153)" stroke-width="1.5px"></line></g></g><g><g><g><g><g><path stroke="rgb(255, 112, 67)" stroke-width="2px" d="M23.510044642857142,204.54763106302337L24.578683035714285,151.21691825832514L25.647321428571427,151.43263974338788L26.715959821428573,71.98127227395003L27.784598214285715,26.75118173029873L28.853236607142858,77.59032572061795L29.921875,107.54175107759941L30.990513392857146,48.99964031787009L32.059151785714285,64.85731536895747L33.12779017857143,150.35764769163947L34.19642857142857,125.5822302002864L35.265066964285715,9.515526274989877L36.333705357142854,117.0170042028782L37.40234375,130.89983330611395L38.47098214285714,139.22702378455625L39.539620535714285,43.069305639902836L40.60825892857142,137.1044563645843L41.67689732142857,168.23524058097374L42.745535714285715,186.91298265271868L43.81417410714286,147.54727145343313L44.8828125,98.64226236870827L45.951450892857146,119.87117229760996L47.020089285714285,82.03688152887325L48.08872767857143,59.336375908694926L49.15736607142857,96.28757765013032L50.22600446428571,42.60108505008478L51.294642857142854,60.960657794755406L52.36328125,21.404957360690943L53.431919642857146,73.52869561604834L54.500558035714285,79.51721784623524L55.56919642857143,-43.31824658646525L56.63783482142857,34.694768569000104L57.706473214285715,81.50257623177373L58.775111607142854,33.730116674890226L59.84375,106.20949902491257L60.912388392857146,99.12569938864402L61.98102678571429,94.87541962371719L63.04966517857143,117.61096609033632L64.11830357142857,80.68086533886778L65.18694196428571,134.37994780059083L66.25558035714286,116.02796867505552L67.32421875,79.73106691303087L68.39285714285714,83.23864014818311L69.46149553571429,161.200326950915L70.53013392857143,132.12019616946085L71.59877232142857,114.67211770128475L72.66741071428571,129.48898490668472L73.73604910714286,163.66481951571564L74.8046875,158.8846059951205L75.87332589285714,130.73076359699036L76.94196428571428,88.55274387240628L78.01060267857143,12.674503466221488L79.07924107142857,17.71898779402181L80.14787946428571,20.745678390699936L81.21651785714285,98.41883560586614L82.28515625,195.59415850638996L83.35379464285714,152.75649510383053L84.42243303571429,76.48246849086601L85.49107142857143,56.00376680880477L86.55970982142858,69.00226008528313L87.62834821428572,102.08707033688451L88.69698660714286,71.36652791641627L89.765625,78.21991674984984L90.83426339285714,107.61766433562427L91.90290178571429,74.68488431566023L92.97154017857143,80.21093058939616L94.04017857142857,32.95512978220908L95.10881696428571,105.74450644075404L96.17745535714286,22.98956100730955L97.24609375,125.0508794615286L98.31473214285714,161.0019562483457L99.38337053571428,132.00117374900745L100.45200892857142,38.74356139226163L101.52064732142857,134.50327969249986L102.58928571428571,141.3876821012142L103.65792410714286,120.23260926072854L104.7265625,56.96813698500853L105.79520089285715,69.58088219100513L106.86383928571429,102.43424360031736L107.93247767857143,96.86054616019042L109.00111607142857,93.51632769611429L110.06975446428572,91.50979661766857L111.13839285714286,90.30587797060114L112.20703125,114.86924106807497L113.27566964285714,154.89297321227357L114.34430803571428,52.478641070221315L115.41294642857143,-8.969958215010143L116.48158482142857,-20.55340350043466L117.55022321428571,73.63938647116781L118.61886160714285,155.44077473984353L119.6875,78.09303627247756L120.75613839285714,107.54153604920081L121.82477678571429,125.21063591523475L122.89341517857143,110.52638154914086L123.96205357142858,177.57297178662736L125.03069196428572,91.37235450054783L126.09933035714286,39.65198412890014L127.16796875,84.47690476305439L128.23660714285714,86.08614285783266L129.30524553571428,87.0516857146996L130.37388392857142,188.7738685716769L131.44252232142858,173.9500354287204L132.51116071428572,165.0557355429466L133.57979910714286,109.14772704005368L134.6484375,75.60292193831792L135.71707589285714,55.47603887727651L136.78571428571428,-32.45723381649119L137.85435267857142,-34.645768861323305L138.92299107142858,65.18396725463461L139.99162946428572,125.08180892420934L141.06026785714286,135.7347996402399L142.12890625,167.41230835557252L143.19754464285714,135.84738501334348L144.26618303571428,167.47985957943467L145.33482142857142,135.88791574766083L146.40345982142856,218.07560659145364L147.47209821428572,140.9596496691579L148.54073660714286,145.261504087209L149.609375,46.69975959518252L150.67801339285714,63.419855757109495L151.74665178571428,73.45191345426572L152.81529017857142,54.185433786845145L153.88392857142856,93.19697455782139L154.95256696428572,15.461041877549958L156.02120535714286,19.390910840815724L157.08984375,21.748832218775178L158.15848214285714,48.44929933126512L159.22712053571428,13.898151027330535L160.29575892857142,-6.8325379550302285L161.36439732142856,81.87190579841042L162.4330357142857,33.951714907617706L163.50167410714283,81.05674323028492L164.5703125,134.6054745095995L165.63895089285714,141.448998991474L166.70758928571428,145.5551136805987L167.77622767857142,148.0187824940735L168.84486607142858,124.21126949644412L169.91350446428572,34.06961884072364L170.98214285714286,30.55605701871991L172.05078125,28.447919925517684L173.11941964285717,103.04018052673919L174.1880580357143,147.79553688747208L175.25669642857144,124.07732213248329L176.32533482142858,109.84639327948996L177.39397321428572,76.02212168197971L178.46261160714286,55.72755872347357L179.53125,18.265106662655572L180.59988839285714,71.64477828330763L181.66852678571428,78.38686696998457L182.73716517857144,57.14640589627646L183.80580357142858,94.97355782348018L184.87444196428572,117.66984897980241L185.94308035714286,131.28762367359573L187.01171875,38.315431347014595L188.08035714285714,58.389258808208766L189.14899553571428,70.43355528492525L190.21763392857142,128.23156174238372L191.28627232142856,188.19607990257305L192.35491071428572,173.60336222725815L193.42354910714286,164.8477316220692L194.4921875,159.59435325895583L195.56082589285714,105.8708976696592L196.62946428571428,73.6368243160812L197.69810267857142,104.867808875363L198.76674107142856,73.03497103950353L199.8353794642857,79.2209826237021L200.90401785714283,82.93258957422127L201.97265625,85.15955374453273L203.04129464285714,61.21001796100536L204.10993303571428,72.12601077660322L205.17857142857142,129.24703503739053L206.24720982142858,112.94822102243432L207.31584821428572,52.59750404203201L208.38448660714286,92.24421671093351L209.453125,116.03224431227441L210.52176339285717,105.0193465873647L211.5904017857143,73.12589366670454L212.65904017857144,79.2755362000227L213.72767857142858,82.96532172001363L214.79631696428572,85.17919303200814L215.86495535714286,162.3646586763478L216.93359375,132.8187952058087L218.00223214285714,64.51984855205669L219.07087053571428,149.9690519883769L220.13950892857144,100.09571690731181L221.20814732142858,95.4574301443871L222.27678571428572,42.10302951520374L223.34542410714286,60.661817709122246L224.4140625,46.51137633975908L225.48270089285714,88.59254008956975L226.55133928571428,113.84123833945614L227.61997767857142,78.41902871795942L228.68861607142856,31.879988659347095L229.75725446428572,3.956564624179666L230.82589285714286,63.05965306022208L231.89453125,73.23579183613325L232.96316964285714,54.055760815965655L234.03180803571428,42.54774220386512L235.10044642857142,86.21435960803339L236.16908482142856,137.70004433624862L237.2377232142857,118.02002660174918L238.30636160714283,55.64058738962093L239.375,119.35578100520112L240.44363839285714,157.5848971745493L241.51227678571428,129.9509383047296L242.58091517857142,138.65627726855203L243.64955357142858,169.16519493255976L244.71819196428572,111.61340267382158L245.78683035714286,127.65375589000723L246.85546875,162.56368210543295L247.92410714285717,158.22392354897408L248.9927455357143,130.33435412938448L250.06138392857144,138.88632676334495L251.13002232142858,68.16036748657838L252.19866071428572,25.724791920518435L253.26729910714286,76.12058943802536L254.3359375,55.78663937710093L255.40457589285714,18.300555054831978L256.4732142857143,46.38033303289921L257.54185267857144,88.51391410545382L258.61049107142856,88.50834846327228L259.6791294642857,88.50500907796341L260.74776785714283,63.21729116106377L261.81640625,98.61608898235257L262.88504464285717,69.28393910369726L263.9536830357143,102.25607774793265L265.02232142857144,122.03936093447388L266.09095982142856,108.62361656068434L267.1595982142857,125.85988422212492L268.2282366071429,161.48735910470353L269.296875,157.5781297485364L270.36551339285717,104.66116356340756L271.4341517857143,47.62526956661596L272.50279017857144,38.68944745425529L273.57142857142856,58.61366847255318L274.6400669642857,45.28248679781763L275.70870535714283,62.56949207869058L276.77734375,98.22740953292862" style="fill: none;" fill="none"></path></g></g></g></g><g opacity="0.2"><g><g><g><path stroke="rgb(255, 112, 67)" stroke-width="2px" d="M22.44140625,308.8171188150134L23.510044642857142,71.50896630968366L24.578683035714285,88.5L25.647321428571427,151.71428571428572L26.715959821428573,-37.92857142857141L27.784598214285715,-37.92857142857141L28.853236607142858,151.71428571428572L29.921875,151.71428571428572L30.990513392857146,-37.92857142857141L32.059151785714285,88.5L33.12779017857143,278.1428571428571L34.19642857142857,88.5L35.265066964285715,-164.35714285714286L36.333705357142854,278.1428571428571L37.40234375,151.71428571428572L38.47098214285714,151.71428571428572L39.539620535714285,-101.14285714285714L42.745535714285715,214.92857142857142L43.81417410714286,88.5L44.8828125,25.285714285714295L45.951450892857146,151.71428571428572L47.020089285714285,25.285714285714295L48.08872767857143,25.285714285714295L49.15736607142857,151.71428571428572L50.22600446428571,-37.92857142857141L51.294642857142854,88.5L52.36328125,-37.92857142857141L53.431919642857146,151.71428571428572L54.500558035714285,88.5L55.56919642857143,-227.57142857142856L56.63783482142857,151.71428571428572L57.706473214285715,151.71428571428572L58.775111607142854,-37.92857142857141L59.84375,214.92857142857142L60.912388392857146,88.5L61.98102678571429,88.5L63.04966517857143,151.71428571428572L64.11830357142857,25.285714285714295L65.18694196428571,214.92857142857142L66.25558035714286,88.5L67.32421875,25.285714285714295L68.39285714285714,88.5L69.46149553571429,278.1428571428571L70.53013392857143,88.5L71.59877232142857,88.5L72.66741071428571,151.71428571428572L73.73604910714286,214.92857142857142L74.8046875,151.71428571428572L75.87332589285714,88.5L76.94196428571428,25.285714285714295L78.01060267857143,-101.14285714285714L79.07924107142857,25.285714285714295L80.14787946428571,25.285714285714295L81.21651785714285,214.92857142857142L82.28515625,341.3571428571429L83.35379464285714,88.5L84.42243303571429,-37.92857142857141L85.49107142857143,25.285714285714295L86.55970982142858,88.5L87.62834821428572,151.71428571428572L88.69698660714286,25.285714285714295L89.765625,88.5L90.83426339285714,151.71428571428572L91.90290178571429,25.285714285714295L92.97154017857143,88.5L94.04017857142857,-37.92857142857141L98.31473214285714,214.92857142857142L99.38337053571428,88.5L100.45200892857142,-101.14285714285714L101.52064732142857,278.1428571428571L102.58928571428571,151.71428571428572L103.65792410714286,88.5L104.7265625,-37.92857142857141L105.79520089285715,88.5L106.86383928571429,151.71428571428572L107.93247767857143,88.5L109.00111607142857,88.5L110.06975446428572,88.5L111.13839285714286,88.5L112.20703125,151.71428571428572L113.27566964285714,214.92857142857142L119.6875,-37.92857142857141L120.75613839285714,151.71428571428572L121.82477678571429,151.71428571428572L122.89341517857143,88.5L123.96205357142858,278.1428571428571L126.09933035714286,-37.92857142857141L127.16796875,151.71428571428572L128.23660714285714,88.5L129.30524553571428,88.5L130.37388392857142,341.3571428571429L131.44252232142858,151.71428571428572L132.51116071428572,151.71428571428572L133.57979910714286,25.285714285714295L134.6484375,25.285714285714295L135.71707589285714,25.285714285714295L136.78571428571428,-164.35714285714286L139.99162946428572,214.92857142857142L141.06026785714286,151.71428571428572L142.12890625,214.92857142857142L143.19754464285714,88.5L144.26618303571428,214.92857142857142L145.33482142857142,88.5L146.40345982142856,341.3571428571429L147.47209821428572,25.285714285714295L148.54073660714286,151.71428571428572L149.609375,-101.14285714285714L150.67801339285714,88.5L151.74665178571428,88.5L152.81529017857142,25.285714285714295L153.88392857142856,151.71428571428572L154.95256696428572,-101.14285714285714L156.02120535714286,25.285714285714295L157.08984375,25.285714285714295L158.15848214285714,88.5L159.22712053571428,-37.92857142857141L162.4330357142857,-37.92857142857141L163.50167410714283,151.71428571428572L164.5703125,214.92857142857142L165.63895089285714,151.71428571428572L166.70758928571428,151.71428571428572L167.77622767857142,151.71428571428572L168.84486607142858,88.5L169.91350446428572,-101.14285714285714L170.98214285714286,25.285714285714295L172.05078125,25.285714285714295L173.11941964285717,214.92857142857142L174.1880580357143,214.92857142857142L175.25669642857144,88.5L176.32533482142858,88.5L177.39397321428572,25.285714285714295L178.46261160714286,25.285714285714295L179.53125,-37.92857142857141L180.59988839285714,151.71428571428572L181.66852678571428,88.5L182.73716517857144,25.285714285714295L183.80580357142858,151.71428571428572L184.87444196428572,151.71428571428572L185.94308035714286,151.71428571428572L187.01171875,-101.14285714285714L188.08035714285714,88.5L189.14899553571428,88.5L190.21763392857142,214.92857142857142L191.28627232142856,278.1428571428571L192.35491071428572,151.71428571428572L193.42354910714286,151.71428571428572L194.4921875,151.71428571428572L195.56082589285714,25.285714285714295L196.62946428571428,25.285714285714295L197.69810267857142,151.71428571428572L198.76674107142856,25.285714285714295L199.8353794642857,88.5L200.90401785714283,88.5L201.97265625,88.5L203.04129464285714,25.285714285714295L204.10993303571428,88.5L205.17857142857142,214.92857142857142L206.24720982142858,88.5L207.31584821428572,-37.92857142857141L208.38448660714286,151.71428571428572L209.453125,151.71428571428572L210.52176339285717,88.5L211.5904017857143,25.285714285714295L212.65904017857144,88.5L213.72767857142858,88.5L214.79631696428572,88.5L215.86495535714286,278.1428571428571L216.93359375,88.5L218.00223214285714,-37.92857142857141L219.07087053571428,278.1428571428571L220.13950892857144,25.285714285714295L221.20814732142858,88.5L222.27678571428572,-37.92857142857141L223.34542410714286,88.5L224.4140625,25.285714285714295L225.48270089285714,151.71428571428572L226.55133928571428,151.71428571428572L227.61997767857142,25.285714285714295L228.68861607142856,-37.92857142857141L229.75725446428572,-37.92857142857141L230.82589285714286,151.71428571428572L231.89453125,88.5L232.96316964285714,25.285714285714295L234.03180803571428,25.285714285714295L235.10044642857142,151.71428571428572L236.16908482142856,214.92857142857142L237.2377232142857,88.5L238.30636160714283,-37.92857142857141L240.44363839285714,214.92857142857142L241.51227678571428,88.5L242.58091517857142,151.71428571428572L243.64955357142858,214.92857142857142L244.71819196428572,25.285714285714295L245.78683035714286,151.71428571428572L246.85546875,214.92857142857142L247.92410714285717,151.71428571428572L248.9927455357143,88.5L250.06138392857144,151.71428571428572L251.13002232142858,-37.92857142857141L252.19866071428572,-37.92857142857141L253.26729910714286,151.71428571428572L254.3359375,25.285714285714295L255.40457589285714,-37.92857142857141L256.4732142857143,88.5L257.54185267857144,151.71428571428572L258.61049107142856,88.5L259.6791294642857,88.5L260.74776785714283,25.285714285714295L261.81640625,151.71428571428572L262.88504464285717,25.285714285714295L263.9536830357143,151.71428571428572L265.02232142857144,151.71428571428572L266.09095982142856,88.5L267.1595982142857,151.71428571428572L268.2282366071429,214.92857142857142L269.296875,151.71428571428572L270.36551339285717,25.285714285714295L271.4341517857143,-37.92857142857141L272.50279017857144,25.285714285714295L273.57142857142856,88.5L274.6400669642857,25.285714285714295L275.70870535714283,88.5L276.77734375,151.71428571428572" style="fill: none;" fill="none"></path></g></g></g></g></g></g><g transform="translate(30, 177)" clip-path="url(#clip_1)"><clipPath id="clip_1"><rect width="299" height="23"></rect></clipPath><g><g><line x1="0" y1="0" x2="0" y2="5" style="visibility: inherit;" fill="rgb(0, 0, 0)" stroke="rgb(204, 204, 204)" stroke-width="1px"></line><line x1="21.372767857142858" y1="0" x2="21.372767857142858" y2="5" style="visibility: inherit;" fill="rgb(0, 0, 0)" stroke="rgb(204, 204, 204)" stroke-width="1px"></line><line x1="42.745535714285715" y1="0" x2="42.745535714285715" y2="5" style="visibility: inherit;" fill="rgb(0, 0, 0)" stroke="rgb(204, 204, 204)" stroke-width="1px"></line><line x1="64.11830357142857" y1="0" x2="64.11830357142857" y2="5" style="visibility: inherit;" fill="rgb(0, 0, 0)" stroke="rgb(204, 204, 204)" stroke-width="1px"></line><line x1="85.49107142857143" y1="0" x2="85.49107142857143" y2="5" style="visibility: inherit;" fill="rgb(0, 0, 0)" stroke="rgb(204, 204, 204)" stroke-width="1px"></line><line x1="106.86383928571429" y1="0" x2="106.86383928571429" y2="5" style="visibility: inherit;" fill="rgb(0, 0, 0)" stroke="rgb(204, 204, 204)" stroke-width="1px"></line><line x1="128.23660714285714" y1="0" x2="128.23660714285714" y2="5" style="visibility: inherit;" fill="rgb(0, 0, 0)" stroke="rgb(204, 204, 204)" stroke-width="1px"></line><line x1="149.609375" y1="0" x2="149.609375" y2="5" style="visibility: inherit;" fill="rgb(0, 0, 0)" stroke="rgb(204, 204, 204)" stroke-width="1px"></line><line x1="170.98214285714286" y1="0" x2="170.98214285714286" y2="5" style="visibility: inherit;" fill="rgb(0, 0, 0)" stroke="rgb(204, 204, 204)" stroke-width="1px"></line><line x1="192.35491071428572" y1="0" x2="192.35491071428572" y2="5" style="visibility: inherit;" fill="rgb(0, 0, 0)" stroke="rgb(204, 204, 204)" stroke-width="1px"></line><line x1="213.72767857142858" y1="0" x2="213.72767857142858" y2="5" style="visibility: inherit;" fill="rgb(0, 0, 0)" stroke="rgb(204, 204, 204)" stroke-width="1px"></line><line x1="235.10044642857142" y1="0" x2="235.10044642857142" y2="5" style="visibility: inherit;" fill="rgb(0, 0, 0)" stroke="rgb(204, 204, 204)" stroke-width="1px"></line><line x1="256.4732142857143" y1="0" x2="256.4732142857143" y2="5" style="visibility: inherit;" fill="rgb(0, 0, 0)" stroke="rgb(204, 204, 204)" stroke-width="1px"></line><line x1="277.84598214285717" y1="0" x2="277.84598214285717" y2="5" style="visibility: inherit;" fill="rgb(0, 0, 0)" stroke="rgb(204, 204, 204)" stroke-width="1px"></line><line x1="299.21875" y1="0" x2="299.21875" y2="5" style="visibility: inherit;" fill="rgb(0, 0, 0)" stroke="rgb(204, 204, 204)" stroke-width="1px"></line></g><g transform="translate(0, 8)"><text x="0" y="0" dx="0em" dy="0.95em" style="text-anchor: middle; visibility: hidden; font-family: Roboto, sans-serif; font-size: 12px; font-weight: 200;" fill="rgb(255, 255, 255)" stroke="none" stroke-width="1px">-20</text><text x="21.372767857142858" y="0" dx="0em" dy="0.95em" style="text-anchor: middle; visibility: inherit; font-family: Roboto, sans-serif; font-size: 12px; font-weight: 200;" fill="rgb(255, 255, 255)" stroke="none" stroke-width="1px">0</text><text x="42.745535714285715" y="0" dx="0em" dy="0.95em" style="text-anchor: middle; visibility: hidden; font-family: Roboto, sans-serif; font-size: 12px; font-weight: 200;" fill="rgb(255, 255, 255)" stroke="none" stroke-width="1px">20</text><text x="64.11830357142857" y="0" dx="0em" dy="0.95em" style="text-anchor: middle; visibility: inherit; font-family: Roboto, sans-serif; font-size: 12px; font-weight: 200;" fill="rgb(255, 255, 255)" stroke="none" stroke-width="1px">40</text><text x="85.49107142857143" y="0" dx="0em" dy="0.95em" style="text-anchor: middle; visibility: hidden; font-family: Roboto, sans-serif; font-size: 12px; font-weight: 200;" fill="rgb(255, 255, 255)" stroke="none" stroke-width="1px">60</text><text x="106.86383928571429" y="0" dx="0em" dy="0.95em" style="text-anchor: middle; visibility: inherit; font-family: Roboto, sans-serif; font-size: 12px; font-weight: 200;" fill="rgb(255, 255, 255)" stroke="none" stroke-width="1px">80</text><text x="128.23660714285714" y="0" dx="0em" dy="0.95em" style="text-anchor: middle; visibility: hidden; font-family: Roboto, sans-serif; font-size: 12px; font-weight: 200;" fill="rgb(255, 255, 255)" stroke="none" stroke-width="1px">100</text><text x="149.609375" y="0" dx="0em" dy="0.95em" style="text-anchor: middle; visibility: inherit; font-family: Roboto, sans-serif; font-size: 12px; font-weight: 200;" fill="rgb(255, 255, 255)" stroke="none" stroke-width="1px">120</text><text x="170.98214285714286" y="0" dx="0em" dy="0.95em" style="text-anchor: middle; visibility: hidden; font-family: Roboto, sans-serif; font-size: 12px; font-weight: 200;" fill="rgb(255, 255, 255)" stroke="none" stroke-width="1px">140</text><text x="192.35491071428572" y="0" dx="0em" dy="0.95em" style="text-anchor: middle; visibility: inherit; font-family: Roboto, sans-serif; font-size: 12px; font-weight: 200;" fill="rgb(255, 255, 255)" stroke="none" stroke-width="1px">160</text><text x="213.72767857142858" y="0" dx="0em" dy="0.95em" style="text-anchor: middle; visibility: hidden; font-family: Roboto, sans-serif; font-size: 12px; font-weight: 200;" fill="rgb(255, 255, 255)" stroke="none" stroke-width="1px">180</text><text x="235.10044642857142" y="0" dx="0em" dy="0.95em" style="text-anchor: middle; visibility: inherit; font-family: Roboto, sans-serif; font-size: 12px; font-weight: 200;" fill="rgb(255, 255, 255)" stroke="none" stroke-width="1px">200</text><text x="256.4732142857143" y="0" dx="0em" dy="0.95em" style="text-anchor: middle; visibility: hidden; font-family: Roboto, sans-serif; font-size: 12px; font-weight: 200;" fill="rgb(255, 255, 255)" stroke="none" stroke-width="1px">220</text><text x="277.84598214285717" y="0" dx="0em" dy="0.95em" style="text-anchor: middle; visibility: inherit; font-family: Roboto, sans-serif; font-size: 12px; font-weight: 200;" fill="rgb(255, 255, 255)" stroke="none" stroke-width="1px">240</text><text x="299.21875" y="0" dx="0em" dy="0.95em" style="text-anchor: middle; visibility: hidden; font-family: Roboto, sans-serif; font-size: 12px; font-weight: 200;" fill="rgb(255, 255, 255)" stroke="none" stroke-width="1px">260</text></g><line x1="0" y1="0" x2="299.21875" y2="0" fill="rgb(0, 0, 0)" stroke="rgb(204, 204, 204)" stroke-width="1px"></line></g></g></g></g></svg>