<svg viewBox="0 0 330 200" xmlns="http://www.w3.org/2000/svg"><g><g><g><g><g><line x1="51.5625" y1="177" x2="46.5625" y2="177" style="visibility: inherit;" fill="rgb(0, 0, 0)" stroke="rgb(204, 204, 204)" stroke-width="1px"></line><line x1="51.5625" y1="160.90909090909088" x2="46.5625" y2="160.90909090909088" style="visibility: inherit;" fill="rgb(0, 0, 0)" stroke="rgb(204, 204, 204)" stroke-width="1px"></line><line x1="51.5625" y1="144.81818181818178" x2="46.5625" y2="144.81818181818178" style="visibility: inherit;" fill="rgb(0, 0, 0)" stroke="rgb(204, 204, 204)" stroke-width="1px"></line><line x1="51.5625" y1="128.72727272727278" x2="46.5625" y2="128.72727272727278" style="visibility: inherit;" fill="rgb(0, 0, 0)" stroke="rgb(204, 204, 204)" stroke-width="1px"></line><line x1="51.5625" y1="112.63636363636365" x2="46.5625" y2="112.63636363636365" style="visibility: inherit;" fill="rgb(0, 0, 0)" stroke="rgb(204, 204, 204)" stroke-width="1px"></line><line x1="51.5625" y1="96.54545454545456" x2="46.5625" y2="96.54545454545456" style="visibility: inherit;" fill="rgb(0, 0, 0)" stroke="rgb(204, 204, 204)" stroke-width="1px"></line><line x1="51.5625" y1="80.45454545454544" x2="46.5625" y2="80.45454545454544" style="visibility: inherit;" fill="rgb(0, 0, 0)" stroke="rgb(204, 204, 204)" stroke-width="1px"></line><line x1="51.5625" y1="64.36363636363635" x2="46.5625" y2="64.36363636363635" style="visibility: inherit;" fill="rgb(0, 0, 0)" stroke="rgb(204, 204, 204)" stroke-width="1px"></line><line x1="51.5625" y1="48.27272727272723" x2="46.5625" y2="48.27272727272723" style="visibility: inherit;" fill="rgb(0, 0, 0)" stroke="rgb(204, 204, 204)" stroke-width="1px"></line><line x1="51.5625" y1="32.181818181818215" x2="46.5625" y2="32.181818181818215" style="visibility: inherit;" fill="rgb(0, 0, 0)" stroke="rgb(204, 204, 204)" stroke-width="1px"></line><line x1="51.5625" y1="16.090909090909115" x2="46.5625" y2="16.090909090909115" style="visibility: inherit;" fill="rgb(0, 0, 0)" stroke="rgb(204, 204, 204)" stroke-width="1px"></line><line x1="51.5625" y1="0" x2="46.5625" y2="0" style="visibility: inherit;" fill="rgb(0, 0, 0)" stroke="rgb(204, 204, 204)" stroke-width="1px"></line></g><g transform="translate(41.5625, 0)"><text x="0" y="177" dx="0em" dy="0.3em" style="text-anchor: end; visibility: hidden; font-family: Roboto, sans-serif; font-size: 12px; font-weight: 200;" fill="rgb(255, 255, 255)" stroke="none" stroke-width="1px">0.64</text><text x="0" y="160.90909090909088" dx="0em" dy="0.3em" style="text-anchor: end; visibility: inherit; font-family: Roboto, sans-serif; font-size: 12px; font-weight: 200;" fill="rgb(255, 255, 255)" stroke="none" stroke-width="1px">0.66</text><text x="0" y="144.81818181818178" dx="0em" dy="0.3em" style="text-anchor: end; visibility: hidden; font-family: Roboto, sans-serif; font-size: 12px; font-weight: 200;" fill="rgb(255, 255, 255)" stroke="none" stroke-width="1px">0.68</text><text x="0" y="128.72727272727278" dx="0em" dy="0.3em" style="text-anchor: end; visibility: inherit; font-family: Roboto, sans-serif; font-size: 12px; font-weight: 200;" fill="rgb(255, 255, 255)" stroke="none" stroke-width="1px">0.7</text><text x="0" y="112.63636363636365" dx="0em" dy="0.3em" style="text-anchor: end; visibility: hidden; font-family: Roboto, sans-serif; font-size: 12px; font-weight: 200;" fill="rgb(255, 255, 255)" stroke="none" stroke-width="1px">0.72</text><text x="0" y="96.54545454545456" dx="0em" dy="0.3em" style="text-anchor: end; visibility: inherit; font-family: Roboto, sans-serif; font-size: 12px; font-weight: 200;" fill="rgb(255, 255, 255)" stroke="none" stroke-width="1px">0.74</text><text x="0" y="80.45454545454544" dx="0em" dy="0.3em" style="text-anchor: end; visibility: hidden; font-family: Roboto, sans-serif; font-size: 12px; font-weight: 200;" fill="rgb(255, 255, 255)" stroke="none" stroke-width="1px">0.76</text><text x="0" y="64.36363636363635" dx="0em" dy="0.3em" style="text-anchor: end; visibility: inherit; font-family: Roboto, sans-serif; font-size: 12px; font-weight: 200;" fill="rgb(255, 255, 255)" stroke="none" stroke-width="1px">0.78</text><text x="0" y="48.27272727272723" dx="0em" dy="0.3em" style="text-anchor: end; visibility: hidden; font-family: Roboto, sans-serif; font-size: 12px; font-weight: 200;" fill="rgb(255, 255, 255)" stroke="none" stroke-width="1px">0.8</text><text x="0" y="32.181818181818215" dx="0em" dy="0.3em" style="text-anchor: end; visibility: inherit; font-family: Roboto, sans-serif; font-size: 12px; font-weight: 200;" fill="rgb(255, 255, 255)" stroke="none" stroke-width="1px">0.82</text><text x="0" y="16.090909090909115" dx="0em" dy="0.3em" style="text-anchor: end; visibility: hidden; font-family: Roboto, sans-serif; font-size: 12px; font-weight: 200;" fill="rgb(255, 255, 255)" stroke="none" stroke-width="1px">0.84</text><text x="0" y="0" dx="0em" dy="0.3em" style="text-anchor: end; visibility: hidden; font-family: Roboto, sans-serif; font-size: 12px; font-weight: 200;" fill="rgb(255, 255, 255)" stroke="none" stroke-width="1px">0.86</text></g><line x1="51.5625" y1="0" x2="51.5625" y2="177" fill="rgb(0, 0, 0)" stroke="rgb(204, 204, 204)" stroke-width="1px"></line></g></g><g transform="translate(51, 0)" clip-path="url(#clip_0)"><clipPath id="clip_0"><rect width="278" height="177"></rect></clipPath><g><g><g><line x1="0" y1="0" x2="0" y2="177" fill="rgb(0, 0, 0)" stroke="rgb(189, 189, 189)" stroke-width="1px" opacity="0.25"></line><line x1="27.84375" y1="0" x2="27.84375" y2="177" fill="rgb(0, 0, 0)" stroke="rgb(189, 189, 189)" stroke-width="1px" opacity="0.25"></line><line x1="55.6875" y1="0" x2="55.6875" y2="177" fill="rgb(0, 0, 0)" stroke="rgb(189, 189, 189)" stroke-width="1px" opacity="0.25"></line><line x1="83.53125" y1="0" x2="83.53125" y2="177" fill="rgb(0, 0, 0)" stroke="rgb(189, 189, 189)" stroke-width="1px" opacity="0.25"></line><line x1="111.375" y1="0" x2="111.375" y2="177" fill="rgb(0, 0, 0)" stroke="rgb(189, 189, 189)" stroke-width="1px" opacity="0.25"></line><line x1="139.21875" y1="0" x2="139.21875" y2="177" fill="rgb(0, 0, 0)" stroke="rgb(189, 189, 189)" stroke-width="1px" opacity="0.25"></line><line x1="167.0625" y1="0" x2="167.0625" y2="177" fill="rgb(0, 0, 0)" stroke="rgb(189, 189, 189)" stroke-width="1px" opacity="0.25"></line><line x1="194.90625" y1="0" x2="194.90625" y2="177" fill="rgb(0, 0, 0)" stroke="rgb(189, 189, 189)" stroke-width="1px" opacity="0.25"></line><line x1="222.75" y1="0" x2="222.75" y2="177" fill="rgb(0, 0, 0)" stroke="rgb(189, 189, 189)" stroke-width="1px" opacity="0.25"></line><line x1="250.59375" y1="0" x2="250.59375" y2="177" fill="rgb(0, 0, 0)" stroke="rgb(189, 189, 189)" stroke-width="1px" opacity="0.25"></line><line x1="278.4375" y1="0" x2="278.4375" y2="177" fill="rgb(0, 0, 0)" stroke="rgb(189, 189, 189)" stroke-width="1px" opacity="0.25"></line></g><g><line x1="0" y1="177" x2="278.4375" y2="177" fill="rgb(0, 0, 0)" stroke="rgb(189, 189, 189)" stroke-width="1px" opacity="0.25"></line><line x1="0" y1="160.90909090909088" x2="278.4375" y2="160.90909090909088" fill="rgb(0, 0, 0)" stroke="rgb(189, 189, 189)" stroke-width="1px" opacity="0.25"></line><line x1="0" y1="144.81818181818178" x2="278.4375" y2="144.81818181818178" fill="rgb(0, 0, 0)" stroke="rgb(189, 189, 189)" stroke-width="1px" opacity="0.25"></line><line x1="0" y1="128.72727272727278" x2="278.4375" y2="128.72727272727278" fill="rgb(0, 0, 0)" stroke="rgb(189, 189, 189)" stroke-width="1px" opacity="0.25"></line><line x1="0" y1="112.63636363636365" x2="278.4375" y2="112.63636363636365" fill="rgb(0, 0, 0)" stroke="rgb(189, 189, 189)" stroke-width="1px" opacity="0.25"></line><line x1="0" y1="96.54545454545456" x2="278.4375" y2="96.54545454545456" fill="rgb(0, 0, 0)" stroke="rgb(189, 189, 189)" stroke-width="1px" opacity="0.25"></line><line x1="0" y1="80.45454545454544" x2="278.4375" y2="80.45454545454544" fill="rgb(0, 0, 0)" stroke="rgb(189, 189, 189)" stroke-width="1px" opacity="0.25"></line><line x1="0" y1="64.36363636363635" x2="278.4375" y2="64.36363636363635" fill="rgb(0, 0, 0)" stroke="rgb(189, 189, 189)" stroke-width="1px" opacity="0.25"></line><line x1="0" y1="48.27272727272723" x2="278.4375" y2="48.27272727272723" fill="rgb(0, 0, 0)" stroke="rgb(189, 189, 189)" stroke-width="1px" opacity="0.25"></line><line x1="0" y1="32.181818181818215" x2="278.4375" y2="32.181818181818215" fill="rgb(0, 0, 0)" stroke="rgb(189, 189, 189)" stroke-width="1px" opacity="0.25"></line><line x1="0" y1="16.090909090909115" x2="278.4375" y2="16.090909090909115" fill="rgb(0, 0, 0)" stroke="rgb(189, 189, 189)" stroke-width="1px" opacity="0.25"></line><line x1="0" y1="0" x2="278.4375" y2="0" fill="rgb(0, 0, 0)" stroke="rgb(189, 189, 189)" stroke-width="1px" opacity="0.25"></line></g></g></g><g><g><line x1="0" y1="691.909090909091" x2="278.4375" y2="691.909090909091" fill="rgb(0, 0, 0)" stroke="rgb(153, 153, 153)" stroke-width="1.5px"></line></g></g><g><g><line x1="27.84375" y1="0" x2="27.84375" y2="177" fill="rgb(0, 0, 0)" stroke="rgb(153, 153, 153)" stroke-width="1.5px"></line></g></g><g><g><g><g><g><path stroke="rgb(0, 119, 187)" stroke-width="2px" d="M29.2359375,-89.86977554993197L30.628125,18.674036559014695L32.0203125,-387.7774357422787L34.8046875,-81.94587471747839L36.196875,95.5326399284685L37.589062500000004,113.33270095976373L38.98125,51.80463388065709L40.373437499999994,-116.98302965727869L41.765625,-21.328340622608472L43.1578125,40.35619000944515L44.550000000000004,83.42744779022985L45.9421875,107.22742348999624L47.334375,62.79274759753642L48.7265625,34.656845284204465L50.11875,77.18773633273786L51.5109375,95.26049467656809L52.903125,116.08691577481765L54.2953125,102.75453855822182L55.6875,116.7050924722735L57.0796875,5.468801935667985L58.471875,60.044835603408416L59.864062499999996,90.95116811717041L61.25625,110.97224565278238L62.6484375,127.2215984027071L64.040625,130.4102035654861L65.4328125,159.9008324353253L66.825,114.09298032105073L68.2171875,176.30832825609474L69.609375,13.869034766812522L71.0015625,41.00390995692317L72.39375,102.65115863268204L73.7859375,123.4842182471486L75.17812500000001,177.03846798332256L76.5703125,73.96371619693792L77.9625,34.5984119063724L79.3546875,51.92171713990677L80.74687499999999,84.64252029367199L82.1390625,104.37568771420173L83.53125,115.61747862209003L84.92343749999999,122.34438794112992L86.315625,133.31293388912317L87.7078125,129.61565444394657L89.10000000000001,123.19837797096683L90.4921875,127.82491650205141L91.884375,17.28286015044572L93.27656250000001,64.71439082163329L94.66875,91.16178445966295L96.0609375,106.92216923383077L97.453125,111.44271611086866L98.84531249999999,121.76749901993233L100.2375,126.57195257667539L101.6296875,131.80256090747903L103.021875,127.59333422403908L104.4140625,131.99714865513192L105.80625,120.60957670889022L107.1984375,131.12978666018444L108.590625,133.5467677348859L109.98281250000001,139.67681192145633L111.375,135.4659922527424L112.7671875,120.92885653581742L114.159375,121.72064260378306L115.55156249999999,129.2746448175924L116.94375,134.55366162075228L118.3359375,138.01700941419062L119.72812499999999,105.219579768533L121.1203125,130.3612988859903L122.5125,133.1288342517907L123.90468750000001,144.84592428892978L125.296875,143.96790090798868L126.6890625,143.9153775104581L128.08125,123.58955318394403L129.47343750000002,126.19550944745225L130.865625,136.51331892835913L132.2578125,139.45943163064717L133.65,141.6382048414532L135.04218749999998,151.49173478186245L136.434375,143.1329720902992L137.8265625,130.03081560662704L139.21875,129.87262996209995L140.6109375,133.81292940156385L142.003125,112.68316888524399L143.39531250000002,133.01663871507557L144.7875,134.59204269480045L146.1796875,128.02144932061145L147.571875,133.7818719172515L148.9640625,138.63103530550225L150.35625000000002,139.4893213094291L151.74843750000002,136.97455673971606L153.140625,154.42995740562532L154.5328125,158.1618103945734L155.925,158.98562712891157L157.3171875,128.39880389606725L158.709375,128.4594525711067L160.1015625,140.26611782409714L161.49374999999998,138.74548056682545L162.88593749999998,139.60128192065332L164.278125,137.88736533443492L165.6703125,139.05927045156957L167.0625,138.72615198499201L168.4546875,142.85211606798853L169.84687499999998,169.18050808676864L171.2390625,69.45685348546321L172.63125,79.6836888367447L174.0234375,98.34961014292259L175.415625,117.08049763024816L176.8078125,127.90621734781192L178.20000000000002,129.40320215027677L179.5921875,118.88749673117975L180.984375,117.42970256352832L182.3765625,142.860201865862L183.76875,131.63984491688188L185.16093750000002,116.4554901127836L186.55312500000002,147.43039602395095L187.9453125,150.17636117172137L189.3375,138.5852545874503L190.7296875,146.76110627731978L192.121875,153.235252126398L193.5140625,158.02702235675758L194.90625,138.81419371825243L196.29843749999998,133.76785467314699L197.69062499999998,117.22842690984102L199.0828125,124.91438763685477L200.475,126.510806113385L201.8671875,127.43495467407767L203.259375,129.25943629207168L204.65156249999998,133.7335658956016L206.04375,152.97699393019298L207.4359375,104.99679518669166L208.828125,114.03010244056449L210.2203125,121.04912487362382L211.6125,130.4559830473987L213.00468750000002,111.9528236742367L214.396875,132.6471026415773L215.7890625,137.7561300604269L217.18125,113.05828092366986L218.5734375,110.70507476577751L219.96562500000002,107.35733710221025L221.35781250000002,92.86905415026015L222.75,116.43624894339624L224.1421875,127.59543647641839L225.534375,128.85047522296907L226.9265625,143.31323304079584L228.31875,149.35330547274722L229.7109375,172.5194810061007L231.10312499999998,176.22084439294903L232.49531249999998,35.948862774519014L233.8875,109.67394810464307L235.2796875,148.10349476392142L236.671875,143.25982860901445L238.0640625,140.27663293641456L239.45624999999998,133.66454978356478L240.8484375,161.79806321277775L242.240625,148.02239652523133L243.6328125,138.24253124569552L245.025,148.0686715366199L246.4171875,127.52089789097577L247.80937500000002,131.283702904764L249.2015625,138.82894191105885" style="fill: none;" fill="none"></path></g></g></g></g><g opacity="0.2"><g><g><g><path stroke="rgb(0, 119, 187)" stroke-width="2px" d="M29.2359375,-45.7351246963848L30.628125,122.87609618360347L32.0203125,-865.7643671686L33.4125,117.97076748717915L34.8046875,37.68035160411488L36.196875,349.3297555284067L37.589062500000004,139.2853608239781L38.98125,-38.937313849275775L40.373437499999994,-367.61303882165396L41.765625,121.28611194003712L43.1578125,132.54730146581477L44.550000000000004,147.89369933171707L45.9421875,142.88076040961525L47.334375,-3.8070349476554215L48.7265625,-7.527164567600618L50.11875,140.96607525782153L51.5109375,122.36504352092743L52.903125,147.32337472655556L54.2953125,82.75719136541541L55.6875,137.63015826181933L57.0796875,-161.38197359171784L58.471875,141.90780859643763L59.864062499999996,137.31030077284032L61.25625,141.00371965495023L62.6484375,151.59555823152715L64.040625,135.19310315088794L65.4328125,204.13673046502203L66.825,45.381244345144786L68.2171875,269.6313157731837L69.609375,-229.78985160047364L71.0015625,81.70621734315698L72.39375,195.12202428687704L73.7859375,154.7338061766191L75.17812500000001,257.3698402859948L77.9625,-24.449543920430294L79.3546875,77.90667482939634L80.74687499999999,133.72372484207153L82.1390625,133.97543877905065L83.53125,132.4801649613814L84.92343749999999,132.4347519115968L86.315625,149.76575280319562L87.7078125,124.06973527778278L89.10000000000001,113.57246326316486L90.4921875,134.764724297957L91.884375,-148.53022436662158L93.27656250000001,135.86168682575226L94.66875,130.83287491581657L96.0609375,130.5627463947643L97.453125,118.2235364263708L98.84531249999999,137.25467338345268L100.2375,133.77863291176885L101.6296875,139.64847340367058L103.021875,121.27949419888584L104.4140625,138.60287030176684L105.80625,103.52821878953412L107.1984375,146.91010158712214L108.590625,137.17223934693772L109.98281250000001,148.8718782013113L111.375,129.14976274967194L112.7671875,99.12315296043049L114.159375,122.90832170573148L115.55156249999999,140.60564813830635L116.94375,142.47218682549217L118.3359375,143.21203110434791L119.72812499999999,56.023435300046735L121.1203125,168.0738775621761L122.5125,137.28013730049133L123.90468750000001,162.4215593446385L125.296875,142.650865836577L126.6890625,143.83659241416237L128.08125,93.10081669417295L129.47343750000002,130.1044438427145L130.865625,151.99003314971924L132.2578125,143.87860068407926L133.65,144.90636465766212L135.04218749999998,166.27202969247645L136.434375,130.59482805295423L137.8265625,110.37758088111877L139.21875,129.63535149530932L140.6109375,139.7233785607598L142.003125,80.98852811076425L143.39531250000002,163.51684345982292L144.7875,136.9551486643878L146.1796875,118.16555925932798L147.571875,142.42250581221148L148.9640625,145.90478038787842L150.35625000000002,140.77675031531942L151.74843750000002,133.2024098851464L153.140625,180.613058404489L154.5328125,163.75958987799558L155.925,160.22135223041883L157.3171875,82.51856904680078L158.709375,128.55042558366603L160.1015625,157.97611570358276L161.49374999999998,136.46452468091792L162.88593749999998,140.8849839513952L164.278125,135.31649045510727L165.6703125,140.81712812727147L167.0625,138.22647428512573L168.4546875,149.0410621924834L169.84687499999998,208.67309611493891L171.2390625,-80.12862841649492L172.63125,95.02394186366688L174.0234375,126.34849210218951L175.415625,145.17682886123657L176.8078125,144.1447969241576L178.20000000000002,131.64867935397407L179.5921875,103.11393860253422L180.984375,115.24301131205127L182.3765625,181.0059508193623L183.76875,114.80930949341169L185.16093750000002,93.67895790663633L186.55312500000002,193.89275489070198L187.9453125,154.29530889337713L189.3375,121.19859471104361L190.7296875,159.02488381212407L192.121875,162.9464709000154L193.5140625,165.21467770229688L194.90625,109.99495076049458L196.29843749999998,126.19834610548887L197.69062499999998,92.41928526488218L199.0828125,136.4433287273754L200.475,128.9054338281805L201.8671875,128.82117751511663L203.259375,131.9961587190628L204.65156249999998,140.44476030089638L206.04375,181.84213598207995L207.4359375,33.02649707143956L208.828125,127.58006332137369L210.2203125,131.5776585232128L211.6125,144.5662703080611L213.00468750000002,84.19808461449362L214.396875,163.68852109258825L215.7890625,145.4196711887013L217.18125,76.01150721853429L218.5734375,107.175265528939L219.96562500000002,102.33573060685939L221.35781250000002,71.13662972233512L222.75,151.78704113310033L224.1421875,144.33421777595174L225.534375,130.73303334279493L226.9265625,165.00736976753583L228.31875,158.41341412067413L229.7109375,207.26874430613086L235.2796875,205.74781475283882L236.671875,135.9943293766542L238.0640625,135.80183942751452L239.45624999999998,123.74642505429007L240.8484375,203.99833335659724L242.240625,127.35889649391174L243.6328125,123.57273332639173L245.025,162.80788197300652L246.4171875,96.69923742250964L247.80937500000002,136.92791042544624L249.2015625,150.14680042050102" style="fill: none;" fill="none"></path></g></g></g></g></g></g><g transform="translate(51, 177)" clip-path="url(#clip_1)"><clipPath id="clip_1"><rect width="278" height="23"></rect></clipPath><g><g><line x1="0" y1="0" x2="0" y2="5" style="visibility: inherit;" fill="rgb(0, 0, 0)" stroke="rgb(204, 204, 204)" stroke-width="1px"></line><line x1="27.84375" y1="0" x2="27.84375" y2="5" style="visibility: inherit;" fill="rgb(0, 0, 0)" stroke="rgb(204, 204, 204)" stroke-width="1px"></line><line x1="55.6875" y1="0" x2="55.6875" y2="5" style="visibility: inherit;" fill="rgb(0, 0, 0)" stroke="rgb(204, 204, 204)" stroke-width="1px"></line><line x1="83.53125" y1="0" x2="83.53125" y2="5" style="visibility: inherit;" fill="rgb(0, 0, 0)" stroke="rgb(204, 204, 204)" stroke-width="1px"></line><line x1="111.375" y1="0" x2="111.375" y2="5" style="visibility: inherit;" fill="rgb(0, 0, 0)" stroke="rgb(204, 204, 204)" stroke-width="1px"></line><line x1="139.21875" y1="0" x2="139.21875" y2="5" style="visibility: inherit;" fill="rgb(0, 0, 0)" stroke="rgb(204, 204, 204)" stroke-width="1px"></line><line x1="167.0625" y1="0" x2="167.0625" y2="5" style="visibility: inherit;" fill="rgb(0, 0, 0)" stroke="rgb(204, 204, 204)" stroke-width="1px"></line><line x1="194.90625" y1="0" x2="194.90625" y2="5" style="visibility: inherit;" fill="rgb(0, 0, 0)" stroke="rgb(204, 204, 204)" stroke-width="1px"></line><line x1="222.75" y1="0" x2="222.75" y2="5" style="visibility: inherit;" fill="rgb(0, 0, 0)" stroke="rgb(204, 204, 204)" stroke-width="1px"></line><line x1="250.59375" y1="0" x2="250.59375" y2="5" style="visibility: inherit;" fill="rgb(0, 0, 0)" stroke="rgb(204, 204, 204)" stroke-width="1px"></line><line x1="278.4375" y1="0" x2="278.4375" y2="5" style="visibility: inherit;" fill="rgb(0, 0, 0)" stroke="rgb(204, 204, 204)" stroke-width="1px"></line></g><g transform="translate(0, 8)"><text x="0" y="0" dx="0em" dy="0.95em" style="text-anchor: middle; visibility: hidden; font-family: Roboto, sans-serif; font-size: 12px; font-weight: 200;" fill="rgb(255, 255, 255)" stroke="none" stroke-width="1px">-20</text><text x="27.84375" y="0" dx="0em" dy="0.95em" style="text-anchor: middle; visibility: inherit; font-family: Roboto, sans-serif; font-size: 12px; font-weight: 200;" fill="rgb(255, 255, 255)" stroke="none" stroke-width="1px">0</text><text x="55.6875" y="0" dx="0em" dy="0.95em" style="text-anchor: middle; visibility: inherit; font-family: Roboto, sans-serif; font-size: 12px; font-weight: 200;" fill="rgb(255, 255, 255)" stroke="none" stroke-width="1px">20</text><text x="83.53125" y="0" dx="0em" dy="0.95em" style="text-anchor: middle; visibility: inherit; font-family: Roboto, sans-serif; font-size: 12px; font-weight: 200;" fill="rgb(255, 255, 255)" stroke="none" stroke-width="1px">40</text><text x="111.375" y="0" dx="0em" dy="0.95em" style="text-anchor: middle; visibility: inherit; font-family: Roboto, sans-serif; font-size: 12px; font-weight: 200;" fill="rgb(255, 255, 255)" stroke="none" stroke-width="1px">60</text><text x="139.21875" y="0" dx="0em" dy="0.95em" style="text-anchor: middle; visibility: inherit; font-family: Roboto, sans-serif; font-size: 12px; font-weight: 200;" fill="rgb(255, 255, 255)" stroke="none" stroke-width="1px">80</text><text x="167.0625" y="0" dx="0em" dy="0.95em" style="text-anchor: middle; visibility: inherit; font-family: Roboto, sans-serif; font-size: 12px; font-weight: 200;" fill="rgb(255, 255, 255)" stroke="none" stroke-width="1px">100</text><text x="194.90625" y="0" dx="0em" dy="0.95em" style="text-anchor: middle; visibility: inherit; font-family: Roboto, sans-serif; font-size: 12px; font-weight: 200;" fill="rgb(255, 255, 255)" stroke="none" stroke-width="1px">120</text><text x="222.75" y="0" dx="0em" dy="0.95em" style="text-anchor: middle; visibility: inherit; font-family: Roboto, sans-serif; font-size: 12px; font-weight: 200;" fill="rgb(255, 255, 255)" stroke="none" stroke-width="1px">140</text><text x="250.59375" y="0" dx="0em" dy="0.95em" style="text-anchor: middle; visibility: inherit; font-family: Roboto, sans-serif; font-size: 12px; font-weight: 200;" fill="rgb(255, 255, 255)" stroke="none" stroke-width="1px">160</text><text x="278.4375" y="0" dx="0em" dy="0.95em" style="text-anchor: middle; visibility: hidden; font-family: Roboto, sans-serif; font-size: 12px; font-weight: 200;" fill="rgb(255, 255, 255)" stroke="none" stroke-width="1px">180</text></g><line x1="0" y1="0" x2="278.4375" y2="0" fill="rgb(0, 0, 0)" stroke="rgb(204, 204, 204)" stroke-width="1px"></line></g></g></g></g></svg>