<svg viewBox="0 0 330 200" xmlns="http://www.w3.org/2000/svg"><g><g><g><g><g><line x1="30.78125" y1="177" x2="25.78125" y2="177" style="visibility: inherit;" fill="rgb(0, 0, 0)" stroke="rgb(204, 204, 204)" stroke-width="1px"></line><line x1="30.78125" y1="157.33333333333331" x2="25.78125" y2="157.33333333333331" style="visibility: inherit;" fill="rgb(0, 0, 0)" stroke="rgb(204, 204, 204)" stroke-width="1px"></line><line x1="30.78125" y1="137.66666666666666" x2="25.78125" y2="137.66666666666666" style="visibility: inherit;" fill="rgb(0, 0, 0)" stroke="rgb(204, 204, 204)" stroke-width="1px"></line><line x1="30.78125" y1="118.00000000000001" x2="25.78125" y2="118.00000000000001" style="visibility: inherit;" fill="rgb(0, 0, 0)" stroke="rgb(204, 204, 204)" stroke-width="1px"></line><line x1="30.78125" y1="98.33333333333334" x2="25.78125" y2="98.33333333333334" style="visibility: inherit;" fill="rgb(0, 0, 0)" stroke="rgb(204, 204, 204)" stroke-width="1px"></line><line x1="30.78125" y1="78.66666666666666" x2="25.78125" y2="78.66666666666666" style="visibility: inherit;" fill="rgb(0, 0, 0)" stroke="rgb(204, 204, 204)" stroke-width="1px"></line><line x1="30.78125" y1="59.00000000000001" x2="25.78125" y2="59.00000000000001" style="visibility: inherit;" fill="rgb(0, 0, 0)" stroke="rgb(204, 204, 204)" stroke-width="1px"></line><line x1="30.78125" y1="39.33333333333333" x2="25.78125" y2="39.33333333333333" style="visibility: inherit;" fill="rgb(0, 0, 0)" stroke="rgb(204, 204, 204)" stroke-width="1px"></line><line x1="30.78125" y1="19.666666666666675" x2="25.78125" y2="19.666666666666675" style="visibility: inherit;" fill="rgb(0, 0, 0)" stroke="rgb(204, 204, 204)" stroke-width="1px"></line><line x1="30.78125" y1="0" x2="25.78125" y2="0" style="visibility: inherit;" fill="rgb(0, 0, 0)" stroke="rgb(204, 204, 204)" stroke-width="1px"></line></g><g transform="translate(20.78125, 0)"><text x="0" y="177" dx="0em" dy="0.3em" style="text-anchor: end; visibility: hidden; font-family: Roboto, sans-serif; font-size: 12px; font-weight: 200;" fill="rgb(255, 255, 255)" stroke="none" stroke-width="1px">42</text><text x="0" y="157.33333333333331" dx="0em" dy="0.3em" style="text-anchor: end; visibility: inherit; font-family: Roboto, sans-serif; font-size: 12px; font-weight: 200;" fill="rgb(255, 255, 255)" stroke="none" stroke-width="1px">44</text><text x="0" y="137.66666666666666" dx="0em" dy="0.3em" style="text-anchor: end; visibility: hidden; font-family: Roboto, sans-serif; font-size: 12px; font-weight: 200;" fill="rgb(255, 255, 255)" stroke="none" stroke-width="1px">46</text><text x="0" y="118.00000000000001" dx="0em" dy="0.3em" style="text-anchor: end; visibility: inherit; font-family: Roboto, sans-serif; font-size: 12px; font-weight: 200;" fill="rgb(255, 255, 255)" stroke="none" stroke-width="1px">48</text><text x="0" y="98.33333333333334" dx="0em" dy="0.3em" style="text-anchor: end; visibility: hidden; font-family: Roboto, sans-serif; font-size: 12px; font-weight: 200;" fill="rgb(255, 255, 255)" stroke="none" stroke-width="1px">50</text><text x="0" y="78.66666666666666" dx="0em" dy="0.3em" style="text-anchor: end; visibility: inherit; font-family: Roboto, sans-serif; font-size: 12px; font-weight: 200;" fill="rgb(255, 255, 255)" stroke="none" stroke-width="1px">52</text><text x="0" y="59.00000000000001" dx="0em" dy="0.3em" style="text-anchor: end; visibility: hidden; font-family: Roboto, sans-serif; font-size: 12px; font-weight: 200;" fill="rgb(255, 255, 255)" stroke="none" stroke-width="1px">54</text><text x="0" y="39.33333333333333" dx="0em" dy="0.3em" style="text-anchor: end; visibility: inherit; font-family: Roboto, sans-serif; font-size: 12px; font-weight: 200;" fill="rgb(255, 255, 255)" stroke="none" stroke-width="1px">56</text><text x="0" y="19.666666666666675" dx="0em" dy="0.3em" style="text-anchor: end; visibility: hidden; font-family: Roboto, sans-serif; font-size: 12px; font-weight: 200;" fill="rgb(255, 255, 255)" stroke="none" stroke-width="1px">58</text><text x="0" y="0" dx="0em" dy="0.3em" style="text-anchor: end; visibility: hidden; font-family: Roboto, sans-serif; font-size: 12px; font-weight: 200;" fill="rgb(255, 255, 255)" stroke="none" stroke-width="1px">60</text></g><line x1="30.78125" y1="0" x2="30.78125" y2="177" fill="rgb(0, 0, 0)" stroke="rgb(204, 204, 204)" stroke-width="1px"></line></g></g><g transform="translate(30, 0)" clip-path="url(#clip_0)"><clipPath id="clip_0"><rect width="299" height="177"></rect></clipPath><g><g><g><line x1="0" y1="0" x2="0" y2="177" fill="rgb(0, 0, 0)" stroke="rgb(189, 189, 189)" stroke-width="1px" opacity="0.25"></line><line x1="29.921875" y1="0" x2="29.921875" y2="177" fill="rgb(0, 0, 0)" stroke="rgb(189, 189, 189)" stroke-width="1px" opacity="0.25"></line><line x1="59.84375" y1="0" x2="59.84375" y2="177" fill="rgb(0, 0, 0)" stroke="rgb(189, 189, 189)" stroke-width="1px" opacity="0.25"></line><line x1="89.765625" y1="0" x2="89.765625" y2="177" fill="rgb(0, 0, 0)" stroke="rgb(189, 189, 189)" stroke-width="1px" opacity="0.25"></line><line x1="119.6875" y1="0" x2="119.6875" y2="177" fill="rgb(0, 0, 0)" stroke="rgb(189, 189, 189)" stroke-width="1px" opacity="0.25"></line><line x1="149.609375" y1="0" x2="149.609375" y2="177" fill="rgb(0, 0, 0)" stroke="rgb(189, 189, 189)" stroke-width="1px" opacity="0.25"></line><line x1="179.53125" y1="0" x2="179.53125" y2="177" fill="rgb(0, 0, 0)" stroke="rgb(189, 189, 189)" stroke-width="1px" opacity="0.25"></line><line x1="209.453125" y1="0" x2="209.453125" y2="177" fill="rgb(0, 0, 0)" stroke="rgb(189, 189, 189)" stroke-width="1px" opacity="0.25"></line><line x1="239.375" y1="0" x2="239.375" y2="177" fill="rgb(0, 0, 0)" stroke="rgb(189, 189, 189)" stroke-width="1px" opacity="0.25"></line><line x1="269.296875" y1="0" x2="269.296875" y2="177" fill="rgb(0, 0, 0)" stroke="rgb(189, 189, 189)" stroke-width="1px" opacity="0.25"></line><line x1="299.21875" y1="0" x2="299.21875" y2="177" fill="rgb(0, 0, 0)" stroke="rgb(189, 189, 189)" stroke-width="1px" opacity="0.25"></line></g><g><line x1="0" y1="177" x2="299.21875" y2="177" fill="rgb(0, 0, 0)" stroke="rgb(189, 189, 189)" stroke-width="1px" opacity="0.25"></line><line x1="0" y1="157.33333333333331" x2="299.21875" y2="157.33333333333331" fill="rgb(0, 0, 0)" stroke="rgb(189, 189, 189)" stroke-width="1px" opacity="0.25"></line><line x1="0" y1="137.66666666666666" x2="299.21875" y2="137.66666666666666" fill="rgb(0, 0, 0)" stroke="rgb(189, 189, 189)" stroke-width="1px" opacity="0.25"></line><line x1="0" y1="118.00000000000001" x2="299.21875" y2="118.00000000000001" fill="rgb(0, 0, 0)" stroke="rgb(189, 189, 189)" stroke-width="1px" opacity="0.25"></line><line x1="0" y1="98.33333333333334" x2="299.21875" y2="98.33333333333334" fill="rgb(0, 0, 0)" stroke="rgb(189, 189, 189)" stroke-width="1px" opacity="0.25"></line><line x1="0" y1="78.66666666666666" x2="299.21875" y2="78.66666666666666" fill="rgb(0, 0, 0)" stroke="rgb(189, 189, 189)" stroke-width="1px" opacity="0.25"></line><line x1="0" y1="59.00000000000001" x2="299.21875" y2="59.00000000000001" fill="rgb(0, 0, 0)" stroke="rgb(189, 189, 189)" stroke-width="1px" opacity="0.25"></line><line x1="0" y1="39.33333333333333" x2="299.21875" y2="39.33333333333333" fill="rgb(0, 0, 0)" stroke="rgb(189, 189, 189)" stroke-width="1px" opacity="0.25"></line><line x1="0" y1="19.666666666666675" x2="299.21875" y2="19.666666666666675" fill="rgb(0, 0, 0)" stroke="rgb(189, 189, 189)" stroke-width="1px" opacity="0.25"></line><line x1="0" y1="0" x2="299.21875" y2="0" fill="rgb(0, 0, 0)" stroke="rgb(189, 189, 189)" stroke-width="1px" opacity="0.25"></line></g></g></g><g><g><line x1="0" y1="590" x2="299.21875" y2="590" fill="rgb(0, 0, 0)" stroke="rgb(153, 153, 153)" stroke-width="1.5px"></line></g></g><g><g><line x1="29.921875" y1="0" x2="29.921875" y2="177" fill="rgb(0, 0, 0)" stroke="rgb(153, 153, 153)" stroke-width="1.5px"></line></g></g><g><g><g><g><g><path stroke="rgb(0, 119, 187)" stroke-width="2px" d="M34.41015625,190.43045343137265L35.90625,167.54539671524404L37.40234375,159.13483485499458L38.8984375,134.11380556067675L40.39453125,114.55646172686497L41.89062500000001,99.17142726276079L43.38671875,90.9196275469297L44.8828125,90.30712605622753L46.37890625,90.23968939585292L47.875,90.45178642121039L49.37109375,90.7951461605322L50.86718750000001,91.18837869797302L52.36328125,94.0471670477308L53.859375,95.76192381300986L55.35546875,116.45925630799728L56.8515625,109.20844528289959L58.34765625,114.69193432145376L59.84375,116.01518962105845L61.33984374999999,128.60927953819237L62.8359375,122.11789098034939L64.33203125,117.52071280502639L65.828125,109.84573919617812L67.32421875,97.37408891001702L68.8203125,87.03050609359993L70.31640625,75.1627358111833L71.8125,75.35404719684841L73.30859375,70.49813509981811L74.8046875,68.52110802136366L76.30078125,70.61266497927815L77.796875,-36.299072784345505L85.27734374999999,-16.757111878173017L86.7734375,12.421927701288249L88.26953125,32.036489980325975L89.765625,45.44412122266343L91.26171875,54.79980607143363L92.7578125,54.33442364109823L94.25390625,62.10065418600445L95.75,70.54245071967419L97.24609375,73.23023448023065L98.7421875,80.64924679803518L100.23828125,82.80621474553621L101.73437500000001,89.01706218073875L103.23046874999999,92.74357064180666L104.7265625,121.20170294226952L106.22265625,131.72102176539232L107.71875,134.09927972590617L109.21484375,113.23734061180758L110.7109375,107.2757377004142L112.20703125,103.69877595358047L113.703125,105.92296760868845L115.19921875,102.88711389854598L116.6953125,104.64136334034842L118.19140625,102.1181513375423L119.6875,106.65549926199807L121.18359375000001,111.75520217560715L122.67968749999999,116.87534852907855L124.17578125,119.29187578411376L125.671875,32.241792137134645L127.16796875,-19.98825805105266L128.6640625,27.34037850270179L130.16015625,26.237560434954496L131.65625,39.34253626097274L133.15234375,30.161082313631127L134.6484375,34.953787958328434L136.14453125,35.7222727749971L137.640625,47.65559088871242L139.13671875,56.12668786656083L140.6328125,62.2820760540836L142.12890625,66.8692456324502L143.625,67.35231545604893L145.12109375,65.69709712885394L146.6171875,65.64048550102655L148.11328125,71.34262463394927L149.609375,121.47224144703625L151.10546875,112.21667820155511L152.6015625,132.88556747798057L154.09765625,109.2313404867884L155.59375,97.0054709587397L157.08984375,90.98105535152963L158.5859375,82.6838691626593L160.08203125,69.27698816426226L161.578125,59.0476677113829L163.07421875,51.161933960163054L164.5703125,34.27292204398515L166.06640625000003,23.8415260026769L167.56250000000003,20.356190727745457L169.05859374999997,20.64228372172219L170.55468749999997,17.62980967598578L172.05078125,17.952885805591485L173.546875,50.10506481668826L175.04296875,69.39637222334629L176.5390625,94.08226277696023L178.03515625,76.11602433284284L179.53125,53.53628126637237L181.02734375,45.232874869442554L182.5234375,32.758766110223405L184.01953125,44.238592999467414L185.515625,61.50612042980744L187.01171875,80.17033892455115L188.5078125,91.01129835595135L190.00390625,93.94011234690416L191.5,95.69740074147583L192.99609375,102.37081496677673L194.4921875,108.62248898006605L195.98828125,104.506826721373L197.484375,102.03742936615714L198.98046875,139.88912428636092L200.4765625,110.15570179553072L201.97265625,85.76008774398508L203.46875000000003,82.92271931305768L204.96484375000003,69.42029825450133L206.46093749999997,52.890276334292636L207.95703124999997,46.484165800575575L209.453125,41.00160558996449L210.94921875,44.26763002064542L212.4453125,55.16664134653431L213.94140625,59.32221203163485L215.4375,65.8497328586294L216.93359375,73.22413185995299L218.4296875,78.02337300635263L219.92578125,81.23069047047825L221.421875,48.73841428228695L222.91796875,88.24304856937222L224.4140625,105.39026858457582L225.91015625,102.56749448407882L227.40625,85.14049669044732L228.90234375,96.97319190464927L230.3984375,86.27915109453107L231.89453125,76.35082399005204L233.390625,76.40309032095183L234.88671875,77.30852085923782L236.3828125,82.14268418098871L237.87890625,88.6189438419266L239.375,89.47906207541959L240.87109375000003,90.21124248206816L242.36718750000003,93.46007882257427L243.86328124999997,92.95104729354453L245.35937499999997,134.4372950427934L246.85546875,119.99571035900937L248.3515625,98.21965343911978L249.84765625,127.76512539680525L251.34375,147.45907523808316L252.83984375,160.58655125246906L254.3359375,163.78050003655633L255.83203125,172.0183000219338L257.328125,173.1369092734142L258.82421875,155.01547889738188L260.3203125,146.64565233883596L261.81640625,143.7096186270158L263.3125,137.66166976629736L264.80859375,130.35890447818664L266.3046875,125.41534268691196L267.80078125,119.49920561214721" style="fill: none;" fill="none"></path></g></g></g></g><g opacity="0.2"><g><g><g><path stroke="rgb(0, 119, 187)" stroke-width="2px" d="M32.9140625,196.66666666666669L34.41015625,122.91666666666666L35.90625,137.66666666666666L37.40234375,147.5L38.8984375,98.33333333333334L40.39453125,86.04166666666667L41.89062500000001,76.48148981730144L43.38671875,78.66666666666666L44.8828125,89.3939291636149L46.37890625,90.13890139261882L47.875,90.76923942565917L49.37109375,91.30951309204102L50.86718750000001,91.77776527404785L52.36328125,98.33333333333334L53.859375,98.33333333333334L55.35546875,147.5L56.8515625,98.33333333333334L58.34765625,122.91666666666666L59.84375,118.00000000000001L61.33984374999999,147.5L62.8359375,112.3809363047282L64.33203125,110.625L65.828125,98.33333333333334L67.32421875,78.66666666666666L68.8203125,71.51515833536784L70.31640625,57.36109860738119L71.8125,75.6410140991211L73.30859375,63.21426963806153L74.8046875,65.55556805928548L76.30078125,73.75L77.796875,-196.66666666666669L82.28515625,-73.75000000000001L83.78125000000001,0L85.27734374999999,32.777765274047844L86.7734375,56.19048690795899L88.26953125,61.45833333333333L89.765625,65.55556805928548L91.26171875,68.83333333333333L92.7578125,53.63634999593099L94.25390625,73.75L95.75,83.20514551798503L97.24609375,77.26191012064615L98.7421875,91.77776527404785L100.23828125,86.04166666666667L101.73437500000001,98.33333333333334L103.23046874999999,98.33333333333334L104.7265625,163.8889013926188L106.22265625,147.5L107.71875,137.66666666666666L109.21484375,81.94443194071451L110.7109375,98.33333333333334L112.20703125,98.33333333333334L113.703125,109.25925509134929L115.19921875,98.33333333333334L116.6953125,107.27273750305177L118.19140625,98.33333333333334L119.6875,113.46152114868164L121.18359375000001,119.40475654602052L122.67968749999999,124.55556805928548L124.17578125,122.91666666666666L125.671875,-98.33333333333334L127.16796875,-98.33333333333334L128.6640625,98.33333333333334L130.16015625,24.583333333333325L131.65625,59.00000000000001L133.15234375,16.388901392618823L134.6484375,42.142846425374344L136.14453125,36.87500000000001L137.640625,65.55556805928548L139.13671875,68.83333333333333L140.6328125,71.51515833536784L142.12890625,73.75L143.625,68.07692019144694L145.12109375,63.21426963806153L146.6171875,65.55556805928548L148.11328125,79.89583333333333L149.609375,196.66666666666669L151.10546875,98.33333333333334L152.6015625,163.8889013926188L154.09765625,73.75L155.59375,78.66666666666666L157.08984375,81.94443194071451L158.5859375,70.23808987935384L160.08203125,49.16666666666667L161.578125,43.70368703206379L163.07421875,39.33333333333333L164.5703125,8.939404169718433L166.06640625000003,8.194431940714521L167.56250000000003,15.128187815348303L169.05859374999997,21.071423212687183L170.55468749999997,13.111098607381189L172.05078125,18.437499999999993L173.546875,98.33333333333334L175.04296875,98.33333333333334L176.5390625,131.1110986073812L178.03515625,49.16666666666667L179.53125,19.666666666666675L181.02734375,32.777765274047844L182.5234375,14.047602971394861L184.01953125,61.45833333333333L185.515625,87.40741157531738L187.01171875,108.16666666666667L188.5078125,107.27273750305177L190.00390625,98.33333333333334L191.5,98.33333333333334L192.99609375,112.3809363047282L194.4921875,118.00000000000001L195.98828125,98.33333333333334L197.484375,98.33333333333334L198.98046875,196.66666666666669L200.4765625,65.55556805928548L201.97265625,49.16666666666667L203.46875000000003,78.66666666666666L204.96484375000003,49.16666666666667L206.46093749999997,28.095243453979485L207.95703124999997,36.87500000000001L209.453125,32.777765274047844L210.94921875,49.16666666666667L212.4453125,71.51515833536784L213.94140625,65.55556805928548L215.4375,75.6410140991211L216.93359375,84.28573036193848L218.4296875,85.22223472595215L219.92578125,86.04166666666667L221.421875,0L222.91796875,147.5L224.4140625,131.1110986073812L225.91015625,98.33333333333334L227.40625,59.00000000000001L228.90234375,114.72223472595216L230.3984375,70.23808987935384L231.89453125,61.45833333333333L233.390625,76.48148981730144L234.88671875,78.66666666666666L236.3828125,89.3939291636149L237.87890625,98.33333333333334L239.375,90.76923942565917L240.87109375000003,91.30951309204102L242.36718750000003,98.33333333333334L243.86328124999997,92.18749999999999L245.35937499999997,196.66666666666669L246.85546875,98.33333333333334L248.3515625,65.55556805928548L249.84765625,172.08333333333334L251.34375,177L252.83984375,180.27776527404785L254.3359375,168.57142321268717L255.83203125,184.375L257.328125,174.81482315063477L258.82421875,127.83333333333333L260.3203125,134.09091250101724L261.81640625,139.3055680592855L263.3125,128.58974647521973L264.80859375,119.40475654602052L266.3046875,118.00000000000001L267.80078125,110.625" style="fill: none;" fill="none"></path></g></g></g></g></g></g><g transform="translate(30, 177)" clip-path="url(#clip_1)"><clipPath id="clip_1"><rect width="299" height="23"></rect></clipPath><g><g><line x1="0" y1="0" x2="0" y2="5" style="visibility: inherit;" fill="rgb(0, 0, 0)" stroke="rgb(204, 204, 204)" stroke-width="1px"></line><line x1="29.921875" y1="0" x2="29.921875" y2="5" style="visibility: inherit;" fill="rgb(0, 0, 0)" stroke="rgb(204, 204, 204)" stroke-width="1px"></line><line x1="59.84375" y1="0" x2="59.84375" y2="5" style="visibility: inherit;" fill="rgb(0, 0, 0)" stroke="rgb(204, 204, 204)" stroke-width="1px"></line><line x1="89.765625" y1="0" x2="89.765625" y2="5" style="visibility: inherit;" fill="rgb(0, 0, 0)" stroke="rgb(204, 204, 204)" stroke-width="1px"></line><line x1="119.6875" y1="0" x2="119.6875" y2="5" style="visibility: inherit;" fill="rgb(0, 0, 0)" stroke="rgb(204, 204, 204)" stroke-width="1px"></line><line x1="149.609375" y1="0" x2="149.609375" y2="5" style="visibility: inherit;" fill="rgb(0, 0, 0)" stroke="rgb(204, 204, 204)" stroke-width="1px"></line><line x1="179.53125" y1="0" x2="179.53125" y2="5" style="visibility: inherit;" fill="rgb(0, 0, 0)" stroke="rgb(204, 204, 204)" stroke-width="1px"></line><line x1="209.453125" y1="0" x2="209.453125" y2="5" style="visibility: inherit;" fill="rgb(0, 0, 0)" stroke="rgb(204, 204, 204)" stroke-width="1px"></line><line x1="239.375" y1="0" x2="239.375" y2="5" style="visibility: inherit;" fill="rgb(0, 0, 0)" stroke="rgb(204, 204, 204)" stroke-width="1px"></line><line x1="269.296875" y1="0" x2="269.296875" y2="5" style="visibility: inherit;" fill="rgb(0, 0, 0)" stroke="rgb(204, 204, 204)" stroke-width="1px"></line><line x1="299.21875" y1="0" x2="299.21875" y2="5" style="visibility: inherit;" fill="rgb(0, 0, 0)" stroke="rgb(204, 204, 204)" stroke-width="1px"></line></g><g transform="translate(0, 8)"><text x="0" y="0" dx="0em" dy="0.95em" style="text-anchor: middle; visibility: hidden; font-family: Roboto, sans-serif; font-size: 12px; font-weight: 200;" fill="rgb(255, 255, 255)" stroke="none" stroke-width="1px">-20</text><text x="29.921875" y="0" dx="0em" dy="0.95em" style="text-anchor: middle; visibility: inherit; font-family: Roboto, sans-serif; font-size: 12px; font-weight: 200;" fill="rgb(255, 255, 255)" stroke="none" stroke-width="1px">0</text><text x="59.84375" y="0" dx="0em" dy="0.95em" style="text-anchor: middle; visibility: inherit; font-family: Roboto, sans-serif; font-size: 12px; font-weight: 200;" fill="rgb(255, 255, 255)" stroke="none" stroke-width="1px">20</text><text x="89.765625" y="0" dx="0em" dy="0.95em" style="text-anchor: middle; visibility: inherit; font-family: Roboto, sans-serif; font-size: 12px; font-weight: 200;" fill="rgb(255, 255, 255)" stroke="none" stroke-width="1px">40</text><text x="119.6875" y="0" dx="0em" dy="0.95em" style="text-anchor: middle; visibility: inherit; font-family: Roboto, sans-serif; font-size: 12px; font-weight: 200;" fill="rgb(255, 255, 255)" stroke="none" stroke-width="1px">60</text><text x="149.609375" y="0" dx="0em" dy="0.95em" style="text-anchor: middle; visibility: inherit; font-family: Roboto, sans-serif; font-size: 12px; font-weight: 200;" fill="rgb(255, 255, 255)" stroke="none" stroke-width="1px">80</text><text x="179.53125" y="0" dx="0em" dy="0.95em" style="text-anchor: middle; visibility: inherit; font-family: Roboto, sans-serif; font-size: 12px; font-weight: 200;" fill="rgb(255, 255, 255)" stroke="none" stroke-width="1px">100</text><text x="209.453125" y="0" dx="0em" dy="0.95em" style="text-anchor: middle; visibility: inherit; font-family: Roboto, sans-serif; font-size: 12px; font-weight: 200;" fill="rgb(255, 255, 255)" stroke="none" stroke-width="1px">120</text><text x="239.375" y="0" dx="0em" dy="0.95em" style="text-anchor: middle; visibility: inherit; font-family: Roboto, sans-serif; font-size: 12px; font-weight: 200;" fill="rgb(255, 255, 255)" stroke="none" stroke-width="1px">140</text><text x="269.296875" y="0" dx="0em" dy="0.95em" style="text-anchor: middle; visibility: inherit; font-family: Roboto, sans-serif; font-size: 12px; font-weight: 200;" fill="rgb(255, 255, 255)" stroke="none" stroke-width="1px">160</text><text x="299.21875" y="0" dx="0em" dy="0.95em" style="text-anchor: middle; visibility: hidden; font-family: Roboto, sans-serif; font-size: 12px; font-weight: 200;" fill="rgb(255, 255, 255)" stroke="none" stroke-width="1px">180</text></g><line x1="0" y1="0" x2="299.21875" y2="0" fill="rgb(0, 0, 0)" stroke="rgb(204, 204, 204)" stroke-width="1px"></line></g></g></g></g></svg>