<svg viewBox="0 0 330 200" xmlns="http://www.w3.org/2000/svg"><g><g><g><g><g><line x1="51.5625" y1="177" x2="46.5625" y2="177" style="visibility: inherit;" fill="rgb(0, 0, 0)" stroke="rgb(204, 204, 204)" stroke-width="1px"></line><line x1="51.5625" y1="159.3" x2="46.5625" y2="159.3" style="visibility: inherit;" fill="rgb(0, 0, 0)" stroke="rgb(204, 204, 204)" stroke-width="1px"></line><line x1="51.5625" y1="141.6" x2="46.5625" y2="141.6" style="visibility: inherit;" fill="rgb(0, 0, 0)" stroke="rgb(204, 204, 204)" stroke-width="1px"></line><line x1="51.5625" y1="123.89999999999999" x2="46.5625" y2="123.89999999999999" style="visibility: inherit;" fill="rgb(0, 0, 0)" stroke="rgb(204, 204, 204)" stroke-width="1px"></line><line x1="51.5625" y1="106.2" x2="46.5625" y2="106.2" style="visibility: inherit;" fill="rgb(0, 0, 0)" stroke="rgb(204, 204, 204)" stroke-width="1px"></line><line x1="51.5625" y1="88.5" x2="46.5625" y2="88.5" style="visibility: inherit;" fill="rgb(0, 0, 0)" stroke="rgb(204, 204, 204)" stroke-width="1px"></line><line x1="51.5625" y1="70.8" x2="46.5625" y2="70.8" style="visibility: inherit;" fill="rgb(0, 0, 0)" stroke="rgb(204, 204, 204)" stroke-width="1px"></line><line x1="51.5625" y1="53.10000000000001" x2="46.5625" y2="53.10000000000001" style="visibility: inherit;" fill="rgb(0, 0, 0)" stroke="rgb(204, 204, 204)" stroke-width="1px"></line><line x1="51.5625" y1="35.40000000000001" x2="46.5625" y2="35.40000000000001" style="visibility: inherit;" fill="rgb(0, 0, 0)" stroke="rgb(204, 204, 204)" stroke-width="1px"></line><line x1="51.5625" y1="17.699999999999996" x2="46.5625" y2="17.699999999999996" style="visibility: inherit;" fill="rgb(0, 0, 0)" stroke="rgb(204, 204, 204)" stroke-width="1px"></line><line x1="51.5625" y1="0" x2="46.5625" y2="0" style="visibility: inherit;" fill="rgb(0, 0, 0)" stroke="rgb(204, 204, 204)" stroke-width="1px"></line></g><g transform="translate(41.5625, 0)"><text x="0" y="177" dx="0em" dy="0.3em" style="text-anchor: end; visibility: hidden; font-family: Roboto, sans-serif; font-size: 12px; font-weight: 200;" fill="rgb(255, 255, 255)" stroke="none" stroke-width="1px">-0.2</text><text x="0" y="159.3" dx="0em" dy="0.3em" style="text-anchor: end; visibility: inherit; font-family: Roboto, sans-serif; font-size: 12px; font-weight: 200;" fill="rgb(255, 255, 255)" stroke="none" stroke-width="1px">0</text><text x="0" y="141.6" dx="0em" dy="0.3em" style="text-anchor: end; visibility: hidden; font-family: Roboto, sans-serif; font-size: 12px; font-weight: 200;" fill="rgb(255, 255, 255)" stroke="none" stroke-width="1px">0.2</text><text x="0" y="123.89999999999999" dx="0em" dy="0.3em" style="text-anchor: end; visibility: inherit; font-family: Roboto, sans-serif; font-size: 12px; font-weight: 200;" fill="rgb(255, 255, 255)" stroke="none" stroke-width="1px">0.4</text><text x="0" y="106.2" dx="0em" dy="0.3em" style="text-anchor: end; visibility: hidden; font-family: Roboto, sans-serif; font-size: 12px; font-weight: 200;" fill="rgb(255, 255, 255)" stroke="none" stroke-width="1px">0.6</text><text x="0" y="88.5" dx="0em" dy="0.3em" style="text-anchor: end; visibility: inherit; font-family: Roboto, sans-serif; font-size: 12px; font-weight: 200;" fill="rgb(255, 255, 255)" stroke="none" stroke-width="1px">0.8</text><text x="0" y="70.8" dx="0em" dy="0.3em" style="text-anchor: end; visibility: hidden; font-family: Roboto, sans-serif; font-size: 12px; font-weight: 200;" fill="rgb(255, 255, 255)" stroke="none" stroke-width="1px">1</text><text x="0" y="53.10000000000001" dx="0em" dy="0.3em" style="text-anchor: end; visibility: inherit; font-family: Roboto, sans-serif; font-size: 12px; font-weight: 200;" fill="rgb(255, 255, 255)" stroke="none" stroke-width="1px">1.2</text><text x="0" y="35.40000000000001" dx="0em" dy="0.3em" style="text-anchor: end; visibility: hidden; font-family: Roboto, sans-serif; font-size: 12px; font-weight: 200;" fill="rgb(255, 255, 255)" stroke="none" stroke-width="1px">1.4</text><text x="0" y="17.699999999999996" dx="0em" dy="0.3em" style="text-anchor: end; visibility: inherit; font-family: Roboto, sans-serif; font-size: 12px; font-weight: 200;" fill="rgb(255, 255, 255)" stroke="none" stroke-width="1px">1.6</text><text x="0" y="0" dx="0em" dy="0.3em" style="text-anchor: end; visibility: hidden; font-family: Roboto, sans-serif; font-size: 12px; font-weight: 200;" fill="rgb(255, 255, 255)" stroke="none" stroke-width="1px">1.8</text></g><line x1="51.5625" y1="0" x2="51.5625" y2="177" fill="rgb(0, 0, 0)" stroke="rgb(204, 204, 204)" stroke-width="1px"></line></g></g><g transform="translate(51, 0)" clip-path="url(#clip_0)"><clipPath id="clip_0"><rect width="278" height="177"></rect></clipPath><g><g><g><line x1="0" y1="0" x2="0" y2="177" fill="rgb(0, 0, 0)" stroke="rgb(189, 189, 189)" stroke-width="1px" opacity="0.25"></line><line x1="27.84375" y1="0" x2="27.84375" y2="177" fill="rgb(0, 0, 0)" stroke="rgb(189, 189, 189)" stroke-width="1px" opacity="0.25"></line><line x1="55.6875" y1="0" x2="55.6875" y2="177" fill="rgb(0, 0, 0)" stroke="rgb(189, 189, 189)" stroke-width="1px" opacity="0.25"></line><line x1="83.53125" y1="0" x2="83.53125" y2="177" fill="rgb(0, 0, 0)" stroke="rgb(189, 189, 189)" stroke-width="1px" opacity="0.25"></line><line x1="111.375" y1="0" x2="111.375" y2="177" fill="rgb(0, 0, 0)" stroke="rgb(189, 189, 189)" stroke-width="1px" opacity="0.25"></line><line x1="139.21875" y1="0" x2="139.21875" y2="177" fill="rgb(0, 0, 0)" stroke="rgb(189, 189, 189)" stroke-width="1px" opacity="0.25"></line><line x1="167.0625" y1="0" x2="167.0625" y2="177" fill="rgb(0, 0, 0)" stroke="rgb(189, 189, 189)" stroke-width="1px" opacity="0.25"></line><line x1="194.90625" y1="0" x2="194.90625" y2="177" fill="rgb(0, 0, 0)" stroke="rgb(189, 189, 189)" stroke-width="1px" opacity="0.25"></line><line x1="222.75" y1="0" x2="222.75" y2="177" fill="rgb(0, 0, 0)" stroke="rgb(189, 189, 189)" stroke-width="1px" opacity="0.25"></line><line x1="250.59375" y1="0" x2="250.59375" y2="177" fill="rgb(0, 0, 0)" stroke="rgb(189, 189, 189)" stroke-width="1px" opacity="0.25"></line><line x1="278.4375" y1="0" x2="278.4375" y2="177" fill="rgb(0, 0, 0)" stroke="rgb(189, 189, 189)" stroke-width="1px" opacity="0.25"></line></g><g><line x1="0" y1="177" x2="278.4375" y2="177" fill="rgb(0, 0, 0)" stroke="rgb(189, 189, 189)" stroke-width="1px" opacity="0.25"></line><line x1="0" y1="159.3" x2="278.4375" y2="159.3" fill="rgb(0, 0, 0)" stroke="rgb(189, 189, 189)" stroke-width="1px" opacity="0.25"></line><line x1="0" y1="141.6" x2="278.4375" y2="141.6" fill="rgb(0, 0, 0)" stroke="rgb(189, 189, 189)" stroke-width="1px" opacity="0.25"></line><line x1="0" y1="123.89999999999999" x2="278.4375" y2="123.89999999999999" fill="rgb(0, 0, 0)" stroke="rgb(189, 189, 189)" stroke-width="1px" opacity="0.25"></line><line x1="0" y1="106.2" x2="278.4375" y2="106.2" fill="rgb(0, 0, 0)" stroke="rgb(189, 189, 189)" stroke-width="1px" opacity="0.25"></line><line x1="0" y1="88.5" x2="278.4375" y2="88.5" fill="rgb(0, 0, 0)" stroke="rgb(189, 189, 189)" stroke-width="1px" opacity="0.25"></line><line x1="0" y1="70.8" x2="278.4375" y2="70.8" fill="rgb(0, 0, 0)" stroke="rgb(189, 189, 189)" stroke-width="1px" opacity="0.25"></line><line x1="0" y1="53.10000000000001" x2="278.4375" y2="53.10000000000001" fill="rgb(0, 0, 0)" stroke="rgb(189, 189, 189)" stroke-width="1px" opacity="0.25"></line><line x1="0" y1="35.40000000000001" x2="278.4375" y2="35.40000000000001" fill="rgb(0, 0, 0)" stroke="rgb(189, 189, 189)" stroke-width="1px" opacity="0.25"></line><line x1="0" y1="17.699999999999996" x2="278.4375" y2="17.699999999999996" fill="rgb(0, 0, 0)" stroke="rgb(189, 189, 189)" stroke-width="1px" opacity="0.25"></line><line x1="0" y1="0" x2="278.4375" y2="0" fill="rgb(0, 0, 0)" stroke="rgb(189, 189, 189)" stroke-width="1px" opacity="0.25"></line></g></g></g><g><g><line x1="0" y1="159.3" x2="278.4375" y2="159.3" fill="rgb(0, 0, 0)" stroke="rgb(153, 153, 153)" stroke-width="1.5px"></line></g></g><g><g><line x1="27.84375" y1="0" x2="27.84375" y2="177" fill="rgb(0, 0, 0)" stroke="rgb(153, 153, 153)" stroke-width="1.5px"></line></g></g><g><g><g><g><g><path stroke="rgb(204, 51, 17)" stroke-width="2px" d="M27.84375,91.72889124155043L29.2359375,79.95674795955418L30.628125,110.23379893032262L32.0203125,51.67729741350802L33.4125,98.35607000937625L34.8046875,65.90126306074472L36.196875,104.23112263503707L37.589062500000004,126.63497093569335L38.98125,139.83399834716448L40.373437499999994,147.6677668105638L41.765625,-26.805582660672705L43.1578125,47.79904844677487L44.550000000000004,92.45775644008998L45.9421875,119.21562244207638L47.334375,135.24813527536298L48.7265625,41.72143159124693L50.11875,88.76082072995169L51.5109375,87.3494013813849L52.903125,116.13139468762674L54.2953125,133.39945592224936L55.6875,-1.8389157036537034L57.0796875,62.61749896412001L58.471875,101.2908047932564L59.864062499999996,124.49459282435004L61.25625,131.59895122183315L62.6484375,142.67938963430322L64.040625,149.3254299883874L65.4328125,153.31526044316428L66.825,155.70915714794546L68.2171875,157.14549460630403L69.609375,158.00729687809562L71.0015625,158.52437816801012L72.39375,95.62335187205002L73.7859375,121.09401185299447L75.17812500000001,136.37640737451187L76.5703125,145.5458445192846L77.9625,151.04750674561865L79.3546875,154.34304835314464L80.74687499999999,156.32582901630425L82.1390625,119.8322953327253L83.53125,135.61937721229722L84.92343749999999,-236.0084942051588L86.315625,-77.88509647743909L87.7078125,16.988942129972806L89.10000000000001,73.91336528390073L90.4921875,-45.79348663165049L91.884375,36.24390802407959L93.27656250000001,85.4663448155529L94.66875,114.99980688972961L96.0609375,132.719884133981L97.453125,143.35193048044016L98.84531249999999,149.73115828828267L100.2375,153.55869497297627L101.6296875,155.85521698378818L103.021875,157.23313019027376L104.4140625,158.05987811416458L105.80625,158.55592686849886L107.1984375,158.85355612109936L108.590625,159.03213367265963L109.98281250000001,159.13928020359577L111.375,159.20356812215746L112.7671875,159.2421408732945L114.159375,159.2652845239767L115.55156249999999,94.31299956894645L116.94375,120.30779974136797L118.3359375,135.90467984482083L119.72812499999999,145.2628079068925L121.1203125,150.8776847441355L122.5125,154.2466108464813L123.90468750000001,156.2679665078888L125.296875,157.48077990473328L126.6890625,158.20845317283917L128.08125,158.64507190370352L129.47343750000002,158.9070431422221L130.865625,-350.52537353330695L133.65,-24.237134471990476L135.04218749999998,49.177719316805735L136.434375,93.22663159008344L137.8265625,119.65597895405006L139.21875,135.51358737243004L140.6109375,145.02815242345804L142.003125,150.73689145407482L143.39531250000002,154.16213487244488L144.7875,156.21728092346694L146.1796875,157.45036855408014L147.571875,158.1902211324481L148.9640625,158.63413267946885L150.35625000000002,158.90047960768132L151.74843750000002,159.0602877646088L153.140625,159.15617265876529L154.5328125,159.21370359525918L155.925,159.2482221571555L157.3171875,159.2689332942933L158.709375,159.28135997657597L160.1015625,159.2888159859456L161.49374999999998,159.29328959156734L162.88593749999998,159.2956834302312L164.278125,159.29741005813872L165.6703125,159.29844603488323L167.0625,159.29906762092995L168.4546875,159.29944057255796L169.84687499999998,159.29966434353477L171.2390625,159.29979860612087L172.63125,159.29987916367253L174.0234375,159.29992749820352L175.415625,159.2999564989221L176.8078125,159.29997389935326L178.20000000000002,159.29998433961197L179.5921875,159.29999060376716L180.984375,159.2999943622603L182.3765625,159.2999966173562L183.76875,159.2999979704137L185.16093750000002,159.29999878224822L186.55312500000002,159.29999926934892L187.9453125,159.29999956160935L189.3375,159.29999973696562L190.7296875,159.29999984217937L192.121875,159.29999990530763L193.5140625,159.2999999431846L194.90625,159.29999996591073L196.29843749999998,159.29999997954644L197.69062499999998,159.29999998772786L199.0828125,159.2999999926367L200.475,159.29999999558203L201.8671875,159.29999999734923L203.259375,159.29999999840953L204.65156249999998,159.29999999904572L206.04375,159.29999999942743L207.4359375,159.29999999965648L208.828125,159.2999999997939L210.2203125,159.29999999987632L211.6125,159.2999999999258L213.00468750000002,159.29999999995547L214.396875,159.29999999997327L215.7890625,159.29999999998398L217.18125,159.29999999999038L218.5734375,159.2999999999942L219.96562500000002,159.29999999999654L221.35781250000002,159.2999999999979L222.75,159.29999999999873L224.1421875,159.29999999999924L225.534375,159.29999999999956L226.9265625,159.29999999999973L228.31875,159.29999999999984L229.7109375,159.2999999999999L231.10312499999998,159.29999999999995L232.49531249999998,159.29999999999995L233.8875,159.29999999999998L235.2796875,159.29999999999998L236.671875,159.29999999999998L238.0640625,159.29999999999998L239.45624999999998,159.3L240.8484375,159.3L242.240625,159.3L243.6328125,159.3L245.025,159.3L246.4171875,159.3L247.80937500000002,159.3L249.2015625,159.3" style="fill: none;" fill="none"></path></g></g></g></g><g opacity="0.2"><g><g><g><path stroke="rgb(204, 51, 17)" stroke-width="2px" d="M27.84375,91.72889124155044L29.2359375,72.89346199035644L30.628125,139.29976786226035L32.0203125,-17.185148370265978L33.4125,159.29987551054182L34.8046875,21.0045813202858L36.196875,159.04343510402833L37.589062500000004,159.29999683499386L38.98125,159.3L40.373437499999994,159.3L41.765625,-286.9331464290619L43.1578125,159.3L44.550000000000004,159.3L45.9421875,159.3L47.334375,159.27805890829478L48.7265625,-98.50266165733339L50.11875,159.29999894499787L51.5109375,85.23263071775436L52.903125,159.3L54.2953125,159.29996940498765L55.6875,-204.68905634880068L57.0796875,159.3L58.471875,159.3L59.864062499999996,159.3L61.25625,142.25543832331897L62.6484375,159.3L64.040625,159.294473514118L65.4328125,159.3L66.825,159.3L68.2171875,159.3L69.609375,159.3L71.0015625,159.3L72.39375,1.2718199372291603L73.7859375,159.3L75.17812500000001,159.3L76.5703125,159.3L77.9625,159.3L79.3546875,159.28636073384115L80.74687499999999,159.3L82.1390625,65.09199492931366L83.53125,159.3L84.92343749999999,-793.4503008842468L86.315625,159.3L87.7078125,159.3L89.10000000000001,159.3L90.4921875,-225.35376448631288L91.884375,159.3L93.27656250000001,159.3L94.66875,159.3L96.0609375,159.3L97.453125,159.3L98.84531249999999,159.3L100.2375,159.3L101.6296875,159.3L103.021875,159.3L104.4140625,159.3L105.80625,159.3L107.1984375,159.3L108.590625,159.3L109.98281250000001,159.3L111.375,159.3L112.7671875,159.3L114.159375,159.3L115.55156249999999,-3.1154278635978856L116.94375,159.3L118.3359375,159.3L119.72812499999999,159.3L121.1203125,159.3L122.5125,159.3L123.90468750000001,159.3L125.296875,159.3L126.6890625,159.29996307499803L128.08125,159.3L129.47343750000002,159.3L130.865625,-1114.6739985466004L132.2578125,159.3L133.65,159.3L135.04218749999998,159.3L136.434375,159.3L137.8265625,159.3L139.21875,159.3L140.6109375,159.3L142.003125,159.3L143.39531250000002,159.3L144.7875,159.3L146.1796875,159.3L147.571875,159.3L148.9640625,159.3L150.35625000000002,159.3L151.74843750000002,159.3L153.140625,159.3L154.5328125,159.3L155.925,159.3L157.3171875,159.3L158.709375,159.3L160.1015625,159.3L161.49374999999998,159.3L162.88593749999998,159.299274188227L164.278125,159.3L165.6703125,159.3L167.0625,159.3L168.4546875,159.3L169.84687499999998,159.3L171.2390625,159.3L172.63125,159.3L174.0234375,159.3L175.415625,159.3L176.8078125,159.3L178.20000000000002,159.3L179.5921875,159.3L180.984375,159.3L182.3765625,159.3L183.76875,159.3L185.16093750000002,159.3L186.55312500000002,159.3L187.9453125,159.3L189.3375,159.3L190.7296875,159.3L192.121875,159.3L193.5140625,159.3L194.90625,159.3L196.29843749999998,159.3L197.69062499999998,159.3L199.0828125,159.3L200.475,159.3L201.8671875,159.3L203.259375,159.3L204.65156249999998,159.3L206.04375,159.3L207.4359375,159.3L208.828125,159.3L210.2203125,159.3L211.6125,159.3L213.00468750000002,159.3L214.396875,159.3L215.7890625,159.3L217.18125,159.3L218.5734375,159.3L219.96562500000002,159.3L221.35781250000002,159.3L222.75,159.3L224.1421875,159.3L225.534375,159.3L226.9265625,159.3L228.31875,159.3L229.7109375,159.3L231.10312499999998,159.3L232.49531249999998,159.3L233.8875,159.3L235.2796875,159.3L236.671875,159.3L238.0640625,159.3L239.45624999999998,159.3L240.8484375,159.3L242.240625,159.3L243.6328125,159.3L245.025,159.3L246.4171875,159.3L247.80937500000002,159.3L249.2015625,159.3" style="fill: none;" fill="none"></path></g></g></g></g></g></g><g transform="translate(51, 177)" clip-path="url(#clip_1)"><clipPath id="clip_1"><rect width="278" height="23"></rect></clipPath><g><g><line x1="0" y1="0" x2="0" y2="5" style="visibility: inherit;" fill="rgb(0, 0, 0)" stroke="rgb(204, 204, 204)" stroke-width="1px"></line><line x1="27.84375" y1="0" x2="27.84375" y2="5" style="visibility: inherit;" fill="rgb(0, 0, 0)" stroke="rgb(204, 204, 204)" stroke-width="1px"></line><line x1="55.6875" y1="0" x2="55.6875" y2="5" style="visibility: inherit;" fill="rgb(0, 0, 0)" stroke="rgb(204, 204, 204)" stroke-width="1px"></line><line x1="83.53125" y1="0" x2="83.53125" y2="5" style="visibility: inherit;" fill="rgb(0, 0, 0)" stroke="rgb(204, 204, 204)" stroke-width="1px"></line><line x1="111.375" y1="0" x2="111.375" y2="5" style="visibility: inherit;" fill="rgb(0, 0, 0)" stroke="rgb(204, 204, 204)" stroke-width="1px"></line><line x1="139.21875" y1="0" x2="139.21875" y2="5" style="visibility: inherit;" fill="rgb(0, 0, 0)" stroke="rgb(204, 204, 204)" stroke-width="1px"></line><line x1="167.0625" y1="0" x2="167.0625" y2="5" style="visibility: inherit;" fill="rgb(0, 0, 0)" stroke="rgb(204, 204, 204)" stroke-width="1px"></line><line x1="194.90625" y1="0" x2="194.90625" y2="5" style="visibility: inherit;" fill="rgb(0, 0, 0)" stroke="rgb(204, 204, 204)" stroke-width="1px"></line><line x1="222.75" y1="0" x2="222.75" y2="5" style="visibility: inherit;" fill="rgb(0, 0, 0)" stroke="rgb(204, 204, 204)" stroke-width="1px"></line><line x1="250.59375" y1="0" x2="250.59375" y2="5" style="visibility: inherit;" fill="rgb(0, 0, 0)" stroke="rgb(204, 204, 204)" stroke-width="1px"></line><line x1="278.4375" y1="0" x2="278.4375" y2="5" style="visibility: inherit;" fill="rgb(0, 0, 0)" stroke="rgb(204, 204, 204)" stroke-width="1px"></line></g><g transform="translate(0, 8)"><text x="0" y="0" dx="0em" dy="0.95em" style="text-anchor: middle; visibility: hidden; font-family: Roboto, sans-serif; font-size: 12px; font-weight: 200;" fill="rgb(255, 255, 255)" stroke="none" stroke-width="1px">-20</text><text x="27.84375" y="0" dx="0em" dy="0.95em" style="text-anchor: middle; visibility: inherit; font-family: Roboto, sans-serif; font-size: 12px; font-weight: 200;" fill="rgb(255, 255, 255)" stroke="none" stroke-width="1px">0</text><text x="55.6875" y="0" dx="0em" dy="0.95em" style="text-anchor: middle; visibility: inherit; font-family: Roboto, sans-serif; font-size: 12px; font-weight: 200;" fill="rgb(255, 255, 255)" stroke="none" stroke-width="1px">20</text><text x="83.53125" y="0" dx="0em" dy="0.95em" style="text-anchor: middle; visibility: inherit; font-family: Roboto, sans-serif; font-size: 12px; font-weight: 200;" fill="rgb(255, 255, 255)" stroke="none" stroke-width="1px">40</text><text x="111.375" y="0" dx="0em" dy="0.95em" style="text-anchor: middle; visibility: inherit; font-family: Roboto, sans-serif; font-size: 12px; font-weight: 200;" fill="rgb(255, 255, 255)" stroke="none" stroke-width="1px">60</text><text x="139.21875" y="0" dx="0em" dy="0.95em" style="text-anchor: middle; visibility: inherit; font-family: Roboto, sans-serif; font-size: 12px; font-weight: 200;" fill="rgb(255, 255, 255)" stroke="none" stroke-width="1px">80</text><text x="167.0625" y="0" dx="0em" dy="0.95em" style="text-anchor: middle; visibility: inherit; font-family: Roboto, sans-serif; font-size: 12px; font-weight: 200;" fill="rgb(255, 255, 255)" stroke="none" stroke-width="1px">100</text><text x="194.90625" y="0" dx="0em" dy="0.95em" style="text-anchor: middle; visibility: inherit; font-family: Roboto, sans-serif; font-size: 12px; font-weight: 200;" fill="rgb(255, 255, 255)" stroke="none" stroke-width="1px">120</text><text x="222.75" y="0" dx="0em" dy="0.95em" style="text-anchor: middle; visibility: inherit; font-family: Roboto, sans-serif; font-size: 12px; font-weight: 200;" fill="rgb(255, 255, 255)" stroke="none" stroke-width="1px">140</text><text x="250.59375" y="0" dx="0em" dy="0.95em" style="text-anchor: middle; visibility: inherit; font-family: Roboto, sans-serif; font-size: 12px; font-weight: 200;" fill="rgb(255, 255, 255)" stroke="none" stroke-width="1px">160</text><text x="278.4375" y="0" dx="0em" dy="0.95em" style="text-anchor: middle; visibility: hidden; font-family: Roboto, sans-serif; font-size: 12px; font-weight: 200;" fill="rgb(255, 255, 255)" stroke="none" stroke-width="1px">180</text></g><line x1="0" y1="0" x2="278.4375" y2="0" fill="rgb(0, 0, 0)" stroke="rgb(204, 204, 204)" stroke-width="1px"></line></g></g></g></g></svg>