<svg viewBox="0 0 330 200" xmlns="http://www.w3.org/2000/svg"><g><g><g><g><g><line x1="41.171875" y1="177" x2="36.171875" y2="177" style="visibility: inherit;" fill="rgb(0, 0, 0)" stroke="rgb(204, 204, 204)" stroke-width="1px"></line><line x1="41.171875" y1="163.3846153846154" x2="36.171875" y2="163.3846153846154" style="visibility: inherit;" fill="rgb(0, 0, 0)" stroke="rgb(204, 204, 204)" stroke-width="1px"></line><line x1="41.171875" y1="149.76923076923077" x2="36.171875" y2="149.76923076923077" style="visibility: inherit;" fill="rgb(0, 0, 0)" stroke="rgb(204, 204, 204)" stroke-width="1px"></line><line x1="41.171875" y1="136.15384615384613" x2="36.171875" y2="136.15384615384613" style="visibility: inherit;" fill="rgb(0, 0, 0)" stroke="rgb(204, 204, 204)" stroke-width="1px"></line><line x1="41.171875" y1="122.53846153846153" x2="36.171875" y2="122.53846153846153" style="visibility: inherit;" fill="rgb(0, 0, 0)" stroke="rgb(204, 204, 204)" stroke-width="1px"></line><line x1="41.171875" y1="108.92307692307693" x2="36.171875" y2="108.92307692307693" style="visibility: inherit;" fill="rgb(0, 0, 0)" stroke="rgb(204, 204, 204)" stroke-width="1px"></line><line x1="41.171875" y1="95.3076923076923" x2="36.171875" y2="95.3076923076923" style="visibility: inherit;" fill="rgb(0, 0, 0)" stroke="rgb(204, 204, 204)" stroke-width="1px"></line><line x1="41.171875" y1="81.6923076923077" x2="36.171875" y2="81.6923076923077" style="visibility: inherit;" fill="rgb(0, 0, 0)" stroke="rgb(204, 204, 204)" stroke-width="1px"></line><line x1="41.171875" y1="68.07692307692307" x2="36.171875" y2="68.07692307692307" style="visibility: inherit;" fill="rgb(0, 0, 0)" stroke="rgb(204, 204, 204)" stroke-width="1px"></line><line x1="41.171875" y1="54.46153846153847" x2="36.171875" y2="54.46153846153847" style="visibility: inherit;" fill="rgb(0, 0, 0)" stroke="rgb(204, 204, 204)" stroke-width="1px"></line><line x1="41.171875" y1="40.84615384615384" x2="36.171875" y2="40.84615384615384" style="visibility: inherit;" fill="rgb(0, 0, 0)" stroke="rgb(204, 204, 204)" stroke-width="1px"></line><line x1="41.171875" y1="27.230769230769234" x2="36.171875" y2="27.230769230769234" style="visibility: inherit;" fill="rgb(0, 0, 0)" stroke="rgb(204, 204, 204)" stroke-width="1px"></line><line x1="41.171875" y1="13.615384615384606" x2="36.171875" y2="13.615384615384606" style="visibility: inherit;" fill="rgb(0, 0, 0)" stroke="rgb(204, 204, 204)" stroke-width="1px"></line><line x1="41.171875" y1="0" x2="36.171875" y2="0" style="visibility: inherit;" fill="rgb(0, 0, 0)" stroke="rgb(204, 204, 204)" stroke-width="1px"></line></g><g transform="translate(31.171875, 0)"><text x="0" y="177" dx="0em" dy="0.3em" style="text-anchor: end; visibility: hidden; font-family: Roboto, sans-serif; font-size: 12px; font-weight: 200;" fill="rgb(255, 255, 255)" stroke="none" stroke-width="1px">76</text><text x="0" y="163.3846153846154" dx="0em" dy="0.3em" style="text-anchor: end; visibility: inherit; font-family: Roboto, sans-serif; font-size: 12px; font-weight: 200;" fill="rgb(255, 255, 255)" stroke="none" stroke-width="1px">78</text><text x="0" y="149.76923076923077" dx="0em" dy="0.3em" style="text-anchor: end; visibility: hidden; font-family: Roboto, sans-serif; font-size: 12px; font-weight: 200;" fill="rgb(255, 255, 255)" stroke="none" stroke-width="1px">80</text><text x="0" y="136.15384615384613" dx="0em" dy="0.3em" style="text-anchor: end; visibility: inherit; font-family: Roboto, sans-serif; font-size: 12px; font-weight: 200;" fill="rgb(255, 255, 255)" stroke="none" stroke-width="1px">82</text><text x="0" y="122.53846153846153" dx="0em" dy="0.3em" style="text-anchor: end; visibility: hidden; font-family: Roboto, sans-serif; font-size: 12px; font-weight: 200;" fill="rgb(255, 255, 255)" stroke="none" stroke-width="1px">84</text><text x="0" y="108.92307692307693" dx="0em" dy="0.3em" style="text-anchor: end; visibility: inherit; font-family: Roboto, sans-serif; font-size: 12px; font-weight: 200;" fill="rgb(255, 255, 255)" stroke="none" stroke-width="1px">86</text><text x="0" y="95.3076923076923" dx="0em" dy="0.3em" style="text-anchor: end; visibility: hidden; font-family: Roboto, sans-serif; font-size: 12px; font-weight: 200;" fill="rgb(255, 255, 255)" stroke="none" stroke-width="1px">88</text><text x="0" y="81.6923076923077" dx="0em" dy="0.3em" style="text-anchor: end; visibility: inherit; font-family: Roboto, sans-serif; font-size: 12px; font-weight: 200;" fill="rgb(255, 255, 255)" stroke="none" stroke-width="1px">90</text><text x="0" y="68.07692307692307" dx="0em" dy="0.3em" style="text-anchor: end; visibility: hidden; font-family: Roboto, sans-serif; font-size: 12px; font-weight: 200;" fill="rgb(255, 255, 255)" stroke="none" stroke-width="1px">92</text><text x="0" y="54.46153846153847" dx="0em" dy="0.3em" style="text-anchor: end; visibility: inherit; font-family: Roboto, sans-serif; font-size: 12px; font-weight: 200;" fill="rgb(255, 255, 255)" stroke="none" stroke-width="1px">94</text><text x="0" y="40.84615384615384" dx="0em" dy="0.3em" style="text-anchor: end; visibility: hidden; font-family: Roboto, sans-serif; font-size: 12px; font-weight: 200;" fill="rgb(255, 255, 255)" stroke="none" stroke-width="1px">96</text><text x="0" y="27.230769230769234" dx="0em" dy="0.3em" style="text-anchor: end; visibility: inherit; font-family: Roboto, sans-serif; font-size: 12px; font-weight: 200;" fill="rgb(255, 255, 255)" stroke="none" stroke-width="1px">98</text><text x="0" y="13.615384615384606" dx="0em" dy="0.3em" style="text-anchor: end; visibility: hidden; font-family: Roboto, sans-serif; font-size: 12px; font-weight: 200;" fill="rgb(255, 255, 255)" stroke="none" stroke-width="1px">100</text><text x="0" y="0" dx="0em" dy="0.3em" style="text-anchor: end; visibility: hidden; font-family: Roboto, sans-serif; font-size: 12px; font-weight: 200;" fill="rgb(255, 255, 255)" stroke="none" stroke-width="1px">102</text></g><line x1="41.171875" y1="0" x2="41.171875" y2="177" fill="rgb(0, 0, 0)" stroke="rgb(204, 204, 204)" stroke-width="1px"></line></g></g><g transform="translate(41, 0)" clip-path="url(#clip_0)"><clipPath id="clip_0"><rect width="288" height="177"></rect></clipPath><g><g><g><line x1="0" y1="0" x2="0" y2="177" fill="rgb(0, 0, 0)" stroke="rgb(189, 189, 189)" stroke-width="1px" opacity="0.25"></line><line x1="28.8828125" y1="0" x2="28.8828125" y2="177" fill="rgb(0, 0, 0)" stroke="rgb(189, 189, 189)" stroke-width="1px" opacity="0.25"></line><line x1="57.765625" y1="0" x2="57.765625" y2="177" fill="rgb(0, 0, 0)" stroke="rgb(189, 189, 189)" stroke-width="1px" opacity="0.25"></line><line x1="86.6484375" y1="0" x2="86.6484375" y2="177" fill="rgb(0, 0, 0)" stroke="rgb(189, 189, 189)" stroke-width="1px" opacity="0.25"></line><line x1="115.53125" y1="0" x2="115.53125" y2="177" fill="rgb(0, 0, 0)" stroke="rgb(189, 189, 189)" stroke-width="1px" opacity="0.25"></line><line x1="144.4140625" y1="0" x2="144.4140625" y2="177" fill="rgb(0, 0, 0)" stroke="rgb(189, 189, 189)" stroke-width="1px" opacity="0.25"></line><line x1="173.296875" y1="0" x2="173.296875" y2="177" fill="rgb(0, 0, 0)" stroke="rgb(189, 189, 189)" stroke-width="1px" opacity="0.25"></line><line x1="202.1796875" y1="0" x2="202.1796875" y2="177" fill="rgb(0, 0, 0)" stroke="rgb(189, 189, 189)" stroke-width="1px" opacity="0.25"></line><line x1="231.0625" y1="0" x2="231.0625" y2="177" fill="rgb(0, 0, 0)" stroke="rgb(189, 189, 189)" stroke-width="1px" opacity="0.25"></line><line x1="259.9453125" y1="0" x2="259.9453125" y2="177" fill="rgb(0, 0, 0)" stroke="rgb(189, 189, 189)" stroke-width="1px" opacity="0.25"></line><line x1="288.828125" y1="0" x2="288.828125" y2="177" fill="rgb(0, 0, 0)" stroke="rgb(189, 189, 189)" stroke-width="1px" opacity="0.25"></line></g><g><line x1="0" y1="177" x2="288.828125" y2="177" fill="rgb(0, 0, 0)" stroke="rgb(189, 189, 189)" stroke-width="1px" opacity="0.25"></line><line x1="0" y1="163.3846153846154" x2="288.828125" y2="163.3846153846154" fill="rgb(0, 0, 0)" stroke="rgb(189, 189, 189)" stroke-width="1px" opacity="0.25"></line><line x1="0" y1="149.76923076923077" x2="288.828125" y2="149.76923076923077" fill="rgb(0, 0, 0)" stroke="rgb(189, 189, 189)" stroke-width="1px" opacity="0.25"></line><line x1="0" y1="136.15384615384613" x2="288.828125" y2="136.15384615384613" fill="rgb(0, 0, 0)" stroke="rgb(189, 189, 189)" stroke-width="1px" opacity="0.25"></line><line x1="0" y1="122.53846153846153" x2="288.828125" y2="122.53846153846153" fill="rgb(0, 0, 0)" stroke="rgb(189, 189, 189)" stroke-width="1px" opacity="0.25"></line><line x1="0" y1="108.92307692307693" x2="288.828125" y2="108.92307692307693" fill="rgb(0, 0, 0)" stroke="rgb(189, 189, 189)" stroke-width="1px" opacity="0.25"></line><line x1="0" y1="95.3076923076923" x2="288.828125" y2="95.3076923076923" fill="rgb(0, 0, 0)" stroke="rgb(189, 189, 189)" stroke-width="1px" opacity="0.25"></line><line x1="0" y1="81.6923076923077" x2="288.828125" y2="81.6923076923077" fill="rgb(0, 0, 0)" stroke="rgb(189, 189, 189)" stroke-width="1px" opacity="0.25"></line><line x1="0" y1="68.07692307692307" x2="288.828125" y2="68.07692307692307" fill="rgb(0, 0, 0)" stroke="rgb(189, 189, 189)" stroke-width="1px" opacity="0.25"></line><line x1="0" y1="54.46153846153847" x2="288.828125" y2="54.46153846153847" fill="rgb(0, 0, 0)" stroke="rgb(189, 189, 189)" stroke-width="1px" opacity="0.25"></line><line x1="0" y1="40.84615384615384" x2="288.828125" y2="40.84615384615384" fill="rgb(0, 0, 0)" stroke="rgb(189, 189, 189)" stroke-width="1px" opacity="0.25"></line><line x1="0" y1="27.230769230769234" x2="288.828125" y2="27.230769230769234" fill="rgb(0, 0, 0)" stroke="rgb(189, 189, 189)" stroke-width="1px" opacity="0.25"></line><line x1="0" y1="13.615384615384606" x2="288.828125" y2="13.615384615384606" fill="rgb(0, 0, 0)" stroke="rgb(189, 189, 189)" stroke-width="1px" opacity="0.25"></line><line x1="0" y1="0" x2="288.828125" y2="0" fill="rgb(0, 0, 0)" stroke="rgb(189, 189, 189)" stroke-width="1px" opacity="0.25"></line></g></g></g><g><g><line x1="0" y1="694.3846153846154" x2="288.828125" y2="694.3846153846154" fill="rgb(0, 0, 0)" stroke="rgb(153, 153, 153)" stroke-width="1.5px"></line></g></g><g><g><line x1="28.8828125" y1="0" x2="28.8828125" y2="177" fill="rgb(0, 0, 0)" stroke="rgb(153, 153, 153)" stroke-width="1.5px"></line></g></g><g><g><g><g><g><path stroke="rgb(204, 51, 17)" stroke-width="2px" d="M38.991796875000006,180.53729588513463L40.4359375,161.99189518542198L41.880078125,146.11451729403794L43.32421875,135.15903034502068L44.768359375,125.09658445046637L46.2125,116.10181458970622L47.656640625,108.16696749306693L49.100781250000004,101.20460613090556L50.544921875,96.8022909678203L51.989062499999996,63.52189516758703L53.433203125,70.79079840697341L54.87734375,66.0741847075916L56.321484375000004,58.70577988553848L57.765625,62.45431939361854L59.209765624999996,61.07256652416164L60.65390625,57.65010926082933L62.098046875,53.65158507150369L63.5421875,52.765312114323464L64.986328125,50.720722242435876L66.43046875,48.25621082418451L67.87460937499999,45.74602572018559L69.31875,43.36713958470438L70.762890625,41.19170590548284L72.20703125,39.23810713237548L73.651171875,37.49863337175578L75.0953125,55.17610394411049L76.53945312500001,52.16720074179614L77.98359375000001,45.82340418424296L79.427734375,39.747888601726515L80.871875,34.7410408223579L82.31601562499999,30.82923293836209L83.76015625,27.833809428444127L85.204296875,28.954131812410186L86.6484375,28.869912676433568L88.092578125,30.93733222223967L89.53671875,31.435124717539512L90.980859375,31.11492098431446L92.425,30.399133301526884L93.869140625,33.41090261669594L95.31328125,34.56962541828061L96.757421875,34.697544481740515L98.20156250000001,26.264680535084576L99.645703125,21.204962167163746L101.08984375,18.16913114643745L102.53398437499999,16.347632534010955L103.97812499999999,15.254733366558542L105.422265625,14.598993866088342L106.86640625,14.205550165806576L108.310546875,13.969483945637627L109.7546875,13.827844213536462L111.198828125,13.742860374275827L112.64296875000001,13.691870070719302L114.08710937500001,13.661275888585436L115.53125,13.642919379305194L116.975390625,13.631905473737023L118.41953124999999,13.625297130396001L119.863671875,15.323255201314558L121.3078125,14.640106966942534L122.751953125,14.230218026319458L124.19609375,13.984284661945571L125.640234375,13.836724643321224L127.084375,13.74818863214666L128.528515625,13.695067025441897L129.97265625,13.66319406141888L131.41679687500002,13.644070283005265L132.8609375,13.63259601595699L134.305078125,13.6257114557281L135.74921874999998,16.097097640414L137.193359375,17.373650124775747L138.6375,17.965026467781684L140.081640625,18.170227639796035L141.52578125,18.16366812027333L142.969921875,18.046277795240943L144.4140625,16.273920523298454L145.858203125,15.21050616013299L147.30234375,14.572457542233687L148.746484375,14.189628371494099L150.190625,13.959930869050263L151.634765625,13.822112367584086L153.07890625000002,13.739421266704342L154.523046875,13.689806606176475L155.96718750000002,13.660037809859707L157.411328125,13.642176532069703L158.85546875,13.631459765395633L160.29960937500002,13.625029705391304L161.74375,13.621171669388637L163.187890625,13.618856847786994L164.63203124999998,13.617467954826031L166.076171875,13.61663461904954L167.5203125,13.616134617583645L168.96445312499998,13.615834616704085L170.40859375,13.615654616176316L171.85273437499998,13.615546615859687L173.296875,13.615481815669616L174.741015625,13.615442935555624L176.18515625,13.615419607487178L177.629296875,13.615405610646192L179.0734375,13.615397212541597L180.517578125,13.615392173678762L181.96171875,13.615389150361068L183.405859375,13.615387336370565L184.85,13.61538624797615L186.294140625,13.615385594939537L187.73828125,13.615385203117585L189.18242187500002,13.615384968024436L190.6265625,13.6153848269685L192.07070312500002,13.615384742335014L193.51484375,13.61538469155492L194.958984375,13.615384661086834L196.40312500000002,13.61538464280597L197.847265625,13.61538463183742L199.29140625,13.61538462525628L200.73554687499998,13.615384621307618L202.1796875,13.615384618938382L203.623828125,13.615384617516833L205.06796874999998,13.615384616663942L206.512109375,13.615384616152172L207.95624999999998,13.615384615845107L209.400390625,13.615384615660918L210.84453125,13.615384615550441L212.288671875,13.615384615484059L213.7328125,13.615384615444306L215.176953125,13.61538461542041L216.62109375,13.615384615406084L218.065234375,13.615384615397575L219.509375,13.61538461539235L220.953515625,13.615384615389264L222.39765625,13.615384615387416L223.841796875,13.615384615386356L225.28593750000002,13.615384615385688L226.730078125,13.615384615385294L228.17421875000002,13.615384615384999L229.618359375,13.615384615384803L231.0625,13.615384615384803L232.50664062500002,13.615384615384803L233.95078125,13.615384615384803L235.394921875,13.615384615384803L236.83906249999998,13.615384615384803L238.283203125,13.615384615384803L239.72734375,13.615384615384803L241.17148437499998,13.615384615384803L242.615625,13.615384615384803L244.05976562499998,13.615384615384803L245.50390625,13.615384615384803L246.948046875,13.615384615384803L248.3921875,13.615384615384803L249.836328125,13.615384615384803L251.28046875,13.615384615384803L252.724609375,13.615384615384803L254.16875,13.615384615384803L255.612890625,13.615384615384803L257.05703125,13.615384615384803L258.501171875,13.615384615384803" style="fill: none;" fill="none"></path></g></g></g></g><g opacity="0.2"><g><g><g><path stroke="rgb(204, 51, 17)" stroke-width="2px" d="M36.103515625,195.15382884098932L37.54765625,169.21975796039288L38.991796875000006,149.76923076923077L40.4359375,134.6410314119779L41.880078125,122.53846153846153L43.32421875,118.82516538179839L44.768359375,110.0576749948355L46.2125,102.63902928278996L47.656640625,96.28024203960712L49.100781250000004,90.76924808208759L50.544921875,90.20192307692307L51.989062499999996,13.615384615384606L53.433203125,81.6923076923077L54.87734375,58.999982687143174L56.321484375000004,47.65384615384616L57.765625,68.07692307692307L59.209765624999996,58.999982687143174L60.65390625,52.5164909362793L62.098046875,47.65384615384616L63.5421875,51.43590897780198L64.986328125,47.65384615384616L66.43046875,44.559450002817L67.87460937499999,41.98075191791241L69.31875,39.79881257277268L70.762890625,37.92855658897987L72.20703125,36.307709620549126L73.651171875,34.88942307692307L75.0953125,81.6923076923077L76.53945312500001,47.65384615384616L77.98359375000001,36.307709620549126L79.427734375,30.634615384615394L80.871875,27.230769230769234L82.31601562499999,24.96152114868164L83.76015625,23.340674180250897L85.204296875,30.634615384615394L86.6484375,28.743583972637477L88.092578125,34.03846153846153L89.53671875,32.18181346012996L90.980859375,30.634615384615394L92.425,29.325451777531548L93.869140625,37.92855658897987L95.31328125,36.307709620549126L96.757421875,34.88942307692307L98.20156250000001,13.615384615384606L99.645703125,13.615384615384606L101.08984375,13.615384615384606L102.53398437499999,13.615384615384606L103.97812499999999,13.615384615384606L105.422265625,13.615384615384606L106.86640625,13.615384615384606L108.310546875,13.615384615384606L109.7546875,13.615384615384606L111.198828125,13.615384615384606L112.64296875000001,13.615384615384606L114.08710937500001,13.615384615384606L115.53125,13.615384615384606L116.975390625,13.615384615384606L118.41953124999999,13.615384615384606L119.863671875,17.870192307692303L121.3078125,13.615384615384606L122.751953125,13.615384615384606L124.19609375,13.615384615384606L125.640234375,13.615384615384606L127.084375,13.615384615384606L128.528515625,13.615384615384606L129.97265625,13.615384615384606L131.41679687500002,13.615384615384606L132.8609375,13.615384615384606L134.305078125,13.615384615384606L135.74921874999998,19.804176917442902L137.193359375,19.28847885131836L138.6375,18.852090982290417L140.081640625,18.47802939781776L141.52578125,18.153828840989338L142.969921875,17.870192307692303L144.4140625,13.615384615384606L145.858203125,13.615384615384606L147.30234375,13.615384615384606L148.746484375,13.615384615384606L150.190625,13.615384615384606L151.634765625,13.615384615384606L153.07890625000002,13.615384615384606L154.523046875,13.615384615384606L155.96718750000002,13.615384615384606L157.411328125,13.615384615384606L158.85546875,13.615384615384606L160.29960937500002,13.615384615384606L161.74375,13.615384615384606L163.187890625,13.615384615384606L164.63203124999998,13.615384615384606L166.076171875,13.615384615384606L167.5203125,13.615384615384606L168.96445312499998,13.615384615384606L170.40859375,13.615384615384606L171.85273437499998,13.615384615384606L173.296875,13.615384615384606L174.741015625,13.615384615384606L176.18515625,13.615384615384606L177.629296875,13.615384615384606L179.0734375,13.615384615384606L180.517578125,13.615384615384606L181.96171875,13.615384615384606L183.405859375,13.615384615384606L184.85,13.615384615384606L186.294140625,13.615384615384606L187.73828125,13.615384615384606L189.18242187500002,13.615384615384606L190.6265625,13.615384615384606L192.07070312500002,13.615384615384606L193.51484375,13.615384615384606L194.958984375,13.615384615384606L196.40312500000002,13.615384615384606L197.847265625,13.615384615384606L199.29140625,13.615384615384606L200.73554687499998,13.615384615384606L202.1796875,13.615384615384606L203.623828125,13.615384615384606L205.06796874999998,13.615384615384606L206.512109375,13.615384615384606L207.95624999999998,13.615384615384606L209.400390625,13.615384615384606L210.84453125,13.615384615384606L212.288671875,13.615384615384606L213.7328125,13.615384615384606L215.176953125,13.615384615384606L216.62109375,13.615384615384606L218.065234375,13.615384615384606L219.509375,13.615384615384606L220.953515625,13.615384615384606L222.39765625,13.615384615384606L223.841796875,13.615384615384606L225.28593750000002,13.615384615384606L226.730078125,13.615384615384606L228.17421875000002,13.615384615384606L229.618359375,13.615384615384606L231.0625,13.615384615384606L232.50664062500002,13.615384615384606L233.95078125,13.615384615384606L235.394921875,13.615384615384606L236.83906249999998,13.615384615384606L238.283203125,13.615384615384606L239.72734375,13.615384615384606L241.17148437499998,13.615384615384606L242.615625,13.615384615384606L244.05976562499998,13.615384615384606L245.50390625,13.615384615384606L246.948046875,13.615384615384606L248.3921875,13.615384615384606L249.836328125,13.615384615384606L251.28046875,13.615384615384606L252.724609375,13.615384615384606L254.16875,13.615384615384606L255.612890625,13.615384615384606L257.05703125,13.615384615384606L258.501171875,13.615384615384606" style="fill: none;" fill="none"></path></g></g></g></g></g></g><g transform="translate(41, 177)" clip-path="url(#clip_1)"><clipPath id="clip_1"><rect width="288" height="23"></rect></clipPath><g><g><line x1="0" y1="0" x2="0" y2="5" style="visibility: inherit;" fill="rgb(0, 0, 0)" stroke="rgb(204, 204, 204)" stroke-width="1px"></line><line x1="28.8828125" y1="0" x2="28.8828125" y2="5" style="visibility: inherit;" fill="rgb(0, 0, 0)" stroke="rgb(204, 204, 204)" stroke-width="1px"></line><line x1="57.765625" y1="0" x2="57.765625" y2="5" style="visibility: inherit;" fill="rgb(0, 0, 0)" stroke="rgb(204, 204, 204)" stroke-width="1px"></line><line x1="86.6484375" y1="0" x2="86.6484375" y2="5" style="visibility: inherit;" fill="rgb(0, 0, 0)" stroke="rgb(204, 204, 204)" stroke-width="1px"></line><line x1="115.53125" y1="0" x2="115.53125" y2="5" style="visibility: inherit;" fill="rgb(0, 0, 0)" stroke="rgb(204, 204, 204)" stroke-width="1px"></line><line x1="144.4140625" y1="0" x2="144.4140625" y2="5" style="visibility: inherit;" fill="rgb(0, 0, 0)" stroke="rgb(204, 204, 204)" stroke-width="1px"></line><line x1="173.296875" y1="0" x2="173.296875" y2="5" style="visibility: inherit;" fill="rgb(0, 0, 0)" stroke="rgb(204, 204, 204)" stroke-width="1px"></line><line x1="202.1796875" y1="0" x2="202.1796875" y2="5" style="visibility: inherit;" fill="rgb(0, 0, 0)" stroke="rgb(204, 204, 204)" stroke-width="1px"></line><line x1="231.0625" y1="0" x2="231.0625" y2="5" style="visibility: inherit;" fill="rgb(0, 0, 0)" stroke="rgb(204, 204, 204)" stroke-width="1px"></line><line x1="259.9453125" y1="0" x2="259.9453125" y2="5" style="visibility: inherit;" fill="rgb(0, 0, 0)" stroke="rgb(204, 204, 204)" stroke-width="1px"></line><line x1="288.828125" y1="0" x2="288.828125" y2="5" style="visibility: inherit;" fill="rgb(0, 0, 0)" stroke="rgb(204, 204, 204)" stroke-width="1px"></line></g><g transform="translate(0, 8)"><text x="0" y="0" dx="0em" dy="0.95em" style="text-anchor: middle; visibility: hidden; font-family: Roboto, sans-serif; font-size: 12px; font-weight: 200;" fill="rgb(255, 255, 255)" stroke="none" stroke-width="1px">-20</text><text x="28.8828125" y="0" dx="0em" dy="0.95em" style="text-anchor: middle; visibility: inherit; font-family: Roboto, sans-serif; font-size: 12px; font-weight: 200;" fill="rgb(255, 255, 255)" stroke="none" stroke-width="1px">0</text><text x="57.765625" y="0" dx="0em" dy="0.95em" style="text-anchor: middle; visibility: inherit; font-family: Roboto, sans-serif; font-size: 12px; font-weight: 200;" fill="rgb(255, 255, 255)" stroke="none" stroke-width="1px">20</text><text x="86.6484375" y="0" dx="0em" dy="0.95em" style="text-anchor: middle; visibility: inherit; font-family: Roboto, sans-serif; font-size: 12px; font-weight: 200;" fill="rgb(255, 255, 255)" stroke="none" stroke-width="1px">40</text><text x="115.53125" y="0" dx="0em" dy="0.95em" style="text-anchor: middle; visibility: inherit; font-family: Roboto, sans-serif; font-size: 12px; font-weight: 200;" fill="rgb(255, 255, 255)" stroke="none" stroke-width="1px">60</text><text x="144.4140625" y="0" dx="0em" dy="0.95em" style="text-anchor: middle; visibility: inherit; font-family: Roboto, sans-serif; font-size: 12px; font-weight: 200;" fill="rgb(255, 255, 255)" stroke="none" stroke-width="1px">80</text><text x="173.296875" y="0" dx="0em" dy="0.95em" style="text-anchor: middle; visibility: inherit; font-family: Roboto, sans-serif; font-size: 12px; font-weight: 200;" fill="rgb(255, 255, 255)" stroke="none" stroke-width="1px">100</text><text x="202.1796875" y="0" dx="0em" dy="0.95em" style="text-anchor: middle; visibility: inherit; font-family: Roboto, sans-serif; font-size: 12px; font-weight: 200;" fill="rgb(255, 255, 255)" stroke="none" stroke-width="1px">120</text><text x="231.0625" y="0" dx="0em" dy="0.95em" style="text-anchor: middle; visibility: inherit; font-family: Roboto, sans-serif; font-size: 12px; font-weight: 200;" fill="rgb(255, 255, 255)" stroke="none" stroke-width="1px">140</text><text x="259.9453125" y="0" dx="0em" dy="0.95em" style="text-anchor: middle; visibility: inherit; font-family: Roboto, sans-serif; font-size: 12px; font-weight: 200;" fill="rgb(255, 255, 255)" stroke="none" stroke-width="1px">160</text><text x="288.828125" y="0" dx="0em" dy="0.95em" style="text-anchor: middle; visibility: hidden; font-family: Roboto, sans-serif; font-size: 12px; font-weight: 200;" fill="rgb(255, 255, 255)" stroke="none" stroke-width="1px">180</text></g><line x1="0" y1="0" x2="288.828125" y2="0" fill="rgb(0, 0, 0)" stroke="rgb(204, 204, 204)" stroke-width="1px"></line></g></g></g></g></svg>