<svg viewBox="0 0 330 200" xmlns="http://www.w3.org/2000/svg"><g><g><g><g><g><line x1="41.171875" y1="177" x2="36.171875" y2="177" style="visibility: inherit;" fill="rgb(0, 0, 0)" stroke="rgb(204, 204, 204)" stroke-width="1px"></line><line x1="41.171875" y1="159.3" x2="36.171875" y2="159.3" style="visibility: inherit;" fill="rgb(0, 0, 0)" stroke="rgb(204, 204, 204)" stroke-width="1px"></line><line x1="41.171875" y1="141.6" x2="36.171875" y2="141.6" style="visibility: inherit;" fill="rgb(0, 0, 0)" stroke="rgb(204, 204, 204)" stroke-width="1px"></line><line x1="41.171875" y1="123.89999999999999" x2="36.171875" y2="123.89999999999999" style="visibility: inherit;" fill="rgb(0, 0, 0)" stroke="rgb(204, 204, 204)" stroke-width="1px"></line><line x1="41.171875" y1="106.2" x2="36.171875" y2="106.2" style="visibility: inherit;" fill="rgb(0, 0, 0)" stroke="rgb(204, 204, 204)" stroke-width="1px"></line><line x1="41.171875" y1="88.5" x2="36.171875" y2="88.5" style="visibility: inherit;" fill="rgb(0, 0, 0)" stroke="rgb(204, 204, 204)" stroke-width="1px"></line><line x1="41.171875" y1="70.8" x2="36.171875" y2="70.8" style="visibility: inherit;" fill="rgb(0, 0, 0)" stroke="rgb(204, 204, 204)" stroke-width="1px"></line><line x1="41.171875" y1="53.10000000000001" x2="36.171875" y2="53.10000000000001" style="visibility: inherit;" fill="rgb(0, 0, 0)" stroke="rgb(204, 204, 204)" stroke-width="1px"></line><line x1="41.171875" y1="35.39999999999999" x2="36.171875" y2="35.39999999999999" style="visibility: inherit;" fill="rgb(0, 0, 0)" stroke="rgb(204, 204, 204)" stroke-width="1px"></line><line x1="41.171875" y1="17.699999999999996" x2="36.171875" y2="17.699999999999996" style="visibility: inherit;" fill="rgb(0, 0, 0)" stroke="rgb(204, 204, 204)" stroke-width="1px"></line><line x1="41.171875" y1="0" x2="36.171875" y2="0" style="visibility: inherit;" fill="rgb(0, 0, 0)" stroke="rgb(204, 204, 204)" stroke-width="1px"></line></g><g transform="translate(31.171875, 0)"><text x="0" y="177" dx="0em" dy="0.3em" style="text-anchor: end; visibility: hidden; font-family: Roboto, sans-serif; font-size: 12px; font-weight: 200;" fill="rgb(255, 255, 255)" stroke="none" stroke-width="1px">55</text><text x="0" y="159.3" dx="0em" dy="0.3em" style="text-anchor: end; visibility: inherit; font-family: Roboto, sans-serif; font-size: 12px; font-weight: 200;" fill="rgb(255, 255, 255)" stroke="none" stroke-width="1px">60</text><text x="0" y="141.6" dx="0em" dy="0.3em" style="text-anchor: end; visibility: hidden; font-family: Roboto, sans-serif; font-size: 12px; font-weight: 200;" fill="rgb(255, 255, 255)" stroke="none" stroke-width="1px">65</text><text x="0" y="123.89999999999999" dx="0em" dy="0.3em" style="text-anchor: end; visibility: inherit; font-family: Roboto, sans-serif; font-size: 12px; font-weight: 200;" fill="rgb(255, 255, 255)" stroke="none" stroke-width="1px">70</text><text x="0" y="106.2" dx="0em" dy="0.3em" style="text-anchor: end; visibility: hidden; font-family: Roboto, sans-serif; font-size: 12px; font-weight: 200;" fill="rgb(255, 255, 255)" stroke="none" stroke-width="1px">75</text><text x="0" y="88.5" dx="0em" dy="0.3em" style="text-anchor: end; visibility: inherit; font-family: Roboto, sans-serif; font-size: 12px; font-weight: 200;" fill="rgb(255, 255, 255)" stroke="none" stroke-width="1px">80</text><text x="0" y="70.8" dx="0em" dy="0.3em" style="text-anchor: end; visibility: hidden; font-family: Roboto, sans-serif; font-size: 12px; font-weight: 200;" fill="rgb(255, 255, 255)" stroke="none" stroke-width="1px">85</text><text x="0" y="53.10000000000001" dx="0em" dy="0.3em" style="text-anchor: end; visibility: inherit; font-family: Roboto, sans-serif; font-size: 12px; font-weight: 200;" fill="rgb(255, 255, 255)" stroke="none" stroke-width="1px">90</text><text x="0" y="35.39999999999999" dx="0em" dy="0.3em" style="text-anchor: end; visibility: hidden; font-family: Roboto, sans-serif; font-size: 12px; font-weight: 200;" fill="rgb(255, 255, 255)" stroke="none" stroke-width="1px">95</text><text x="0" y="17.699999999999996" dx="0em" dy="0.3em" style="text-anchor: end; visibility: inherit; font-family: Roboto, sans-serif; font-size: 12px; font-weight: 200;" fill="rgb(255, 255, 255)" stroke="none" stroke-width="1px">100</text><text x="0" y="0" dx="0em" dy="0.3em" style="text-anchor: end; visibility: hidden; font-family: Roboto, sans-serif; font-size: 12px; font-weight: 200;" fill="rgb(255, 255, 255)" stroke="none" stroke-width="1px">105</text></g><line x1="41.171875" y1="0" x2="41.171875" y2="177" fill="rgb(0, 0, 0)" stroke="rgb(204, 204, 204)" stroke-width="1px"></line></g></g><g transform="translate(41, 0)" clip-path="url(#clip_0)"><clipPath id="clip_0"><rect width="288" height="177"></rect></clipPath><g><g><g><line x1="0" y1="0" x2="0" y2="177" fill="rgb(0, 0, 0)" stroke="rgb(189, 189, 189)" stroke-width="1px" opacity="0.25"></line><line x1="20.630580357142858" y1="0" x2="20.630580357142858" y2="177" fill="rgb(0, 0, 0)" stroke="rgb(189, 189, 189)" stroke-width="1px" opacity="0.25"></line><line x1="41.261160714285715" y1="0" x2="41.261160714285715" y2="177" fill="rgb(0, 0, 0)" stroke="rgb(189, 189, 189)" stroke-width="1px" opacity="0.25"></line><line x1="61.89174107142857" y1="0" x2="61.89174107142857" y2="177" fill="rgb(0, 0, 0)" stroke="rgb(189, 189, 189)" stroke-width="1px" opacity="0.25"></line><line x1="82.52232142857143" y1="0" x2="82.52232142857143" y2="177" fill="rgb(0, 0, 0)" stroke="rgb(189, 189, 189)" stroke-width="1px" opacity="0.25"></line><line x1="103.15290178571429" y1="0" x2="103.15290178571429" y2="177" fill="rgb(0, 0, 0)" stroke="rgb(189, 189, 189)" stroke-width="1px" opacity="0.25"></line><line x1="123.78348214285714" y1="0" x2="123.78348214285714" y2="177" fill="rgb(0, 0, 0)" stroke="rgb(189, 189, 189)" stroke-width="1px" opacity="0.25"></line><line x1="144.4140625" y1="0" x2="144.4140625" y2="177" fill="rgb(0, 0, 0)" stroke="rgb(189, 189, 189)" stroke-width="1px" opacity="0.25"></line><line x1="165.04464285714286" y1="0" x2="165.04464285714286" y2="177" fill="rgb(0, 0, 0)" stroke="rgb(189, 189, 189)" stroke-width="1px" opacity="0.25"></line><line x1="185.67522321428572" y1="0" x2="185.67522321428572" y2="177" fill="rgb(0, 0, 0)" stroke="rgb(189, 189, 189)" stroke-width="1px" opacity="0.25"></line><line x1="206.30580357142858" y1="0" x2="206.30580357142858" y2="177" fill="rgb(0, 0, 0)" stroke="rgb(189, 189, 189)" stroke-width="1px" opacity="0.25"></line><line x1="226.93638392857142" y1="0" x2="226.93638392857142" y2="177" fill="rgb(0, 0, 0)" stroke="rgb(189, 189, 189)" stroke-width="1px" opacity="0.25"></line><line x1="247.56696428571428" y1="0" x2="247.56696428571428" y2="177" fill="rgb(0, 0, 0)" stroke="rgb(189, 189, 189)" stroke-width="1px" opacity="0.25"></line><line x1="268.19754464285717" y1="0" x2="268.19754464285717" y2="177" fill="rgb(0, 0, 0)" stroke="rgb(189, 189, 189)" stroke-width="1px" opacity="0.25"></line><line x1="288.828125" y1="0" x2="288.828125" y2="177" fill="rgb(0, 0, 0)" stroke="rgb(189, 189, 189)" stroke-width="1px" opacity="0.25"></line></g><g><line x1="0" y1="177" x2="288.828125" y2="177" fill="rgb(0, 0, 0)" stroke="rgb(189, 189, 189)" stroke-width="1px" opacity="0.25"></line><line x1="0" y1="159.3" x2="288.828125" y2="159.3" fill="rgb(0, 0, 0)" stroke="rgb(189, 189, 189)" stroke-width="1px" opacity="0.25"></line><line x1="0" y1="141.6" x2="288.828125" y2="141.6" fill="rgb(0, 0, 0)" stroke="rgb(189, 189, 189)" stroke-width="1px" opacity="0.25"></line><line x1="0" y1="123.89999999999999" x2="288.828125" y2="123.89999999999999" fill="rgb(0, 0, 0)" stroke="rgb(189, 189, 189)" stroke-width="1px" opacity="0.25"></line><line x1="0" y1="106.2" x2="288.828125" y2="106.2" fill="rgb(0, 0, 0)" stroke="rgb(189, 189, 189)" stroke-width="1px" opacity="0.25"></line><line x1="0" y1="88.5" x2="288.828125" y2="88.5" fill="rgb(0, 0, 0)" stroke="rgb(189, 189, 189)" stroke-width="1px" opacity="0.25"></line><line x1="0" y1="70.8" x2="288.828125" y2="70.8" fill="rgb(0, 0, 0)" stroke="rgb(189, 189, 189)" stroke-width="1px" opacity="0.25"></line><line x1="0" y1="53.10000000000001" x2="288.828125" y2="53.10000000000001" fill="rgb(0, 0, 0)" stroke="rgb(189, 189, 189)" stroke-width="1px" opacity="0.25"></line><line x1="0" y1="35.39999999999999" x2="288.828125" y2="35.39999999999999" fill="rgb(0, 0, 0)" stroke="rgb(189, 189, 189)" stroke-width="1px" opacity="0.25"></line><line x1="0" y1="17.699999999999996" x2="288.828125" y2="17.699999999999996" fill="rgb(0, 0, 0)" stroke="rgb(189, 189, 189)" stroke-width="1px" opacity="0.25"></line><line x1="0" y1="0" x2="288.828125" y2="0" fill="rgb(0, 0, 0)" stroke="rgb(189, 189, 189)" stroke-width="1px" opacity="0.25"></line></g></g></g><g><g><line x1="0" y1="371.7" x2="288.828125" y2="371.7" fill="rgb(0, 0, 0)" stroke="rgb(153, 153, 153)" stroke-width="1.5px"></line></g></g><g><g><line x1="20.630580357142858" y1="0" x2="20.630580357142858" y2="177" fill="rgb(0, 0, 0)" stroke="rgb(153, 153, 153)" stroke-width="1.5px"></line></g></g><g><g><g><g><g><path stroke="rgb(255, 112, 67)" stroke-width="2px" d="M21.662109375,230.1L22.693638392857142,175.91632653061228L23.725167410714285,184.54852941176472L27.851283482142858,226.94771288118645L28.8828125,171.00485258932L29.914341517857146,166.29442942598914L30.945870535714285,206.12114781741903L31.977399553571427,187.35183197526743L33.00892857142857,147.75938870647252L34.040457589285715,124.03704340628506L35.071986607142854,123.98220025734591L36.103515625,152.27730251373833L37.13504464285714,155.086857071975L38.166573660714285,156.77228541521453L39.19810267857142,115.30084414646176L40.22963169642857,147.06166771390852L41.261160714285715,151.9571080193775L42.29268973214286,169.05448985027925L43.32421875,150.9925512695797L44.355747767857146,140.15547941156882L45.387276785714285,147.81330941837254L46.41880580357143,152.40799348871502L47.45033482142857,155.1647989147928L48.48186383928571,142.65887166905807L49.513392857142854,135.15532023670232L50.544921875,144.81319427712552L51.576450892857146,108.1279117001798L52.607979910714285,100.27674639526025L53.63950892857143,123.88604896454672L54.67103794642857,95.57162856748656L55.702566964285715,92.74297709186538L56.734095982142854,91.04578623761365L57.765625,75.86747164863483L58.797154017857146,80.92048300794367L59.82868303571429,98.11228984306814L60.86021205357143,122.58737393855795L61.89174107142857,94.79242434084186L62.923270089285715,106.43545461010808L63.954799107142854,113.42127276808196L64.986328125,75.13276365421602L66.01785714285714,94.63965819455727L67.04938616071429,92.18379491658118L68.08091517857143,119.03027695095336L69.11244419642857,106.81816617029784L70.14397321428571,127.8108997024615L71.17550223214286,126.24653982146425L72.20703125,125.30792389287402L73.23856026785714,82.26475433559919L74.27008928571428,70.59885260133916L75.30161830357143,63.59931156079618L76.33314732142857,101.8795869365018L77.36467633928571,124.84775216190972L78.39620535714285,110.30865129714255L79.427734375,101.58519077828437L80.45926339285714,82.19111446696904L81.49079241071429,98.87466868018224L82.52232142857143,80.56480120810876L83.55385044642858,112.05888072486586L84.58537946428572,88.47532843491928L85.61690848214286,74.32519706095148L86.6484375,79.9951182365709L87.67996651785714,125.87707094194265L88.71149553571429,82.60624256516556L89.74302455357143,56.64374553909933L90.77455357142857,69.38624732345957L91.80608258928571,62.87174839407575L92.83761160714286,73.12304903644547L93.869140625,135.9138294218673L94.90066964285714,102.78829765312035L95.93219866071428,125.39297859187229L96.96372767857142,110.63578715512335L97.99525669642857,130.10147229307404L99.02678571428571,141.78088337584438L100.05831473214286,134.62853002550662L101.08984375,130.33711801530401L102.12137276785715,113.60227080918241L103.15290178571429,89.40136248550945L104.18443080357143,60.72081749130571L105.21595982142857,71.83249049478346L106.24748883928572,50.17949429687007L107.27901785714286,107.98769657812204L108.310546875,86.03261794687322L109.34207589285714,58.69957076812396L110.37360491071428,56.45974246087439L111.40513392857143,55.11584547652463L112.43666294642857,68.46950728591476L113.46819196428571,48.161704371548865L114.49972098214285,64.29702262292933L115.53125,59.81821357375762L116.56277901785714,71.29092814425461L117.59430803571429,78.17455688655276L118.62583705357143,68.1447341319317L119.65736607142858,62.12684047915906L120.68889508928572,72.67610428749543L121.72042410714286,64.84566257249725L122.751953125,45.98739754349834L123.78348214285714,34.67243852609904L124.81501116071429,56.203463115659446L125.84654017857143,40.802077869395696L126.87806919642857,59.8812467216374L127.90959821428571,57.16874803298246L128.94112723214286,69.7012488197895L129.97265625,77.2207492918737L131.00418526785714,53.412449575124235L132.03571428571428,39.12746974507456L133.06724330357142,44.71648184704477L134.09877232142858,62.22988910822687L135.13030133928572,72.73793346493613L136.16183035714286,64.88276007896172L137.193359375,46.009656047377035L138.22488839285714,34.68579362842624L139.25641741071428,84.53147617705575L140.28794642857142,71.95888570623342L141.31947544642856,50.25533142374006L142.35100446428572,37.23319885424406L143.38253348214286,57.7399193125464L144.4140625,41.723951587527864L145.44559151785714,32.11437095251675L146.47712053571428,40.50862257151005L147.50864955357142,31.385173542906042L148.54017857142856,25.91110412574366L149.57170758928572,22.62666247544617L150.60323660714286,34.81599748526772L151.634765625,42.12959849116066L152.66629464285714,32.35775909469637L153.69782366071428,26.494655456817828L154.72935267857142,37.13679327409074L155.76088169642856,29.362075964454473L156.7924107142857,24.69724557867267L157.82393973214283,21.898347347203593L158.85546875,34.379008408322186L159.88699776785714,41.86740504499331L160.91852678571428,32.20044302699596L161.95005580357142,26.400265816197553L162.98158482142858,22.920159489718547L164.01311383928572,34.99209569383115L165.04464285714286,28.075257416298694L166.076171875,23.92515444977925L167.10770089285717,21.43509266986757L168.1392299107143,19.941055601920567L169.17075892857144,19.044633361152332L170.20228794642858,18.506780016691415L171.23381696428572,18.18406801001486L172.26534598214286,17.99044080600895L173.296875,17.874264483605376L174.32840401785714,17.804558690163258L175.35993303571428,17.762735214097937L176.39146205357144,31.897641128458766L177.42299107142858,26.218584677075263L178.45452008928572,22.811150806245156L179.48604910714286,20.76669048374706L180.517578125,19.540014290248216L181.54910714285714,18.804008574148977L182.58063616071428,18.362405144489426L183.61216517857142,18.09744308669368L184.64369419642856,17.938465852016215L185.67522321428572,17.84307951120973L186.70675223214286,17.785847706725846L187.73828125,17.751508624035544L188.76981026785714,17.730905174421338L189.80133928571428,17.71854310465279L190.83286830357142,31.87112586279167L191.86439732142856,26.202675517675022L192.8959263392857,22.801605310604987L193.92745535714283,20.76096318636298L194.958984375,19.536577911817794L195.99051339285714,18.801946747090682L197.02204241071428,18.36116804825442L198.05357142857142,18.09670082895266L199.08510044642858,46.258020497371604L200.11662946428572,34.83481229842298L201.14815848214286,27.980887379053783L202.1796875,23.868532427432278L203.21121651785717,21.4011194564594L204.2427455357143,34.080671673875656L205.27427455357144,55.848403004325384L206.30580357142858,40.5890418025952L207.33733258928572,45.59342508155713L208.36886160714286,34.4360550489343L209.400390625,27.74163302936059L210.43191964285714,23.724979817616365L211.46344866071428,21.31498789056982L212.49497767857144,19.86899273434193L213.52650669642858,19.00139564060517L214.55803571428572,32.64083738436309L215.58956473214286,26.66450243061788L216.62109375,23.07870145837073L217.65262276785714,20.92722087502245L218.68415178571428,19.636332525013454L219.71568080357142,33.02179951500812L220.74720982142856,26.893079709004848L221.77873883928572,23.215847825402893L222.81026785714286,21.009508695241745L223.841796875,19.68570521714507L224.87332589285714,18.891423130287087L225.90485491071428,18.414853878172256L226.93638392857142,18.12891232690337L227.96791294642856,17.957347396142048L228.9994419642857,17.854408437685244L230.03097098214283,31.952645062611133L231.0625,26.25158703756668L232.09402901785714,22.830952222540002L233.12555803571428,20.778571333524017L234.15708705357142,19.547142800114433L235.18861607142858,18.808285680068668L236.22014508928572,18.36497140804123L237.25167410714286,32.25898284482475L238.283203125,26.435389706894885L239.31473214285717,22.94123382413697L240.3462611607143,35.004740294482154L241.37779017857144,28.082844176689335L242.40931919642858,23.929706506013638L243.44084821428572,21.437823903608177L244.47237723214286,19.942694342164906L245.50390625,33.20561660529899L246.53543526785714,27.003369963179402L247.56696428571428,23.282021977907647L248.59849330357144,21.049213186744595L249.63002232142858,19.70952791204675L250.66155133928572,18.90571674722807L251.69308035714286,18.42343004833684L252.724609375,18.134058029002112L253.75613839285714,17.960434817401307L254.78766741071428,17.856260890440797L255.81919642857142,17.793756534264475L256.85072544642856,31.916253920558688L257.8822544642857,26.229752352335215L258.9137834821429,22.81785141140111L259.9453125,20.770710846840633L260.97684151785717,19.542426508104374L262.0083705357143,18.805455904862658L263.03989955357144,18.36327354291757L264.07142857142856,18.09796412575056L265.1029575892857,17.93877847545036L266.13448660714283,32.00326708527023L267.166015625,26.281960251162136" style="fill: none;" fill="none"></path></g></g></g></g><g opacity="0.2"><g><g><g><path stroke="rgb(255, 112, 67)" stroke-width="2px" d="M21.662109375,230.1L22.693638392857142,123.89999999999999L23.725167410714285,194.70000000000002L27.851283482142858,230.1L28.8828125,88.5L29.914341517857146,159.3L30.945870535714285,265.5L31.977399553571427,159.3L33.00892857142857,88.5L34.040457589285715,88.5L35.071986607142854,123.89999999999999L36.103515625,194.70000000000002L37.13504464285714,159.3L38.166573660714285,159.3L39.19810267857142,53.10000000000001L40.22963169642857,194.70000000000002L41.261160714285715,159.3L42.29268973214286,194.70000000000002L43.32421875,123.89999999999999L44.355747767857146,123.89999999999999L45.387276785714285,159.3L46.41880580357143,159.3L47.45033482142857,159.3L48.48186383928571,123.89999999999999L49.513392857142854,123.89999999999999L50.544921875,159.3L51.576450892857146,53.10000000000001L52.607979910714285,88.5L53.63950892857143,159.3L54.67103794642857,53.10000000000001L55.702566964285715,88.5L56.734095982142854,88.5L57.765625,53.10000000000001L58.797154017857146,88.5L59.82868303571429,123.89999999999999L60.86021205357143,159.3L61.89174107142857,53.10000000000001L62.923270089285715,123.89999999999999L63.954799107142854,123.89999999999999L64.986328125,17.699999999999996L66.01785714285714,123.89999999999999L67.04938616071429,88.5L68.08091517857143,159.3L69.11244419642857,88.5L70.14397321428571,159.3L71.17550223214286,123.89999999999999L72.20703125,123.89999999999999L73.23856026785714,17.699999999999996L74.27008928571428,53.10000000000001L75.30161830357143,53.10000000000001L76.33314732142857,159.3L77.36467633928571,159.3L78.39620535714285,88.5L79.427734375,88.5L80.45926339285714,53.10000000000001L81.49079241071429,123.89999999999999L82.52232142857143,53.10000000000001L83.55385044642858,159.3L84.58537946428572,53.10000000000001L85.61690848214286,53.10000000000001L86.6484375,88.5L87.67996651785714,194.70000000000002L88.71149553571429,17.699999999999996L89.74302455357143,17.699999999999996L90.77455357142857,88.5L91.80608258928571,53.10000000000001L92.83761160714286,88.5L93.869140625,230.1L94.90066964285714,53.10000000000001L95.93219866071428,159.3L96.96372767857142,88.5L97.99525669642857,159.3L99.02678571428571,159.3L100.05831473214286,123.89999999999999L101.08984375,123.89999999999999L102.12137276785715,88.5L103.15290178571429,53.10000000000001L104.18443080357143,17.699999999999996L105.21595982142857,88.5L106.24748883928572,17.699999999999996L107.27901785714286,194.70000000000002L108.310546875,53.10000000000001L109.34207589285714,17.699999999999996L110.37360491071428,53.10000000000001L111.40513392857143,53.10000000000001L112.43666294642857,88.5L113.46819196428571,17.699999999999996L114.49972098214285,88.5L115.53125,53.10000000000001L116.56277901785714,88.5L117.59430803571429,88.5L118.62583705357143,53.10000000000001L119.65736607142858,53.10000000000001L120.68889508928572,88.5L121.72042410714286,53.10000000000001L122.751953125,17.699999999999996L123.78348214285714,17.699999999999996L124.81501116071429,88.5L125.84654017857143,17.699999999999996L126.87806919642857,88.5L127.90959821428571,53.10000000000001L128.94112723214286,88.5L129.97265625,88.5L131.00418526785714,17.699999999999996L132.03571428571428,17.699999999999996L133.06724330357142,53.10000000000001L134.09877232142858,88.5L135.13030133928572,88.5L136.16183035714286,53.10000000000001L137.193359375,17.699999999999996L138.22488839285714,17.699999999999996L139.25641741071428,159.3L140.28794642857142,53.10000000000001L141.31947544642856,17.699999999999996L142.35100446428572,17.699999999999996L143.38253348214286,88.5L144.4140625,17.699999999999996L145.44559151785714,17.699999999999996L146.47712053571428,53.10000000000001L147.50864955357142,17.699999999999996L148.54017857142856,17.699999999999996L149.57170758928572,17.699999999999996L150.60323660714286,53.10000000000001L151.634765625,53.10000000000001L152.66629464285714,17.699999999999996L153.69782366071428,17.699999999999996L154.72935267857142,53.10000000000001L155.76088169642856,17.699999999999996L156.7924107142857,17.699999999999996L157.82393973214283,17.699999999999996L158.85546875,53.10000000000001L159.88699776785714,53.10000000000001L160.91852678571428,17.699999999999996L161.95005580357142,17.699999999999996L162.98158482142858,17.699999999999996L164.01311383928572,53.10000000000001L165.04464285714286,17.699999999999996L166.076171875,17.699999999999996L167.10770089285717,17.699999999999996L168.1392299107143,17.699999999999996L169.17075892857144,17.699999999999996L170.20228794642858,17.699999999999996L171.23381696428572,17.699999999999996L172.26534598214286,17.699999999999996L173.296875,17.699999999999996L174.32840401785714,17.699999999999996L175.35993303571428,17.699999999999996L176.39146205357144,53.10000000000001L177.42299107142858,17.699999999999996L178.45452008928572,17.699999999999996L179.48604910714286,17.699999999999996L180.517578125,17.699999999999996L181.54910714285714,17.699999999999996L182.58063616071428,17.699999999999996L183.61216517857142,17.699999999999996L184.64369419642856,17.699999999999996L185.67522321428572,17.699999999999996L186.70675223214286,17.699999999999996L187.73828125,17.699999999999996L188.76981026785714,17.699999999999996L189.80133928571428,17.699999999999996L190.83286830357142,53.10000000000001L191.86439732142856,17.699999999999996L192.8959263392857,17.699999999999996L193.92745535714283,17.699999999999996L194.958984375,17.699999999999996L195.99051339285714,17.699999999999996L197.02204241071428,17.699999999999996L198.05357142857142,17.699999999999996L199.08510044642858,88.5L200.11662946428572,17.699999999999996L201.14815848214286,17.699999999999996L202.1796875,17.699999999999996L203.21121651785717,17.699999999999996L204.2427455357143,53.10000000000001L205.27427455357144,88.5L206.30580357142858,17.699999999999996L207.33733258928572,53.10000000000001L208.36886160714286,17.699999999999996L209.400390625,17.699999999999996L210.43191964285714,17.699999999999996L211.46344866071428,17.699999999999996L212.49497767857144,17.699999999999996L213.52650669642858,17.699999999999996L214.55803571428572,53.10000000000001L215.58956473214286,17.699999999999996L216.62109375,17.699999999999996L217.65262276785714,17.699999999999996L218.68415178571428,17.699999999999996L219.71568080357142,53.10000000000001L220.74720982142856,17.699999999999996L221.77873883928572,17.699999999999996L222.81026785714286,17.699999999999996L223.841796875,17.699999999999996L224.87332589285714,17.699999999999996L225.90485491071428,17.699999999999996L226.93638392857142,17.699999999999996L227.96791294642856,17.699999999999996L228.9994419642857,17.699999999999996L230.03097098214283,53.10000000000001L231.0625,17.699999999999996L232.09402901785714,17.699999999999996L233.12555803571428,17.699999999999996L234.15708705357142,17.699999999999996L235.18861607142858,17.699999999999996L236.22014508928572,17.699999999999996L237.25167410714286,53.10000000000001L238.283203125,17.699999999999996L239.31473214285717,17.699999999999996L240.3462611607143,53.10000000000001L241.37779017857144,17.699999999999996L242.40931919642858,17.699999999999996L243.44084821428572,17.699999999999996L244.47237723214286,17.699999999999996L245.50390625,53.10000000000001L246.53543526785714,17.699999999999996L247.56696428571428,17.699999999999996L248.59849330357144,17.699999999999996L249.63002232142858,17.699999999999996L250.66155133928572,17.699999999999996L251.69308035714286,17.699999999999996L252.724609375,17.699999999999996L253.75613839285714,17.699999999999996L254.78766741071428,17.699999999999996L255.81919642857142,17.699999999999996L256.85072544642856,53.10000000000001L257.8822544642857,17.699999999999996L258.9137834821429,17.699999999999996L259.9453125,17.699999999999996L260.97684151785717,17.699999999999996L262.0083705357143,17.699999999999996L263.03989955357144,17.699999999999996L264.07142857142856,17.699999999999996L265.1029575892857,17.699999999999996L266.13448660714283,53.10000000000001L267.166015625,17.699999999999996" style="fill: none;" fill="none"></path></g></g></g></g></g></g><g transform="translate(41, 177)" clip-path="url(#clip_1)"><clipPath id="clip_1"><rect width="288" height="23"></rect></clipPath><g><g><line x1="0" y1="0" x2="0" y2="5" style="visibility: inherit;" fill="rgb(0, 0, 0)" stroke="rgb(204, 204, 204)" stroke-width="1px"></line><line x1="20.630580357142858" y1="0" x2="20.630580357142858" y2="5" style="visibility: inherit;" fill="rgb(0, 0, 0)" stroke="rgb(204, 204, 204)" stroke-width="1px"></line><line x1="41.261160714285715" y1="0" x2="41.261160714285715" y2="5" style="visibility: inherit;" fill="rgb(0, 0, 0)" stroke="rgb(204, 204, 204)" stroke-width="1px"></line><line x1="61.89174107142857" y1="0" x2="61.89174107142857" y2="5" style="visibility: inherit;" fill="rgb(0, 0, 0)" stroke="rgb(204, 204, 204)" stroke-width="1px"></line><line x1="82.52232142857143" y1="0" x2="82.52232142857143" y2="5" style="visibility: inherit;" fill="rgb(0, 0, 0)" stroke="rgb(204, 204, 204)" stroke-width="1px"></line><line x1="103.15290178571429" y1="0" x2="103.15290178571429" y2="5" style="visibility: inherit;" fill="rgb(0, 0, 0)" stroke="rgb(204, 204, 204)" stroke-width="1px"></line><line x1="123.78348214285714" y1="0" x2="123.78348214285714" y2="5" style="visibility: inherit;" fill="rgb(0, 0, 0)" stroke="rgb(204, 204, 204)" stroke-width="1px"></line><line x1="144.4140625" y1="0" x2="144.4140625" y2="5" style="visibility: inherit;" fill="rgb(0, 0, 0)" stroke="rgb(204, 204, 204)" stroke-width="1px"></line><line x1="165.04464285714286" y1="0" x2="165.04464285714286" y2="5" style="visibility: inherit;" fill="rgb(0, 0, 0)" stroke="rgb(204, 204, 204)" stroke-width="1px"></line><line x1="185.67522321428572" y1="0" x2="185.67522321428572" y2="5" style="visibility: inherit;" fill="rgb(0, 0, 0)" stroke="rgb(204, 204, 204)" stroke-width="1px"></line><line x1="206.30580357142858" y1="0" x2="206.30580357142858" y2="5" style="visibility: inherit;" fill="rgb(0, 0, 0)" stroke="rgb(204, 204, 204)" stroke-width="1px"></line><line x1="226.93638392857142" y1="0" x2="226.93638392857142" y2="5" style="visibility: inherit;" fill="rgb(0, 0, 0)" stroke="rgb(204, 204, 204)" stroke-width="1px"></line><line x1="247.56696428571428" y1="0" x2="247.56696428571428" y2="5" style="visibility: inherit;" fill="rgb(0, 0, 0)" stroke="rgb(204, 204, 204)" stroke-width="1px"></line><line x1="268.19754464285717" y1="0" x2="268.19754464285717" y2="5" style="visibility: inherit;" fill="rgb(0, 0, 0)" stroke="rgb(204, 204, 204)" stroke-width="1px"></line><line x1="288.828125" y1="0" x2="288.828125" y2="5" style="visibility: inherit;" fill="rgb(0, 0, 0)" stroke="rgb(204, 204, 204)" stroke-width="1px"></line></g><g transform="translate(0, 8)"><text x="0" y="0" dx="0em" dy="0.95em" style="text-anchor: middle; visibility: hidden; font-family: Roboto, sans-serif; font-size: 12px; font-weight: 200;" fill="rgb(255, 255, 255)" stroke="none" stroke-width="1px">-20</text><text x="20.630580357142858" y="0" dx="0em" dy="0.95em" style="text-anchor: middle; visibility: inherit; font-family: Roboto, sans-serif; font-size: 12px; font-weight: 200;" fill="rgb(255, 255, 255)" stroke="none" stroke-width="1px">0</text><text x="41.261160714285715" y="0" dx="0em" dy="0.95em" style="text-anchor: middle; visibility: hidden; font-family: Roboto, sans-serif; font-size: 12px; font-weight: 200;" fill="rgb(255, 255, 255)" stroke="none" stroke-width="1px">20</text><text x="61.89174107142857" y="0" dx="0em" dy="0.95em" style="text-anchor: middle; visibility: inherit; font-family: Roboto, sans-serif; font-size: 12px; font-weight: 200;" fill="rgb(255, 255, 255)" stroke="none" stroke-width="1px">40</text><text x="82.52232142857143" y="0" dx="0em" dy="0.95em" style="text-anchor: middle; visibility: hidden; font-family: Roboto, sans-serif; font-size: 12px; font-weight: 200;" fill="rgb(255, 255, 255)" stroke="none" stroke-width="1px">60</text><text x="103.15290178571429" y="0" dx="0em" dy="0.95em" style="text-anchor: middle; visibility: inherit; font-family: Roboto, sans-serif; font-size: 12px; font-weight: 200;" fill="rgb(255, 255, 255)" stroke="none" stroke-width="1px">80</text><text x="123.78348214285714" y="0" dx="0em" dy="0.95em" style="text-anchor: middle; visibility: hidden; font-family: Roboto, sans-serif; font-size: 12px; font-weight: 200;" fill="rgb(255, 255, 255)" stroke="none" stroke-width="1px">100</text><text x="144.4140625" y="0" dx="0em" dy="0.95em" style="text-anchor: middle; visibility: inherit; font-family: Roboto, sans-serif; font-size: 12px; font-weight: 200;" fill="rgb(255, 255, 255)" stroke="none" stroke-width="1px">120</text><text x="165.04464285714286" y="0" dx="0em" dy="0.95em" style="text-anchor: middle; visibility: hidden; font-family: Roboto, sans-serif; font-size: 12px; font-weight: 200;" fill="rgb(255, 255, 255)" stroke="none" stroke-width="1px">140</text><text x="185.67522321428572" y="0" dx="0em" dy="0.95em" style="text-anchor: middle; visibility: inherit; font-family: Roboto, sans-serif; font-size: 12px; font-weight: 200;" fill="rgb(255, 255, 255)" stroke="none" stroke-width="1px">160</text><text x="206.30580357142858" y="0" dx="0em" dy="0.95em" style="text-anchor: middle; visibility: hidden; font-family: Roboto, sans-serif; font-size: 12px; font-weight: 200;" fill="rgb(255, 255, 255)" stroke="none" stroke-width="1px">180</text><text x="226.93638392857142" y="0" dx="0em" dy="0.95em" style="text-anchor: middle; visibility: inherit; font-family: Roboto, sans-serif; font-size: 12px; font-weight: 200;" fill="rgb(255, 255, 255)" stroke="none" stroke-width="1px">200</text><text x="247.56696428571428" y="0" dx="0em" dy="0.95em" style="text-anchor: middle; visibility: hidden; font-family: Roboto, sans-serif; font-size: 12px; font-weight: 200;" fill="rgb(255, 255, 255)" stroke="none" stroke-width="1px">220</text><text x="268.19754464285717" y="0" dx="0em" dy="0.95em" style="text-anchor: middle; visibility: inherit; font-family: Roboto, sans-serif; font-size: 12px; font-weight: 200;" fill="rgb(255, 255, 255)" stroke="none" stroke-width="1px">240</text><text x="288.828125" y="0" dx="0em" dy="0.95em" style="text-anchor: middle; visibility: hidden; font-family: Roboto, sans-serif; font-size: 12px; font-weight: 200;" fill="rgb(255, 255, 255)" stroke="none" stroke-width="1px">260</text></g><line x1="0" y1="0" x2="288.828125" y2="0" fill="rgb(0, 0, 0)" stroke="rgb(204, 204, 204)" stroke-width="1px"></line></g></g></g></g></svg>