<svg viewBox="0 0 330 200" xmlns="http://www.w3.org/2000/svg"><g><g><g><g><g><line x1="51.5625" y1="177" x2="46.5625" y2="177" style="visibility: inherit;" fill="rgb(0, 0, 0)" stroke="rgb(204, 204, 204)" stroke-width="1px"></line><line x1="51.5625" y1="157.33333333333331" x2="46.5625" y2="157.33333333333331" style="visibility: inherit;" fill="rgb(0, 0, 0)" stroke="rgb(204, 204, 204)" stroke-width="1px"></line><line x1="51.5625" y1="137.66666666666666" x2="46.5625" y2="137.66666666666666" style="visibility: inherit;" fill="rgb(0, 0, 0)" stroke="rgb(204, 204, 204)" stroke-width="1px"></line><line x1="51.5625" y1="118" x2="46.5625" y2="118" style="visibility: inherit;" fill="rgb(0, 0, 0)" stroke="rgb(204, 204, 204)" stroke-width="1px"></line><line x1="51.5625" y1="98.33333333333334" x2="46.5625" y2="98.33333333333334" style="visibility: inherit;" fill="rgb(0, 0, 0)" stroke="rgb(204, 204, 204)" stroke-width="1px"></line><line x1="51.5625" y1="78.66666666666666" x2="46.5625" y2="78.66666666666666" style="visibility: inherit;" fill="rgb(0, 0, 0)" stroke="rgb(204, 204, 204)" stroke-width="1px"></line><line x1="51.5625" y1="59.00000000000001" x2="46.5625" y2="59.00000000000001" style="visibility: inherit;" fill="rgb(0, 0, 0)" stroke="rgb(204, 204, 204)" stroke-width="1px"></line><line x1="51.5625" y1="39.33333333333335" x2="46.5625" y2="39.33333333333335" style="visibility: inherit;" fill="rgb(0, 0, 0)" stroke="rgb(204, 204, 204)" stroke-width="1px"></line><line x1="51.5625" y1="19.666666666666675" x2="46.5625" y2="19.666666666666675" style="visibility: inherit;" fill="rgb(0, 0, 0)" stroke="rgb(204, 204, 204)" stroke-width="1px"></line><line x1="51.5625" y1="0" x2="46.5625" y2="0" style="visibility: inherit;" fill="rgb(0, 0, 0)" stroke="rgb(204, 204, 204)" stroke-width="1px"></line></g><g transform="translate(41.5625, 0)"><text x="0" y="177" dx="0em" dy="0.3em" style="text-anchor: end; visibility: hidden; font-family: Roboto, sans-serif; font-size: 12px; font-weight: 200;" fill="rgb(255, 255, 255)" stroke="none" stroke-width="1px">-0.1</text><text x="0" y="157.33333333333331" dx="0em" dy="0.3em" style="text-anchor: end; visibility: inherit; font-family: Roboto, sans-serif; font-size: 12px; font-weight: 200;" fill="rgb(255, 255, 255)" stroke="none" stroke-width="1px">0</text><text x="0" y="137.66666666666666" dx="0em" dy="0.3em" style="text-anchor: end; visibility: hidden; font-family: Roboto, sans-serif; font-size: 12px; font-weight: 200;" fill="rgb(255, 255, 255)" stroke="none" stroke-width="1px">0.1</text><text x="0" y="118" dx="0em" dy="0.3em" style="text-anchor: end; visibility: inherit; font-family: Roboto, sans-serif; font-size: 12px; font-weight: 200;" fill="rgb(255, 255, 255)" stroke="none" stroke-width="1px">0.2</text><text x="0" y="98.33333333333334" dx="0em" dy="0.3em" style="text-anchor: end; visibility: hidden; font-family: Roboto, sans-serif; font-size: 12px; font-weight: 200;" fill="rgb(255, 255, 255)" stroke="none" stroke-width="1px">0.3</text><text x="0" y="78.66666666666666" dx="0em" dy="0.3em" style="text-anchor: end; visibility: inherit; font-family: Roboto, sans-serif; font-size: 12px; font-weight: 200;" fill="rgb(255, 255, 255)" stroke="none" stroke-width="1px">0.4</text><text x="0" y="59.00000000000001" dx="0em" dy="0.3em" style="text-anchor: end; visibility: hidden; font-family: Roboto, sans-serif; font-size: 12px; font-weight: 200;" fill="rgb(255, 255, 255)" stroke="none" stroke-width="1px">0.5</text><text x="0" y="39.33333333333335" dx="0em" dy="0.3em" style="text-anchor: end; visibility: inherit; font-family: Roboto, sans-serif; font-size: 12px; font-weight: 200;" fill="rgb(255, 255, 255)" stroke="none" stroke-width="1px">0.6</text><text x="0" y="19.666666666666675" dx="0em" dy="0.3em" style="text-anchor: end; visibility: hidden; font-family: Roboto, sans-serif; font-size: 12px; font-weight: 200;" fill="rgb(255, 255, 255)" stroke="none" stroke-width="1px">0.7</text><text x="0" y="0" dx="0em" dy="0.3em" style="text-anchor: end; visibility: hidden; font-family: Roboto, sans-serif; font-size: 12px; font-weight: 200;" fill="rgb(255, 255, 255)" stroke="none" stroke-width="1px">0.8</text></g><line x1="51.5625" y1="0" x2="51.5625" y2="177" fill="rgb(0, 0, 0)" stroke="rgb(204, 204, 204)" stroke-width="1px"></line></g></g><g transform="translate(51, 0)" clip-path="url(#clip_0)"><clipPath id="clip_0"><rect width="278" height="177"></rect></clipPath><g><g><g><line x1="0" y1="0" x2="0" y2="177" fill="rgb(0, 0, 0)" stroke="rgb(189, 189, 189)" stroke-width="1px" opacity="0.25"></line><line x1="19.888392857142858" y1="0" x2="19.888392857142858" y2="177" fill="rgb(0, 0, 0)" stroke="rgb(189, 189, 189)" stroke-width="1px" opacity="0.25"></line><line x1="39.776785714285715" y1="0" x2="39.776785714285715" y2="177" fill="rgb(0, 0, 0)" stroke="rgb(189, 189, 189)" stroke-width="1px" opacity="0.25"></line><line x1="59.66517857142857" y1="0" x2="59.66517857142857" y2="177" fill="rgb(0, 0, 0)" stroke="rgb(189, 189, 189)" stroke-width="1px" opacity="0.25"></line><line x1="79.55357142857143" y1="0" x2="79.55357142857143" y2="177" fill="rgb(0, 0, 0)" stroke="rgb(189, 189, 189)" stroke-width="1px" opacity="0.25"></line><line x1="99.44196428571429" y1="0" x2="99.44196428571429" y2="177" fill="rgb(0, 0, 0)" stroke="rgb(189, 189, 189)" stroke-width="1px" opacity="0.25"></line><line x1="119.33035714285714" y1="0" x2="119.33035714285714" y2="177" fill="rgb(0, 0, 0)" stroke="rgb(189, 189, 189)" stroke-width="1px" opacity="0.25"></line><line x1="139.21875" y1="0" x2="139.21875" y2="177" fill="rgb(0, 0, 0)" stroke="rgb(189, 189, 189)" stroke-width="1px" opacity="0.25"></line><line x1="159.10714285714286" y1="0" x2="159.10714285714286" y2="177" fill="rgb(0, 0, 0)" stroke="rgb(189, 189, 189)" stroke-width="1px" opacity="0.25"></line><line x1="178.99553571428572" y1="0" x2="178.99553571428572" y2="177" fill="rgb(0, 0, 0)" stroke="rgb(189, 189, 189)" stroke-width="1px" opacity="0.25"></line><line x1="198.88392857142858" y1="0" x2="198.88392857142858" y2="177" fill="rgb(0, 0, 0)" stroke="rgb(189, 189, 189)" stroke-width="1px" opacity="0.25"></line><line x1="218.77232142857142" y1="0" x2="218.77232142857142" y2="177" fill="rgb(0, 0, 0)" stroke="rgb(189, 189, 189)" stroke-width="1px" opacity="0.25"></line><line x1="238.66071428571428" y1="0" x2="238.66071428571428" y2="177" fill="rgb(0, 0, 0)" stroke="rgb(189, 189, 189)" stroke-width="1px" opacity="0.25"></line><line x1="258.54910714285717" y1="0" x2="258.54910714285717" y2="177" fill="rgb(0, 0, 0)" stroke="rgb(189, 189, 189)" stroke-width="1px" opacity="0.25"></line><line x1="278.4375" y1="0" x2="278.4375" y2="177" fill="rgb(0, 0, 0)" stroke="rgb(189, 189, 189)" stroke-width="1px" opacity="0.25"></line></g><g><line x1="0" y1="177" x2="278.4375" y2="177" fill="rgb(0, 0, 0)" stroke="rgb(189, 189, 189)" stroke-width="1px" opacity="0.25"></line><line x1="0" y1="157.33333333333331" x2="278.4375" y2="157.33333333333331" fill="rgb(0, 0, 0)" stroke="rgb(189, 189, 189)" stroke-width="1px" opacity="0.25"></line><line x1="0" y1="137.66666666666666" x2="278.4375" y2="137.66666666666666" fill="rgb(0, 0, 0)" stroke="rgb(189, 189, 189)" stroke-width="1px" opacity="0.25"></line><line x1="0" y1="118" x2="278.4375" y2="118" fill="rgb(0, 0, 0)" stroke="rgb(189, 189, 189)" stroke-width="1px" opacity="0.25"></line><line x1="0" y1="98.33333333333334" x2="278.4375" y2="98.33333333333334" fill="rgb(0, 0, 0)" stroke="rgb(189, 189, 189)" stroke-width="1px" opacity="0.25"></line><line x1="0" y1="78.66666666666666" x2="278.4375" y2="78.66666666666666" fill="rgb(0, 0, 0)" stroke="rgb(189, 189, 189)" stroke-width="1px" opacity="0.25"></line><line x1="0" y1="59.00000000000001" x2="278.4375" y2="59.00000000000001" fill="rgb(0, 0, 0)" stroke="rgb(189, 189, 189)" stroke-width="1px" opacity="0.25"></line><line x1="0" y1="39.33333333333335" x2="278.4375" y2="39.33333333333335" fill="rgb(0, 0, 0)" stroke="rgb(189, 189, 189)" stroke-width="1px" opacity="0.25"></line><line x1="0" y1="19.666666666666675" x2="278.4375" y2="19.666666666666675" fill="rgb(0, 0, 0)" stroke="rgb(189, 189, 189)" stroke-width="1px" opacity="0.25"></line><line x1="0" y1="0" x2="278.4375" y2="0" fill="rgb(0, 0, 0)" stroke="rgb(189, 189, 189)" stroke-width="1px" opacity="0.25"></line></g></g></g><g><g><line x1="0" y1="157.33333333333331" x2="278.4375" y2="157.33333333333331" fill="rgb(0, 0, 0)" stroke="rgb(153, 153, 153)" stroke-width="1.5px"></line></g></g><g><g><line x1="19.888392857142858" y1="0" x2="19.888392857142858" y2="177" fill="rgb(0, 0, 0)" stroke="rgb(153, 153, 153)" stroke-width="1.5px"></line></g></g><g><g><g><g><g><path stroke="rgb(255, 112, 67)" stroke-width="2px" d="M19.888392857142858,20.61035676797235L20.8828125,-1272.0115646074216L27.84375,-11.04422756001558L28.838169642857146,2.6312917147303305L29.832589285714285,6.399433434937944L30.827008928571427,13.3292169119666L31.82142857142857,19.04175750768954L32.815848214285715,21.608825937041445L33.810267857142854,22.666133853623442L34.8046875,21.506298354303482L35.79910714285714,27.208163117920655L36.793526785714285,30.482374485083188L37.78794642857142,38.05025452814545L38.78236607142857,21.2671689752356L39.776785714285715,27.190338023450078L40.77120535714286,25.687914270602068L41.765625,32.45500671795694L42.760044642857146,37.52342100835594L43.754464285714285,35.314129341282936L44.74888392857143,33.2573374245565L45.74330357142857,36.05702506353442L46.73772321428571,45.398826908963976L47.732142857142854,36.91586146434427L48.7265625,35.17220966622124L49.720982142857146,58.393811257953026L50.715401785714285,53.71163452094246L51.70982142857143,53.89922910091291L52.70424107142857,58.90830445230993L53.698660714285715,65.7092326296709L54.693080357142854,71.17126798382596L55.6875,86.53409286957287L56.681919642857146,78.43809713270905L57.67633928571429,82.24146302601659L58.67075892857143,33.73927470753637L59.66517857142857,68.14802241726801L60.659598214285715,40.85256262342334L61.654017857142854,49.12316044243681L62.6484375,79.9777257261831L63.64285714285714,62.20118570648575L64.63727678571429,43.760767524222494L65.63169642857143,37.95478362108198L66.62611607142857,39.390091861905674L67.62053571428571,37.64301593636424L68.61495535714286,47.885830749365724L69.609375,44.51947902198573L70.60379464285714,66.37754947284824L71.59821428571428,72.24662248099854L72.59263392857143,77.03692213578536L73.58705357142857,61.08401071160136L74.58147321428571,36.813405675456316L75.57589285714285,51.34733316268777L76.5703125,55.79952347059861L77.56473214285714,69.99939308830108L78.55915178571429,70.52209330956943L79.55357142857143,72.74654517190149L80.54799107142858,55.25646717717117L81.54241071428572,76.33843263409479L82.53683035714286,81.05688128722876L83.53125,80.87427335890037L84.52566964285714,38.72884408977755L85.52008928571429,64.92777402607881L86.51450892857143,92.02894130195152L87.50892857142857,65.68462690618618L88.50334821428571,75.04140478515812L89.49776785714286,78.36144891268525L90.4921875,53.683807191569684L91.48660714285714,73.95534942387684L92.48102678571428,66.31129983567682L93.47544642857142,73.66199973923061L94.46986607142857,55.93526605587457L95.46428571428571,51.5792742162223L96.45870535714286,42.672173602736514L97.453125,38.04151673119657L98.44754464285715,51.42763909698362L99.44196428571429,67.33097942472001L100.43638392857143,88.66280097445151L101.43080357142857,82.2954846700845L102.42522321428572,93.97111860200671L103.41964285714286,63.6905861494039L104.4140625,70.68154916348622L105.40848214285714,88.69545677015722L106.40290178571428,98.99961694901909L107.39732142857143,100.18871021762922L108.39174107142857,83.23835791247349L109.38616071428571,99.5158446059461L110.38058035714285,95.008517731776L111.375,92.39193999144445L112.36941964285714,78.20845019443635L113.36383928571429,75.57163100018384L114.35825892857143,89.07392126266727L115.35267857142858,91.93897714979192L116.34709821428572,95.54782207866556L117.34151785714286,105.7633996132615L118.3359375,113.67356056314327L119.33035714285714,120.854883573502L120.32477678571429,108.72705706480126L121.31919642857143,118.09713322633296L122.31361607142857,113.3028349561321L123.30803571428571,84.97898603774074L124.30245535714286,74.68394073623597L125.296875,80.64517586695064L126.29129464285714,103.68962836424654L127.28571428571428,121.6627905904858L128.28013392857142,118.19102240043532L129.27455357142858,72.83575746479224L130.26897321428572,51.01358947592532L131.26339285714286,80.97447298032576L132.2578125,101.39060543812832L133.25223214285714,117.83970422250542L134.24665178571428,88.4974326453756L135.24107142857142,100.7913950698863L136.23549107142856,109.49412365062777L137.22991071428572,119.14180572015292L138.22433035714286,114.88156460433551L139.21875,120.11166800285983L140.21316964285714,126.52437485392257L141.20758928571428,123.10804146410247L142.20200892857142,131.74366429774693L143.19642857142856,131.31223691301784L144.19084821428572,134.721139632447L145.18526785714286,127.38872660564388L146.1796875,128.73443869372412L147.17410714285714,134.03111839465421L148.16852678571428,138.03273362023904L149.16294642857142,132.61650795600778L150.15736607142856,137.44594492035287L151.1517857142857,140.28972754985398L152.14620535714283,145.57062756931964L153.140625,139.817225602763L154.13504464285714,129.4283455972853L155.12946428571428,140.0713879606614L156.12388392857142,140.47457313586213L157.11830357142858,138.73368377714718L158.11272321428572,136.91912807760255L159.10714285714286,139.47449303907723L160.1015625,144.0841506316815L161.09598214285717,147.7998411925368L162.0904017857143,147.82440889607264L163.08482142857144,146.14850231844423L164.07924107142858,148.61992872409962L165.07366071428572,151.69024295326835L166.06808035714286,151.16609706113795L167.0625,152.19109118012622L168.05691964285714,152.44627211358966L169.05133928571428,153.68525510822823L170.04575892857144,138.1609025307204L171.04017857142858,142.52382115866973L172.03459821428572,146.59130992648738L173.02901785714286,149.31872393334552L174.0234375,146.78072595583185L175.01785714285714,149.51165843250425L176.01227678571428,148.89447563434882L177.00669642857142,151.56293945364303L178.00111607142856,152.99824055866688L178.99553571428572,154.3637094586022L179.98995535714286,155.48061320968716L180.984375,155.92524417214543L181.97879464285714,156.4483548651234L182.97321428571428,156.16356761555448L183.96763392857142,146.25111254434134L184.96205357142856,150.22301372354931L185.9564732142857,152.84297024655515L186.95089285714283,154.07408963137772L187.9453125,154.42030937742533L188.93973214285714,153.22992379330404L189.93415178571428,154.22555826621934L190.92857142857142,152.79006837418288L191.92299107142858,141.7993204471108L192.91741071428572,143.84663043081582L193.91183035714286,149.19293059611027L194.90625,152.3484681167364L195.90066964285717,152.57422390142042L196.8950892857143,135.87057327365255L197.88950892857144,119.82932097396478L198.88392857142858,134.69095335263745L199.87834821428572,107.60951257859908L200.87276785714286,124.53854700792972L201.8671875,137.1149692342578L202.86160714285714,142.95977799381208L203.85602678571428,146.46065369319155L204.85044642857144,150.64363519554576L205.84486607142858,153.10207774370306L206.83928571428572,104.51187570569553L207.83370535714286,124.65170489531343L208.828125,136.68261345767925L209.82254464285714,140.13971165842185L210.81696428571428,143.6010699045243L211.81138392857142,140.20133232106264L212.80580357142856,146.54325643981693L213.80022321428572,149.55836748563365L214.79464285714286,152.41625981885812L215.7890625,148.75097046310873L216.78348214285714,152.01653423517052L217.77790178571428,153.41890129735532L218.77232142857142,153.98540107234595L219.76674107142856,155.1943576636805L220.7611607142857,153.95711146958038L221.75558035714283,138.783352588618L222.75,145.7374834201013L223.74441964285714,149.78669765840127L224.73883928571428,151.83365173811802L225.73325892857142,153.85660682418748L226.72767857142858,154.61263220066112L227.72209821428572,154.7986683143434L228.71651785714286,147.99622572421572L229.7109375,150.15152780737208L230.70535714285717,150.95864404206907L231.6997767857143,143.04438301900288L232.69419642857144,148.44636626467164L233.68861607142858,151.6820080726597L234.68303571428572,153.66852792875738L235.67745535714286,154.70783001759213L236.671875,142.13465765662133L237.66629464285714,147.36584065038247L238.66071428571428,149.03906870590617L239.65513392857144,144.09697350684982L240.64955357142858,149.00326797807722L241.64397321428572,151.9662657021652L242.63839285714286,152.21413287704212L243.6328125,149.83059774846845L244.62723214285714,151.93985472700604L245.62165178571428,151.6886753857033L246.61607142857142,153.61207469336074L247.61049107142856,138.19670790452886L248.60491071428572,142.98839241774357L249.59933035714286,148.24877789089467L250.59375,150.31419465573262L251.58816964285714,152.23317172382255L252.58258928571428,153.31290433905906L253.57700892857142,154.6631093783198L254.57142857142856,155.41580157978444L255.5658482142857,151.81076701086624L256.56026785714283,144.57887941560267L257.5546875,146.95642196115526" style="fill: none;" fill="none"></path></g></g></g></g><g opacity="0.2"><g><g><g><path stroke="rgb(255, 112, 67)" stroke-width="2px" d="M19.888392857142858,20.610356767972327L20.8828125,-2047.5847174326575L21.877232142857142,43.734961986541755L22.871651785714285,-157.57366752624515L23.866071428571427,-15.003352920214319L24.860491071428573,5.154550909996033L25.854910714285715,19.384561419487007L26.849330357142858,19.453394452730816L27.84375,22.033777475357063L28.838169642857146,22.937844038009658L29.832589285714285,12.017469247182227L30.827008928571427,23.68618055184683L31.82142857142857,27.59191596508026L32.815848214285715,25.454399426778174L33.810267857142854,24.250852902730323L34.8046875,19.76736311117808L35.79910714285714,35.758547425270095L36.793526785714285,35.39286021391552L37.78794642857142,49.40092170238495L38.78236607142857,-3.9059253136317023L39.776785714285715,36.074766755104065L40.77120535714286,23.434328079223647L41.765625,42.60551178455354L42.760044642857146,45.125982403755195L43.754464285714285,32.00020754337312L44.74888392857143,30.17215832074485L45.74330357142857,40.256549358367934L46.73772321428571,59.411515335241965L47.732142857142854,24.191421111424773L48.7265625,32.55673293272655L49.720982142857146,93.22620594501497L50.715401785714285,46.688370347023024L51.70982142857143,54.180620948473624L52.70424107142857,66.42191712061565L53.698660714285715,75.91062460343043L54.693080357142854,79.36432087421419L55.6875,109.57832996050517L56.681919642857146,66.29410360256831L57.67633928571429,87.94651184479396L58.67075892857143,-39.0140076080958L59.66517857142857,119.76114391287167L60.659598214285715,-0.0906270345051865L61.654017857142854,61.52905716498694L62.6484375,126.25957363843918L63.64285714285714,35.53637568155925L64.63727678571429,16.100140253702815L65.63169642857143,29.245807766914382L66.62611607142857,41.54305422306061L67.62053571428571,35.02240204811096L68.61495535714286,63.250052968661L69.609375,39.46995143095653L70.60379464285714,99.16465514898302L71.59821428571428,81.0502319931984L72.59263392857143,84.222371617953L73.58705357142857,37.15464357535045L74.58147321428571,0.40749812126160323L75.57589285714285,73.14822439352673L76.5703125,62.47780893246333L77.56473214285714,91.29919751485191L78.55915178571429,71.30614364147186L79.55357142857143,76.08322296539943L80.54799107142858,29.021350185076404L81.54241071428572,107.96138081947963L82.53683035714286,88.13455426692964L83.53125,80.60036146640779L84.52566964285714,-24.489299813906374L85.52008928571429,104.22616893053055L86.51450892857143,132.68069221576056L87.50892857142857,26.16815531253816L88.50334821428571,89.0765716036161L89.49776785714286,83.34151510397594L90.4921875,16.667344609896343L91.48660714285714,104.3626627723376L92.48102678571428,54.845225453376784L93.47544642857142,84.68804959456128L94.46986607142857,29.34516553084057L95.46428571428571,45.04528645674389L96.45870535714286,29.31152268250784L97.453125,31.095531423886623L98.44754464285715,71.50682264566423L99.44196428571429,91.18598991632463L100.43638392857143,120.66053329904874L101.43080357142857,72.74451021353404L102.42522321428572,111.48456949989001L103.41964285714286,18.269787470499676L104.4140625,81.16799368460974L105.40848214285714,115.7163181801637L106.40290178571428,114.45585721731187L107.39732142857143,101.97235012054443L108.39174107142857,57.81282945473989L109.38616071428571,123.93207464615503L110.38058035714285,88.24752742052078L111.375,88.46707338094711L112.36941964285714,56.933215498924255L113.36383928571429,71.61640220880508L114.35825892857143,109.32735665639242L115.35267857142858,96.23656098047893L116.34709821428572,100.96108947197595L117.34151785714286,121.08676591515541L118.3359375,125.53880198796591L119.33035714285714,131.62686808904013L120.32477678571429,90.5353173017502L121.31919642857143,132.1522474686305L122.31361607142857,106.11138755083084L123.30803571428571,42.49321266015372L124.30245535714286,59.241372783978775L125.296875,89.58702856302263L126.29129464285714,138.2563071101904L127.28571428571428,148.6225339298447L128.28013392857142,112.98337011535965L129.27455357142858,4.802860061327632L130.26897321428572,18.28033749262492L131.26339285714286,125.91579823692642L132.2578125,132.01480412483215L133.25223214285714,142.51335239907107L134.24665178571428,44.4840252796809L135.24107142857142,119.23233870665233L136.23549107142856,122.54821652173996L137.22991071428572,133.61332882444063L138.22433035714286,108.49120293060939L139.21875,127.95682310064633L140.21316964285714,136.14343513051668L141.20758928571428,117.98354137937228L142.20200892857142,144.69709854821363L143.19642857142856,130.66509583592415L144.19084821428572,139.83449371159077L145.18526785714286,116.39010706543922L146.1796875,130.75300682584444L147.17410714285714,141.9761379460494L148.16852678571428,144.03515645861626L149.16294642857142,124.49216945966084L150.15736607142856,144.69010036687055L151.1517857142857,144.55540149410567L152.14620535714283,153.49197759851813L153.140625,131.18712265292802L154.13504464285714,113.84502558906874L155.12946428571428,156.0359515057256L156.12388392857142,141.0793508986632L157.11830357142858,136.1223497390747L158.11272321428572,134.19729452828565L159.10714285714286,143.3075404812892L160.1015625,150.99863702058792L161.09598214285717,153.37337703381976L162.0904017857143,147.86126045137644L163.08482142857144,143.63464245200157L164.07924107142858,152.3270683325827L165.07366071428572,156.29571429702145L166.06808035714286,150.37987822294235L167.0625,153.72858235860866L168.05691964285714,152.8290435137848L169.05133928571428,155.54372960018614L170.04575892857144,114.87437366445859L171.04017857142858,149.06819910059374L172.03459821428572,152.69254307821393L173.02901785714286,153.4098449436327L174.0234375,142.9737289895614L175.01785714285714,153.60805714751282L176.01227678571428,147.96870143711567L177.00669642857142,155.56563518258432L178.00111607142856,155.15119221620262L178.99553571428572,156.4119128085052L179.98995535714286,157.15596883631466L180.984375,156.5921906158328L181.97879464285714,157.23302090459038L182.97321428571428,155.7363867412011L183.96763392857142,131.3824299375216L184.96205357142856,156.18086549236128L185.9564732142857,156.77290503106389L186.95089285714283,155.92076870861152L187.9453125,154.9396389964968L188.93973214285714,151.44434541712204L189.93415178571428,155.7190099755923L190.92857142857142,150.6368335361282L191.92299107142858,125.31319855650266L192.91741071428572,146.91759540637335L193.91183035714286,157.21238084405195L194.90625,157.0817743976756L195.90066964285717,152.91285757844645L196.8950892857143,110.81509733200075L197.88950892857144,95.76744252443315L198.88392857142858,156.98340192064643L199.87834821428572,66.98735141754152L200.87276785714286,149.9320986519257L201.8671875,155.97960257374993L202.86160714285714,151.7269911331435L203.85602678571428,151.71196724226078L204.85044642857144,156.91810744907707L205.84486607142858,156.78974156593904L206.83928571428572,31.626572648684192L207.83370535714286,154.86144867974025L208.828125,154.728976301228L209.82254464285714,145.32535895953575L210.81696428571428,148.793107273678L211.81138392857142,135.10172594587007L212.80580357142856,156.05614261794835L213.80022321428572,154.0810340543588L214.79464285714286,156.70309831869477L215.7890625,143.25303642948467L216.78348214285714,156.91487989326316L217.77790178571428,155.5224518906325L218.77232142857142,154.83515073483187L219.76674107142856,157.0077925506824L220.7611607142857,152.10124217843017L221.75558035714283,116.02271426717441L222.75,156.16867966732633L223.74441964285714,155.8605190158511L224.73883928571428,154.90408285769323L225.73325892857142,156.89103945329165L226.72767857142858,155.7466702653716L227.72209821428572,155.0777224848668L228.71651785714286,137.79256183902422L229.7109375,153.38448093210658L230.70535714285717,152.16931839411455L231.6997767857143,131.1729914844036L232.69419642857144,156.5493411331748L233.68861607142858,156.5354707846418L234.68303571428572,156.64830771290386L235.67745535714286,156.26678315084428L236.671875,123.27489911516508L237.66629464285714,155.2126151410242L238.66071428571428,151.54891078919172L239.65513392857144,136.6838307082653L240.64955357142858,156.36270968491831L241.64397321428572,156.41076228829724L242.63839285714286,152.58593363935748L243.6328125,146.25529505560795L244.62723214285714,155.10374019481242L245.62165178571428,151.31190637374917L246.61607142857142,156.49717365484685L247.61049107142856,115.07365772128105L248.60491071428572,150.17591918756565L249.59933035714286,156.1393561006213L250.59375,153.41231980298957L251.58816964285714,155.11163732595742L252.58258928571428,154.93250326191387L253.57700892857142,156.68841693721092L254.57142857142856,156.54483988198143L255.5658482142857,146.40321515748897L256.56026785714283,133.73104802270728L257.5546875,150.52273577948412" style="fill: none;" fill="none"></path></g></g></g></g></g></g><g transform="translate(51, 177)" clip-path="url(#clip_1)"><clipPath id="clip_1"><rect width="278" height="23"></rect></clipPath><g><g><line x1="0" y1="0" x2="0" y2="5" style="visibility: inherit;" fill="rgb(0, 0, 0)" stroke="rgb(204, 204, 204)" stroke-width="1px"></line><line x1="19.888392857142858" y1="0" x2="19.888392857142858" y2="5" style="visibility: inherit;" fill="rgb(0, 0, 0)" stroke="rgb(204, 204, 204)" stroke-width="1px"></line><line x1="39.776785714285715" y1="0" x2="39.776785714285715" y2="5" style="visibility: inherit;" fill="rgb(0, 0, 0)" stroke="rgb(204, 204, 204)" stroke-width="1px"></line><line x1="59.66517857142857" y1="0" x2="59.66517857142857" y2="5" style="visibility: inherit;" fill="rgb(0, 0, 0)" stroke="rgb(204, 204, 204)" stroke-width="1px"></line><line x1="79.55357142857143" y1="0" x2="79.55357142857143" y2="5" style="visibility: inherit;" fill="rgb(0, 0, 0)" stroke="rgb(204, 204, 204)" stroke-width="1px"></line><line x1="99.44196428571429" y1="0" x2="99.44196428571429" y2="5" style="visibility: inherit;" fill="rgb(0, 0, 0)" stroke="rgb(204, 204, 204)" stroke-width="1px"></line><line x1="119.33035714285714" y1="0" x2="119.33035714285714" y2="5" style="visibility: inherit;" fill="rgb(0, 0, 0)" stroke="rgb(204, 204, 204)" stroke-width="1px"></line><line x1="139.21875" y1="0" x2="139.21875" y2="5" style="visibility: inherit;" fill="rgb(0, 0, 0)" stroke="rgb(204, 204, 204)" stroke-width="1px"></line><line x1="159.10714285714286" y1="0" x2="159.10714285714286" y2="5" style="visibility: inherit;" fill="rgb(0, 0, 0)" stroke="rgb(204, 204, 204)" stroke-width="1px"></line><line x1="178.99553571428572" y1="0" x2="178.99553571428572" y2="5" style="visibility: inherit;" fill="rgb(0, 0, 0)" stroke="rgb(204, 204, 204)" stroke-width="1px"></line><line x1="198.88392857142858" y1="0" x2="198.88392857142858" y2="5" style="visibility: inherit;" fill="rgb(0, 0, 0)" stroke="rgb(204, 204, 204)" stroke-width="1px"></line><line x1="218.77232142857142" y1="0" x2="218.77232142857142" y2="5" style="visibility: inherit;" fill="rgb(0, 0, 0)" stroke="rgb(204, 204, 204)" stroke-width="1px"></line><line x1="238.66071428571428" y1="0" x2="238.66071428571428" y2="5" style="visibility: inherit;" fill="rgb(0, 0, 0)" stroke="rgb(204, 204, 204)" stroke-width="1px"></line><line x1="258.54910714285717" y1="0" x2="258.54910714285717" y2="5" style="visibility: inherit;" fill="rgb(0, 0, 0)" stroke="rgb(204, 204, 204)" stroke-width="1px"></line><line x1="278.4375" y1="0" x2="278.4375" y2="5" style="visibility: inherit;" fill="rgb(0, 0, 0)" stroke="rgb(204, 204, 204)" stroke-width="1px"></line></g><g transform="translate(0, 8)"><text x="0" y="0" dx="0em" dy="0.95em" style="text-anchor: middle; visibility: hidden; font-family: Roboto, sans-serif; font-size: 12px; font-weight: 200;" fill="rgb(255, 255, 255)" stroke="none" stroke-width="1px">-20</text><text x="19.888392857142858" y="0" dx="0em" dy="0.95em" style="text-anchor: middle; visibility: inherit; font-family: Roboto, sans-serif; font-size: 12px; font-weight: 200;" fill="rgb(255, 255, 255)" stroke="none" stroke-width="1px">0</text><text x="39.776785714285715" y="0" dx="0em" dy="0.95em" style="text-anchor: middle; visibility: hidden; font-family: Roboto, sans-serif; font-size: 12px; font-weight: 200;" fill="rgb(255, 255, 255)" stroke="none" stroke-width="1px">20</text><text x="59.66517857142857" y="0" dx="0em" dy="0.95em" style="text-anchor: middle; visibility: inherit; font-family: Roboto, sans-serif; font-size: 12px; font-weight: 200;" fill="rgb(255, 255, 255)" stroke="none" stroke-width="1px">40</text><text x="79.55357142857143" y="0" dx="0em" dy="0.95em" style="text-anchor: middle; visibility: hidden; font-family: Roboto, sans-serif; font-size: 12px; font-weight: 200;" fill="rgb(255, 255, 255)" stroke="none" stroke-width="1px">60</text><text x="99.44196428571429" y="0" dx="0em" dy="0.95em" style="text-anchor: middle; visibility: inherit; font-family: Roboto, sans-serif; font-size: 12px; font-weight: 200;" fill="rgb(255, 255, 255)" stroke="none" stroke-width="1px">80</text><text x="119.33035714285714" y="0" dx="0em" dy="0.95em" style="text-anchor: middle; visibility: hidden; font-family: Roboto, sans-serif; font-size: 12px; font-weight: 200;" fill="rgb(255, 255, 255)" stroke="none" stroke-width="1px">100</text><text x="139.21875" y="0" dx="0em" dy="0.95em" style="text-anchor: middle; visibility: inherit; font-family: Roboto, sans-serif; font-size: 12px; font-weight: 200;" fill="rgb(255, 255, 255)" stroke="none" stroke-width="1px">120</text><text x="159.10714285714286" y="0" dx="0em" dy="0.95em" style="text-anchor: middle; visibility: hidden; font-family: Roboto, sans-serif; font-size: 12px; font-weight: 200;" fill="rgb(255, 255, 255)" stroke="none" stroke-width="1px">140</text><text x="178.99553571428572" y="0" dx="0em" dy="0.95em" style="text-anchor: middle; visibility: inherit; font-family: Roboto, sans-serif; font-size: 12px; font-weight: 200;" fill="rgb(255, 255, 255)" stroke="none" stroke-width="1px">160</text><text x="198.88392857142858" y="0" dx="0em" dy="0.95em" style="text-anchor: middle; visibility: hidden; font-family: Roboto, sans-serif; font-size: 12px; font-weight: 200;" fill="rgb(255, 255, 255)" stroke="none" stroke-width="1px">180</text><text x="218.77232142857142" y="0" dx="0em" dy="0.95em" style="text-anchor: middle; visibility: inherit; font-family: Roboto, sans-serif; font-size: 12px; font-weight: 200;" fill="rgb(255, 255, 255)" stroke="none" stroke-width="1px">200</text><text x="238.66071428571428" y="0" dx="0em" dy="0.95em" style="text-anchor: middle; visibility: hidden; font-family: Roboto, sans-serif; font-size: 12px; font-weight: 200;" fill="rgb(255, 255, 255)" stroke="none" stroke-width="1px">220</text><text x="258.54910714285717" y="0" dx="0em" dy="0.95em" style="text-anchor: middle; visibility: inherit; font-family: Roboto, sans-serif; font-size: 12px; font-weight: 200;" fill="rgb(255, 255, 255)" stroke="none" stroke-width="1px">240</text><text x="278.4375" y="0" dx="0em" dy="0.95em" style="text-anchor: middle; visibility: hidden; font-family: Roboto, sans-serif; font-size: 12px; font-weight: 200;" fill="rgb(255, 255, 255)" stroke="none" stroke-width="1px">260</text></g><line x1="0" y1="0" x2="278.4375" y2="0" fill="rgb(0, 0, 0)" stroke="rgb(204, 204, 204)" stroke-width="1px"></line></g></g></g></g></svg>